<svg width="1283" height="1190" viewBox="0 0 1283 1190" fill="none" xmlns="http://www.w3.org/2000/svg">
<g filter="url(#filter0_d_314_6820)">
<path d="M257.216 64.8878C256.014 64.8886 254.858 64.4224 253.992 63.5876C253.126 62.7528 252.618 61.6146 252.575 60.4128V4.64077C252.575 3.40997 253.064 2.22956 253.935 1.35925C254.805 0.488939 255.985 0 257.216 0C258.447 0 259.627 0.488939 260.498 1.35925C261.368 2.22956 261.857 3.40997 261.857 4.64077V60.4128C261.814 61.6146 261.306 62.7528 260.44 63.5876C259.575 64.4224 258.419 64.8886 257.216 64.8878Z" fill="#0EA362"/>
<path d="M285.019 37.0848H229.413C228.77 37.1458 228.12 37.0717 227.507 36.8673C226.894 36.6628 226.33 36.3326 225.852 35.8976C225.374 35.4627 224.992 34.9327 224.731 34.3415C224.469 33.7504 224.334 33.1111 224.334 32.4647C224.334 31.8184 224.469 31.1791 224.731 30.588C224.992 29.9968 225.374 29.4668 225.852 29.0318C226.33 28.5969 226.894 28.2666 227.507 28.0622C228.12 27.8578 228.77 27.7837 229.413 27.8447H285.019C285.663 27.7837 286.312 27.8578 286.925 28.0622C287.538 28.2666 288.102 28.5969 288.58 29.0318C289.058 29.4668 289.44 29.9968 289.702 30.588C289.963 31.1791 290.098 31.8184 290.098 32.4647C290.098 33.1111 289.963 33.7504 289.702 34.3415C289.44 34.9327 289.058 35.4627 288.58 35.8976C288.102 36.3326 287.538 36.6628 286.925 36.8673C286.312 37.0717 285.663 37.1458 285.019 37.0848Z" fill="#0EA362"/>
<path d="M1251.83 729.014C1250.6 729.014 1249.42 728.525 1248.55 727.654C1247.68 726.784 1247.19 725.604 1247.19 724.373V681.114C1247.19 679.884 1247.68 678.703 1248.55 677.833C1249.42 676.963 1250.6 676.474 1251.83 676.474C1253.06 676.474 1254.24 676.963 1255.11 677.833C1255.98 678.703 1256.47 679.884 1256.47 681.114V724.373C1256.47 725.604 1255.98 726.784 1255.11 727.654C1254.24 728.525 1253.06 729.014 1251.83 729.014Z" fill="#0EA362"/>
<path d="M1273.46 707.385H1230.2C1228.97 707.385 1227.79 706.896 1226.92 706.025C1226.05 705.155 1225.56 703.975 1225.56 702.744C1225.56 701.513 1226.05 700.333 1226.92 699.462C1227.79 698.592 1228.97 698.103 1230.2 698.103H1273.46C1274.69 698.103 1275.87 698.592 1276.74 699.462C1277.61 700.333 1278.1 701.513 1278.1 702.744C1278.1 703.975 1277.61 705.155 1276.74 706.025C1275.87 706.896 1274.69 707.385 1273.46 707.385Z" fill="#0EA362"/>
<path d="M88.8644 112.787C87.6408 112.776 86.471 112.282 85.6097 111.413C84.7483 110.544 84.2651 109.37 84.2651 108.146V80.3432C84.2041 79.6997 84.2782 79.0506 84.4826 78.4374C84.687 77.8242 85.0173 77.2605 85.4523 76.7823C85.8872 76.3042 86.4172 75.9222 87.0084 75.6608C87.5995 75.3994 88.2388 75.2644 88.8851 75.2644C89.5315 75.2644 90.1707 75.3994 90.7619 75.6608C91.353 75.9222 91.8831 76.3042 92.318 76.7823C92.753 77.2605 93.0832 77.8242 93.2877 78.4374C93.4921 79.0506 93.5662 79.6997 93.5052 80.3432V108.146C93.5052 109.377 93.0163 110.558 92.146 111.428C91.2756 112.298 90.0952 112.787 88.8644 112.787Z" fill="#0EA362"/>
<path d="M102.787 98.8648H74.9835C73.7527 98.8648 72.5723 98.3759 71.702 97.5056C70.8317 96.6353 70.3428 95.4549 70.3428 94.2241C70.3428 92.9932 70.8317 91.8128 71.702 90.9425C72.5723 90.0722 73.7527 89.5833 74.9835 89.5833H102.787C104.017 89.5833 105.198 90.0722 106.068 90.9425C106.939 91.8128 107.427 92.9932 107.427 94.2241C107.427 95.4549 106.939 96.6353 106.068 97.5056C105.198 98.3759 104.017 98.8648 102.787 98.8648Z" fill="#0EA362"/>
<path d="M800.848 874.162C799.625 874.151 798.455 873.657 797.594 872.788C796.732 871.919 796.249 870.745 796.249 869.521V841.718C796.358 840.568 796.892 839.5 797.746 838.723C798.601 837.946 799.714 837.515 800.869 837.515C802.024 837.515 803.137 837.946 803.992 838.723C804.846 839.5 805.38 840.568 805.489 841.718V869.521C805.489 870.752 805 871.932 804.13 872.803C803.259 873.673 802.079 874.162 800.848 874.162Z" fill="#0EA362"/>
<path d="M814.853 860.115H787.05C785.82 860.115 784.639 859.626 783.769 858.756C782.899 857.886 782.41 856.705 782.41 855.475C782.41 854.244 782.899 853.063 783.769 852.193C784.639 851.323 785.82 850.834 787.05 850.834H814.853C816.084 850.834 817.265 851.323 818.135 852.193C819.005 853.063 819.494 854.244 819.494 855.475C819.494 856.705 819.005 857.886 818.135 858.756C817.265 859.626 816.084 860.115 814.853 860.115Z" fill="#0EA362"/>
<path d="M1224.03 265.684C1220.67 265.684 1217.38 264.687 1214.59 262.82C1211.8 260.954 1209.62 258.301 1208.33 255.196C1207.05 252.092 1206.71 248.676 1207.37 245.381C1208.02 242.085 1209.64 239.058 1212.01 236.682C1214.39 234.306 1217.42 232.688 1220.71 232.033C1224.01 231.377 1227.42 231.714 1230.53 233C1233.63 234.286 1236.29 236.463 1238.15 239.257C1240.02 242.05 1241.02 245.335 1241.02 248.695C1241.01 253.197 1239.21 257.512 1236.03 260.696C1232.84 263.879 1228.53 265.673 1224.03 265.684ZM1224.03 240.822C1222.5 240.822 1221 241.277 1219.72 242.128C1218.45 242.98 1217.46 244.19 1216.87 245.606C1216.28 247.021 1216.13 248.579 1216.43 250.082C1216.73 251.585 1217.46 252.966 1218.55 254.05C1219.63 255.133 1221.01 255.871 1222.52 256.17C1224.02 256.469 1225.58 256.316 1226.99 255.729C1228.41 255.143 1229.62 254.15 1230.47 252.876C1231.32 251.601 1231.78 250.103 1231.78 248.571C1231.74 246.537 1230.91 244.598 1229.46 243.172C1228.01 241.746 1226.06 240.946 1224.03 240.947V240.822Z" fill="#0EA362"/>
<path d="M862.628 49.4324C858.047 49.4324 853.569 48.074 849.76 45.5288C845.951 42.9837 842.982 39.3663 841.229 35.1339C839.476 30.9015 839.017 26.2444 839.911 21.7513C840.805 17.2582 843.011 13.1311 846.25 9.89178C849.489 6.65246 853.616 4.44646 858.109 3.55274C862.602 2.65901 867.26 3.11769 871.492 4.8708C875.724 6.6239 879.342 9.5927 881.887 13.4017C884.432 17.2108 885.791 21.689 885.791 26.27C885.791 32.4131 883.35 38.3045 879.006 42.6483C874.663 46.9921 868.771 49.4324 862.628 49.4324ZM862.628 12.3892C859.873 12.3892 857.18 13.2068 854.889 14.7384C852.599 16.2701 850.814 18.4469 849.762 20.9933C848.709 23.5396 848.436 26.3411 848.977 29.0429C849.517 31.7446 850.847 34.2253 852.798 36.1707C854.75 38.1161 857.234 39.4388 859.938 39.9713C862.641 40.5038 865.442 40.2221 867.985 39.162C870.528 38.1019 872.7 36.3111 874.224 34.0161C875.749 31.7212 876.559 29.0254 876.55 26.27C876.551 24.4437 876.19 22.6353 875.49 20.9485C874.79 19.2617 873.764 17.7296 872.47 16.4401C871.177 15.1506 869.642 14.129 867.953 13.4339C866.264 12.7387 864.454 12.3838 862.628 12.3892Z" fill="#0EA362"/>
<path d="M461.078 809.316C456.497 809.316 452.019 807.957 448.21 805.412C444.401 802.867 441.432 799.249 439.679 795.017C437.926 790.785 437.467 786.128 438.361 781.634C439.255 777.141 441.461 773.014 444.7 769.775C447.939 766.536 452.067 764.33 456.56 763.436C461.053 762.542 465.71 763.001 469.942 764.754C474.175 766.507 477.792 769.476 480.337 773.285C482.882 777.094 484.241 781.572 484.241 786.153C484.23 792.293 481.786 798.178 477.445 802.519C473.103 806.861 467.218 809.305 461.078 809.316ZM461.078 772.231C458.325 772.231 455.633 773.047 453.344 774.577C451.054 776.107 449.27 778.281 448.216 780.825C447.162 783.369 446.886 786.169 447.424 788.869C447.961 791.57 449.287 794.051 451.234 795.998C453.181 797.945 455.662 799.271 458.362 799.808C461.063 800.345 463.862 800.069 466.406 799.016C468.95 797.962 471.125 796.178 472.654 793.888C474.184 791.599 475.001 788.907 475.001 786.153C475.001 784.325 474.641 782.515 473.941 780.825C473.241 779.136 472.216 777.601 470.923 776.309C469.63 775.016 468.095 773.99 466.406 773.291C464.717 772.591 462.907 772.231 461.078 772.231Z" fill="#0EA362"/>
<g opacity="0.5">
<path d="M257.216 64.8878C256.014 64.8886 254.858 64.4224 253.992 63.5876C253.126 62.7528 252.618 61.6146 252.575 60.4128V4.64077C252.575 3.40997 253.064 2.22956 253.935 1.35925C254.805 0.488939 255.985 0 257.216 0C258.447 0 259.627 0.488939 260.498 1.35925C261.368 2.22956 261.857 3.40997 261.857 4.64077V60.4128C261.814 61.6146 261.306 62.7528 260.44 63.5876C259.575 64.4224 258.419 64.8886 257.216 64.8878Z" fill="white"/>
<path d="M285.019 37.0848H229.413C228.77 37.1458 228.12 37.0717 227.507 36.8673C226.894 36.6628 226.33 36.3326 225.852 35.8976C225.374 35.4627 224.992 34.9327 224.731 34.3415C224.469 33.7504 224.334 33.1111 224.334 32.4647C224.334 31.8184 224.469 31.1791 224.731 30.588C224.992 29.9968 225.374 29.4668 225.852 29.0318C226.33 28.5969 226.894 28.2666 227.507 28.0622C228.12 27.8578 228.77 27.7837 229.413 27.8447H285.019C285.663 27.7837 286.312 27.8578 286.925 28.0622C287.538 28.2666 288.102 28.5969 288.58 29.0318C289.058 29.4668 289.44 29.9968 289.702 30.588C289.963 31.1791 290.098 31.8184 290.098 32.4647C290.098 33.1111 289.963 33.7504 289.702 34.3415C289.44 34.9327 289.058 35.4627 288.58 35.8976C288.102 36.3326 287.538 36.6628 286.925 36.8673C286.312 37.0717 285.663 37.1458 285.019 37.0848Z" fill="white"/>
<path d="M1251.83 729.014C1250.6 729.014 1249.42 728.525 1248.55 727.654C1247.68 726.784 1247.19 725.604 1247.19 724.373V681.114C1247.19 679.884 1247.68 678.703 1248.55 677.833C1249.42 676.963 1250.6 676.474 1251.83 676.474C1253.06 676.474 1254.24 676.963 1255.11 677.833C1255.98 678.703 1256.47 679.884 1256.47 681.114V724.373C1256.47 725.604 1255.98 726.784 1255.11 727.654C1254.24 728.525 1253.06 729.014 1251.83 729.014Z" fill="white"/>
<path d="M1273.46 707.385H1230.2C1228.97 707.385 1227.79 706.896 1226.92 706.025C1226.05 705.155 1225.56 703.975 1225.56 702.744C1225.56 701.513 1226.05 700.333 1226.92 699.462C1227.79 698.592 1228.97 698.103 1230.2 698.103H1273.46C1274.69 698.103 1275.87 698.592 1276.74 699.462C1277.61 700.333 1278.1 701.513 1278.1 702.744C1278.1 703.975 1277.61 705.155 1276.74 706.025C1275.87 706.896 1274.69 707.385 1273.46 707.385Z" fill="white"/>
<path d="M88.8644 112.787C87.6408 112.776 86.471 112.282 85.6097 111.413C84.7483 110.544 84.2651 109.37 84.2651 108.146V80.3432C84.2041 79.6997 84.2782 79.0506 84.4826 78.4374C84.687 77.8242 85.0173 77.2605 85.4523 76.7823C85.8872 76.3042 86.4172 75.9222 87.0084 75.6608C87.5995 75.3994 88.2388 75.2644 88.8851 75.2644C89.5315 75.2644 90.1707 75.3994 90.7619 75.6608C91.353 75.9222 91.8831 76.3042 92.318 76.7823C92.753 77.2605 93.0832 77.8242 93.2877 78.4374C93.4921 79.0506 93.5662 79.6997 93.5052 80.3432V108.146C93.5052 109.377 93.0163 110.558 92.146 111.428C91.2756 112.298 90.0952 112.787 88.8644 112.787Z" fill="white"/>
<path d="M102.787 98.8648H74.9835C73.7527 98.8648 72.5723 98.3759 71.702 97.5056C70.8317 96.6353 70.3428 95.4549 70.3428 94.2241C70.3428 92.9932 70.8317 91.8128 71.702 90.9425C72.5723 90.0722 73.7527 89.5833 74.9835 89.5833H102.787C104.017 89.5833 105.198 90.0722 106.068 90.9425C106.939 91.8128 107.427 92.9932 107.427 94.2241C107.427 95.4549 106.939 96.6353 106.068 97.5056C105.198 98.3759 104.017 98.8648 102.787 98.8648Z" fill="white"/>
<path d="M800.848 874.162C799.625 874.151 798.455 873.657 797.594 872.788C796.732 871.919 796.249 870.745 796.249 869.521V841.718C796.358 840.568 796.892 839.5 797.746 838.723C798.601 837.946 799.714 837.515 800.869 837.515C802.024 837.515 803.137 837.946 803.992 838.723C804.846 839.5 805.38 840.568 805.489 841.718V869.521C805.489 870.752 805 871.932 804.13 872.803C803.259 873.673 802.079 874.162 800.848 874.162Z" fill="white"/>
<path d="M814.853 860.115H787.05C785.82 860.115 784.639 859.626 783.769 858.756C782.899 857.886 782.41 856.705 782.41 855.475C782.41 854.244 782.899 853.063 783.769 852.193C784.639 851.323 785.82 850.834 787.05 850.834H814.853C816.084 850.834 817.265 851.323 818.135 852.193C819.005 853.063 819.494 854.244 819.494 855.475C819.494 856.705 819.005 857.886 818.135 858.756C817.265 859.626 816.084 860.115 814.853 860.115Z" fill="white"/>
<path d="M1224.03 265.684C1220.67 265.684 1217.38 264.687 1214.59 262.82C1211.8 260.954 1209.62 258.301 1208.33 255.196C1207.05 252.092 1206.71 248.676 1207.37 245.381C1208.02 242.085 1209.64 239.058 1212.01 236.682C1214.39 234.306 1217.42 232.688 1220.71 232.033C1224.01 231.377 1227.42 231.714 1230.53 233C1233.63 234.286 1236.29 236.463 1238.15 239.257C1240.02 242.05 1241.02 245.335 1241.02 248.695C1241.01 253.197 1239.21 257.512 1236.03 260.696C1232.84 263.879 1228.53 265.673 1224.03 265.684ZM1224.03 240.822C1222.5 240.822 1221 241.277 1219.72 242.128C1218.45 242.98 1217.46 244.19 1216.87 245.606C1216.28 247.021 1216.13 248.579 1216.43 250.082C1216.73 251.585 1217.46 252.966 1218.55 254.05C1219.63 255.133 1221.01 255.871 1222.52 256.17C1224.02 256.469 1225.58 256.316 1226.99 255.729C1228.41 255.143 1229.62 254.15 1230.47 252.876C1231.32 251.601 1231.78 250.103 1231.78 248.571C1231.74 246.537 1230.91 244.598 1229.46 243.172C1228.01 241.746 1226.06 240.946 1224.03 240.947V240.822Z" fill="white"/>
<path d="M862.628 49.4324C858.047 49.4324 853.569 48.074 849.76 45.5288C845.951 42.9837 842.982 39.3663 841.229 35.1339C839.476 30.9015 839.017 26.2444 839.911 21.7513C840.805 17.2582 843.011 13.1311 846.25 9.89178C849.489 6.65246 853.617 4.44646 858.11 3.55274C862.603 2.65901 867.26 3.11769 871.492 4.8708C875.725 6.6239 879.342 9.5927 881.887 13.4017C884.432 17.2108 885.791 21.689 885.791 26.27C885.791 32.4131 883.35 38.3045 879.007 42.6483C874.663 46.9921 868.771 49.4324 862.628 49.4324ZM862.628 12.3892C859.873 12.3892 857.18 13.2068 854.889 14.7384C852.599 16.2701 850.814 18.4469 849.762 20.9933C848.709 23.5396 848.436 26.3411 848.977 29.0429C849.517 31.7446 850.847 34.2253 852.799 36.1707C854.75 38.1161 857.234 39.4388 859.938 39.9713C862.641 40.5038 865.442 40.2221 867.985 39.162C870.528 38.1019 872.7 36.3111 874.225 34.0161C875.749 31.7212 876.559 29.0254 876.551 26.27C876.551 24.4437 876.19 22.6353 875.49 20.9485C874.79 19.2617 873.764 17.7296 872.47 16.4401C871.177 15.1506 869.642 14.129 867.953 13.4339C866.264 12.7387 864.455 12.3838 862.628 12.3892Z" fill="white"/>
<path d="M461.078 809.315C456.497 809.315 452.019 807.957 448.21 805.412C444.401 802.867 441.432 799.249 439.679 795.017C437.926 790.785 437.467 786.127 438.361 781.634C439.255 777.141 441.461 773.014 444.7 769.775C447.939 766.535 452.067 764.33 456.56 763.436C461.053 762.542 465.71 763.001 469.942 764.754C474.175 766.507 477.792 769.476 480.337 773.285C482.882 777.094 484.241 781.572 484.241 786.153C484.23 792.293 481.786 798.178 477.445 802.519C473.103 806.861 467.218 809.304 461.078 809.315ZM461.078 772.231C458.325 772.231 455.633 773.047 453.344 774.577C451.054 776.107 449.27 778.281 448.216 780.825C447.162 783.369 446.886 786.169 447.424 788.869C447.961 791.57 449.287 794.051 451.234 795.998C453.181 797.945 455.662 799.271 458.362 799.808C461.063 800.345 463.862 800.069 466.406 799.016C468.95 797.962 471.125 796.177 472.654 793.888C474.184 791.598 475.001 788.907 475.001 786.153C475.001 784.325 474.641 782.514 473.941 780.825C473.241 779.136 472.216 777.601 470.923 776.308C469.63 775.016 468.095 773.99 466.406 773.291C464.717 772.591 462.907 772.231 461.078 772.231Z" fill="white"/>
</g>
<path d="M149.111 1125.92C213.942 1125.92 266.498 1105.18 266.498 1079.6C266.498 1054.01 213.942 1033.27 149.111 1033.27C84.2808 1033.27 31.7251 1054.01 31.7251 1079.6C31.7251 1105.18 84.2808 1125.92 149.111 1125.92Z" fill="#0EA362"/>
<path opacity="0.5" d="M149.111 1125.92C213.942 1125.92 266.498 1105.18 266.498 1079.6C266.498 1054.01 213.942 1033.27 149.111 1033.27C84.2808 1033.27 31.7251 1054.01 31.7251 1079.6C31.7251 1105.18 84.2808 1125.92 149.111 1125.92Z" fill="white"/>
<path d="M65.1219 330.571C59.6382 333.927 55.0355 338.544 51.6969 344.038C47.2219 352.325 21.0761 427.613 12.8719 444.767C4.66774 461.921 0.93856 467.888 11.3803 473.772C21.822 479.656 35.2885 470.789 44.2385 454.38C53.1886 437.972 69.597 392.434 72.5803 381.993C75.5637 371.551 86.0054 332.063 65.1219 330.571Z" fill="#0EA362" stroke="#263238" stroke-linecap="round" stroke-linejoin="round"/>
<path d="M226.679 1007.83L232.852 1052.04L228.709 1054.07L216.403 1030.46L226.679 1007.83Z" fill="#263238" stroke="#263238" stroke-linecap="round" stroke-linejoin="round"/>
<path d="M99.2231 740.657C99.2231 740.657 112.607 804.343 125.949 845.447C139.291 886.551 182.467 982.184 185.574 998.758C188.682 1015.33 184.539 1015.33 184.539 1028.55C184.539 1041.77 166.058 1056.31 165.022 1063.48C163.987 1070.65 178.365 1071.77 191.748 1067.62C205.132 1063.48 214.331 1052.21 214.331 1042.76C214.331 1033.31 226.761 1017.07 226.761 1007.83C226.761 998.592 211.347 997.556 210.187 980.071C209.027 962.585 202.977 899.935 192.701 862.933C182.425 825.931 171.984 806.415 163.945 796.139C155.907 785.863 145.465 762.203 147.371 753.999C149.277 745.795 99.2231 740.657 99.2231 740.657Z" fill="white" stroke="#263238" stroke-linecap="round" stroke-linejoin="round"/>
<path d="M214.331 1042.76C214.331 1033.52 226.761 1017.07 226.761 1007.83C226.761 1003.94 224.027 1001.49 220.753 998.675C216.195 1010.9 206.914 1032.07 192.826 1043.8C184.083 1051.13 178.323 1051.01 174.677 1048.89C170.119 1054.74 165.603 1059.88 165.106 1063.31C164.07 1070.52 178.448 1071.6 191.831 1067.46C205.215 1063.31 214.331 1052.04 214.331 1042.76Z" fill="#263238" stroke="#263238" stroke-linecap="round" stroke-linejoin="round"/>
<path d="M122.883 755.035C122.883 755.035 118.739 788.929 118.739 810.517C118.739 832.105 106.309 974.435 102.165 1001.66C98.3116 1028.09 90.8533 1039.7 86.7512 1054.07C82.6491 1068.45 78.4641 1083.91 71.3372 1088.01C64.2103 1092.11 71.3372 1096.3 83.7678 1095.18C96.1984 1094.06 108.629 1088.01 109.458 1076.7C110.286 1065.39 120.272 1055.44 126.943 1051.01C139.374 1042.72 123.877 1018.11 141.322 964.657C149.028 941.204 168.047 910.211 172.149 874.245C176.252 838.279 169.083 805.379 169.083 797.175C169.083 788.971 176.293 758.101 176.293 758.101L122.883 755.035Z" fill="white" stroke="#263238" stroke-linecap="round" stroke-linejoin="round"/>
<path d="M130.134 1052.75C143.476 1047.65 133.78 1036.17 132.662 1023.74C121.93 1034.14 107.593 1061.04 99.2232 1069.32C96.8504 1071.62 93.8758 1073.2 90.6427 1073.89C87.4096 1074.57 84.0496 1074.32 80.9502 1073.18C78.3812 1080.05 75.3979 1085.61 71.503 1087.84C64.2932 1091.99 71.503 1096.13 83.9336 1095.01C96.3642 1093.89 108.795 1087.84 109.624 1076.53C110.452 1065.22 122.634 1055.61 130.134 1052.75Z" fill="#263238" stroke="#263238" stroke-linecap="round" stroke-linejoin="round"/>
<path d="M132.123 1042.76L135.313 1088.01H127.026L119.817 1057.18C119.817 1057.18 127.026 1041.77 132.123 1042.76Z" fill="#263238" stroke="#263238" stroke-linecap="round" stroke-linejoin="round"/>
<path d="M113.601 323.113L82.2762 335.046C82.2762 335.046 65.122 376.109 59.1553 405.942C53.1886 435.776 61.3928 466.396 67.4424 485.042C73.492 503.688 80.8675 611.172 84.0165 652.193C87.1656 693.214 92.718 752.383 92.718 752.383C92.718 752.383 106.143 762.866 133.035 768.087C159.926 773.308 197.964 765.104 197.964 765.104C197.964 765.104 220.339 700.175 224.814 662.096C229.289 624.017 191.956 562.112 180.022 535.262C168.089 508.412 163.448 465.112 165.851 452.391C168.255 439.671 196.431 343.458 186.569 338.941C176.707 334.425 141.985 321.455 113.601 323.113Z" fill="#263238" stroke="#263238" stroke-linecap="round" stroke-linejoin="round"/>
<path d="M113.601 297.009C113.601 297.009 110.618 317.726 108.38 326.842C106.143 335.958 88.9886 367.159 95.7012 380.708C102.414 394.257 124.706 394.133 134.526 371.012C140.563 355.052 143.38 338.054 142.813 321L146.542 298.625C146.542 298.625 122.593 306.704 113.601 297.009Z" fill="white" stroke="#263238" stroke-linecap="round" stroke-linejoin="round"/>
<path d="M204.676 264.192C202.914 261.205 200.2 258.896 196.97 257.634C193.74 256.372 190.18 256.23 186.859 257.231C200.367 246.085 208.903 228.019 195.685 202.246C179.111 170.133 140.493 177.633 140.493 177.633C133.218 177.304 125.988 178.929 119.554 182.339C113.12 185.749 107.717 190.82 103.905 197.025C90.4804 218.654 97.9388 248.488 109.126 256.733C119.485 264.275 151.971 272.437 171.611 266.056C160.133 277.948 152.716 295.061 163.324 309.978C165.417 313.271 168.256 316.025 171.61 318.017C174.965 320.01 178.742 321.184 182.635 321.447C186.528 321.709 190.428 321.051 194.019 319.527C197.611 318.002 200.793 315.654 203.309 312.671C216.61 297.009 212.881 278.363 204.676 264.192Z" fill="#263238" stroke="#263238" stroke-linecap="round" stroke-linejoin="round"/>
<path d="M111.778 258.391C111.778 258.391 102.787 243.557 100.508 253.791C98.2288 264.026 102.538 271.733 105.521 273.639C107.264 274.761 109.363 275.19 111.405 274.841" fill="white"/>
<path d="M111.778 258.391C111.778 258.391 102.787 243.557 100.508 253.791C98.2288 264.026 102.538 271.733 105.521 273.639C107.264 274.761 109.363 275.19 111.405 274.841" stroke="#263238" stroke-linecap="round" stroke-linejoin="round"/>
<path d="M111.322 231.997C111.322 231.997 97.8558 287.23 116.543 306.58C135.23 325.931 156.072 294.647 173.227 270.78L178.448 255.118C174.22 247.343 169.487 239.854 164.277 232.701C158.894 225.687 154.618 217.889 151.597 209.58C151.597 209.58 132.206 234.441 111.322 231.997Z" fill="white" stroke="#263238" stroke-linecap="round" stroke-linejoin="round"/>
<path d="M168.71 271.111C168.71 271.111 184.249 263.363 180.685 273.225C177.122 283.086 169.415 287.354 165.893 287.354C163.807 287.36 161.79 286.609 160.216 285.241" fill="white"/>
<path d="M168.71 271.111C168.71 271.111 184.249 263.363 180.685 273.225C177.122 283.086 169.415 287.354 165.893 287.354C163.807 287.36 161.79 286.609 160.216 285.241" stroke="#263238" stroke-linecap="round" stroke-linejoin="round"/>
<path d="M142.606 252.051C145.494 249.761 149.04 248.456 152.725 248.329C156.409 248.203 160.036 249.26 163.075 251.347" stroke="#263238" stroke-width="0.5" stroke-miterlimit="10"/>
<path d="M131.999 244.303C131.999 244.303 124.25 236.016 115.797 239.372" stroke="#263238" stroke-width="0.5" stroke-miterlimit="10"/>
<path d="M129.181 279.564L134.112 281.719" stroke="#263238" stroke-width="0.5" stroke-miterlimit="10"/>
<path d="M121.433 287.354C124.152 289.018 127.176 290.124 130.327 290.608C133.479 291.091 136.695 290.943 139.788 290.172" stroke="#263238" stroke-width="0.5" stroke-miterlimit="10"/>
<path d="M132.496 260.255C131.765 262.655 130.324 264.776 128.365 266.342C126.405 267.908 124.018 268.844 121.517 269.028C119.015 269.211 116.517 268.634 114.349 267.372C112.182 266.109 110.447 264.221 109.373 261.954C108.299 259.688 107.935 257.149 108.33 254.673C108.725 252.196 109.86 249.896 111.586 248.076C113.312 246.256 115.548 245.001 118.001 244.476C120.453 243.95 123.007 244.179 125.328 245.132C128.281 246.19 130.694 248.377 132.038 251.212C133.382 254.047 133.547 257.299 132.496 260.255Z" stroke="#263238" stroke-width="0.5" stroke-miterlimit="10"/>
<path d="M161.418 268.045C160.683 270.444 159.239 272.565 157.277 274.128C155.314 275.692 152.924 276.624 150.421 276.804C147.918 276.983 145.42 276.401 143.254 275.134C141.089 273.867 139.357 271.974 138.288 269.704C137.218 267.434 136.86 264.894 137.262 262.417C137.663 259.94 138.804 257.642 140.536 255.826C142.268 254.011 144.508 252.761 146.963 252.243C149.418 251.724 151.973 251.961 154.291 252.921C157.237 253.988 159.641 256.178 160.976 259.012C162.312 261.846 162.47 265.094 161.418 268.045Z" stroke="#263238" stroke-width="0.5" stroke-miterlimit="10"/>
<path d="M132.703 256.982L138.587 258.681" stroke="#263238" stroke-width="0.5" stroke-miterlimit="10"/>
<path d="M161.666 265.476L173.641 266.885" stroke="#263238" stroke-width="0.5" stroke-miterlimit="10"/>
<path d="M108.381 326.842C96.5458 351.111 87.5101 376.647 81.4476 402.959C73.9892 440.251 74.735 509.696 76.2267 536.546C77.7184 563.397 76.2267 640.135 76.2267 640.135L41.9182 625.218C41.9182 625.218 43.4099 576.697 49.3766 545.372C54.2682 516.291 56.2669 486.797 55.3433 457.322C54.5974 440.168 47.0562 415.514 51.6141 392.393C56.172 369.272 62.8016 332.684 65.0392 330.24C67.2767 327.795 108.381 326.842 108.381 326.842Z" fill="#0EA362" stroke="#263238" stroke-linecap="round" stroke-linejoin="round"/>
<path d="M142.73 325.35C142.73 325.35 129.305 378.346 121.101 426.867C112.897 475.388 133.034 638.187 133.034 638.187C147.551 637.371 162 635.627 176.293 632.966C209.151 627.746 224.814 618.05 224.814 618.05C224.814 618.05 205.422 568.783 192.701 543.466C179.981 518.149 170.326 497.887 170.326 497.887C167.885 478.489 169.151 458.804 174.056 439.878C182.343 409.257 204.676 346.607 195.685 339.107C186.693 331.607 142.73 325.35 142.73 325.35Z" fill="#0EA362" stroke="#263238" stroke-linecap="round" stroke-linejoin="round"/>
<path d="M174.056 363.429C174.056 363.429 165.769 400.721 162.868 417.875C159.968 435.03 153.918 460.43 153.918 460.43C153.918 460.43 101.668 462.667 88.9888 461.921C76.3096 461.175 62.8845 461.175 62.8845 461.175L67.3595 485.042C67.3595 485.042 109.126 499.959 135.272 504.434C161.418 508.909 175.547 515.663 180.022 507.459C184.497 499.254 199.455 414.892 204.883 382.821C210.312 350.75 213.834 343.292 191.417 337.242" stroke="#263238" stroke-linecap="round" stroke-linejoin="round"/>
<path d="M122.593 441.038C122.593 441.038 150.935 437.309 153.172 436.563C155.41 435.817 184.497 448.496 184.497 448.496C184.497 448.496 183.006 452.226 180.768 452.971C178.531 453.717 160.63 444.684 160.63 444.684L157.647 445.43L180.022 460.347C180.022 460.347 183.005 464.076 180.022 465.568C177.039 467.059 153.172 451.397 153.172 451.397L173.89 471.534C172.669 472.37 171.225 472.817 169.746 472.817C168.267 472.817 166.823 472.37 165.603 471.534C161.873 468.551 153.669 460.347 153.669 460.347C153.669 460.347 162.619 470.789 158.144 471.534C153.669 472.28 145.465 459.601 145.465 459.601L132.04 457.363L117.869 455.872L122.593 441.038Z" fill="white" stroke="#263238" stroke-linecap="round" stroke-linejoin="round"/>
<path d="M79.3342 441.618C79.3342 441.618 60.5226 420.072 59.3624 418.041C58.2022 416.011 27.9544 406.274 27.9544 406.274C27.281 408.163 27.281 410.227 27.9544 412.116C29.156 414.146 48.672 419.284 48.672 419.284L50.4124 421.812L23.728 418.207C23.728 418.207 19.0458 419.036 20.2888 422.102C21.5319 425.168 49.8323 429.229 49.8323 429.229L20.8275 430.555C21.1966 431.973 21.982 433.248 23.0824 434.215C24.1828 435.183 25.5478 435.798 27.0014 435.983C31.7664 436.19 43.3269 435.486 43.3269 435.486C43.3269 435.486 29.6947 437.392 32.5951 440.914C35.4956 444.436 49.998 440.334 49.998 440.334L61.5584 447.543L73.1604 455.83L79.3342 441.618Z" fill="white" stroke="#263238" stroke-linecap="round" stroke-linejoin="round"/>
<path d="M26.2971 438.055C26.2971 438.055 99.4305 440.292 109.168 440.292C113.67 440.161 118.175 440.41 122.634 441.038L117.413 477.584C99.0648 479.45 80.6196 480.197 62.1801 479.822C22.6093 479.822 4.70925 482.059 6.20092 467.142C7.69259 452.226 26.2971 438.055 26.2971 438.055Z" fill="#0EA362" stroke="#263238" stroke-linecap="round" stroke-linejoin="round"/>
<path d="M359.147 1156.79C423.978 1156.79 476.534 1136.05 476.534 1110.47C476.534 1084.88 423.978 1064.14 359.147 1064.14C294.316 1064.14 241.761 1084.88 241.761 1110.47C241.761 1136.05 294.316 1156.79 359.147 1156.79Z" fill="#0EA362"/>
<path opacity="0.5" d="M359.147 1156.79C423.978 1156.79 476.534 1136.05 476.534 1110.47C476.534 1084.88 423.978 1064.14 359.147 1064.14C294.316 1064.14 241.761 1084.88 241.761 1110.47C241.761 1136.05 294.316 1156.79 359.147 1156.79Z" fill="white"/>
<path d="M331.924 164.001C331.924 164.001 307.56 165.534 291.898 195.078C276.235 224.621 283.611 277.948 289.246 294.523C294.881 311.097 320.612 389.617 335.405 444.519C350.197 499.42 376.84 548.314 424.532 546.574C472.224 544.834 536.408 522.666 515.69 442.281C494.972 361.897 449.974 328.831 441.106 308.321C432.239 287.81 430.333 266.595 426.397 221.969C422.461 177.343 391.923 152.689 361.343 143.781C330.764 134.872 331.924 164.001 331.924 164.001Z" fill="#263238" stroke="#263238" stroke-linecap="round" stroke-linejoin="round"/>
<path d="M421.673 292.906C429.463 300.116 432.529 300.323 432.529 300.323" stroke="white" stroke-width="0.5" stroke-linecap="round" stroke-linejoin="round"/>
<path d="M352.766 169.595C352.766 169.595 353.429 201.624 387.406 250.643C395.925 263.27 405.297 275.301 415.458 286.65" stroke="white" stroke-width="0.5" stroke-linecap="round" stroke-linejoin="round"/>
<path d="M360.597 191.141C360.597 191.141 391.342 263.032 426.645 283.294" stroke="white" stroke-width="0.5" stroke-linecap="round" stroke-linejoin="round"/>
<path d="M452.128 373.498C452.128 373.498 502.431 431.508 503.094 472.943C503.757 514.379 477.611 531.781 475 531.781" stroke="white" stroke-width="0.5" stroke-linecap="round" stroke-linejoin="round"/>
<path d="M477.404 382.117C491.368 409.133 506.823 446.342 503.094 472.86" stroke="white" stroke-width="0.5" stroke-linecap="round" stroke-linejoin="round"/>
<path d="M457.349 347.353C457.349 347.353 462.321 354.894 469.034 366.661" stroke="white" stroke-width="0.5" stroke-linecap="round" stroke-linejoin="round"/>
<path d="M306.359 227.77C306.359 227.77 287.174 266.844 289.246 294.357" stroke="white" stroke-width="0.5" stroke-linecap="round" stroke-linejoin="round"/>
<path d="M297.201 250.643C297.201 250.643 296.58 274.799 303.748 287.934" stroke="white" stroke-width="0.5" stroke-linecap="round" stroke-linejoin="round"/>
<path d="M470.36 620.495C470.36 620.495 461.078 641.212 461.078 647.137C461.078 653.063 462.238 678.421 465.719 673.78C469.199 669.14 465.719 651.778 470.36 650.618C475 649.458 478.647 652.938 473.84 666.819C469.034 680.7 465.553 694.622 475 687.537C484.448 680.452 484.241 671.294 487.721 650.452C489.838 638.139 489.443 625.525 486.561 613.368L470.36 620.495Z" fill="white" stroke="#263238" stroke-linecap="round" stroke-linejoin="round"/>
<path d="M440.236 314.702L458.758 484.96L492.362 614.694L463.357 627.456C463.357 627.456 425.154 520.884 415.872 501.202C406.591 481.52 403.11 465.278 403.11 457.156C403.11 449.035 440.236 314.702 440.236 314.702Z" fill="#0EA362" stroke="#263238" stroke-linecap="round" stroke-linejoin="round"/>
<path d="M272.299 789.675C272.299 789.675 276.898 812.838 278.058 824.398C279.218 835.958 275.738 877.684 281.539 917.089C287.34 956.494 317.629 1072.26 317.629 1072.26C317.629 1072.26 287.505 1098.87 287.505 1111.63C287.505 1124.39 296.787 1122.07 311.828 1112.79C326.869 1103.51 341.951 1082.66 343.112 1068.78C344.272 1054.9 331.51 973.772 336.15 937.889C340.791 902.006 333.83 839.439 333.83 813.956V788.474L272.299 789.675Z" fill="white" stroke="#263238" stroke-linecap="round" stroke-linejoin="round"/>
<path d="M305.861 1098.87C301.718 1096.88 304.08 1088.92 306.649 1082.66C298.03 1091.53 287.34 1104.05 287.34 1111.67C287.34 1124.39 296.621 1122.11 311.662 1112.83C324.067 1104.54 333.9 1092.94 340.046 1079.35C327.076 1093.48 311.165 1101.52 305.861 1098.87Z" fill="#263238" stroke="#263238" stroke-linecap="round" stroke-linejoin="round"/>
<path d="M329.024 797.714C329.024 797.714 327.863 839.439 332.504 856.801C337.145 874.162 366.108 963.372 370.749 990.015C375.691 1017.96 378.778 1046.19 379.989 1074.54C379.989 1093.11 397.392 1134.79 408.994 1137.11C420.596 1139.43 427.557 1139.43 424.076 1120.91C420.596 1102.39 398.594 1073.38 398.594 1073.38C398.594 1073.38 410.113 955.417 405.472 918.125C400.831 880.833 388.069 844.038 388.069 840.599C388.069 837.16 393.87 794.233 393.87 794.233L329.024 797.714Z" fill="white" stroke="#263238" stroke-linecap="round" stroke-linejoin="round"/>
<path d="M415.458 1099.61C414.049 1105.45 411.314 1110.47 406.632 1110.47C395.072 1110.47 383.47 1090.79 383.47 1090.79L382.89 1091.78C388.318 1111.46 400.251 1135.37 408.952 1137.11C420.554 1139.43 427.516 1139.43 424.035 1120.91C422.227 1113.43 419.338 1106.26 415.458 1099.61Z" fill="#263238" stroke="#263238" stroke-linecap="round" stroke-linejoin="round"/>
<path d="M323.264 293.859C323.264 293.859 241.015 311.221 239.855 315.862C238.695 320.502 266.498 465.278 266.498 471.079C266.498 476.879 234.054 552.167 231.734 598.492C229.413 644.817 246.816 798.874 246.816 798.874C246.816 798.874 281.539 813.956 315.143 813.956C348.747 813.956 405.472 805.669 405.472 805.669C405.472 805.669 433.275 716.459 435.595 641.171C437.916 565.883 404.312 472.073 404.312 472.073C404.312 472.073 440.236 320.337 440.236 314.619C440.236 308.901 363.788 289.219 323.264 293.859Z" fill="#263238" stroke="#263238" stroke-linecap="round" stroke-linejoin="round"/>
<path d="M404.312 472.239C404.312 472.239 440.236 320.503 440.236 314.785C440.236 309.067 363.788 289.302 323.264 294.067C323.264 294.067 241.015 311.428 239.855 316.069C238.695 320.71 266.498 465.485 266.498 471.286C266.498 475.43 249.924 514.835 239.73 553.908C254.913 561.925 270.863 568.393 287.34 573.217C323.264 583.659 337.062 568.576 337.062 568.576C337.062 568.576 333.582 576.863 354.424 579.018C372.904 581.048 404.146 580.344 428.676 565.676C422.835 533.98 414.692 502.751 404.312 472.239Z" fill="#0EA362" stroke="#263238" stroke-linecap="round" stroke-linejoin="round"/>
<path d="M339.051 532.444C337.394 543.798 336.151 551.339 336.151 551.339" stroke="#263238" stroke-linecap="round" stroke-linejoin="round"/>
<path d="M345.432 379.465C348.306 406.99 349.054 434.696 347.67 462.336C346.551 476.258 344.562 492.791 342.531 507.915" stroke="#263238" stroke-linecap="round" stroke-linejoin="round"/>
<path d="M333.002 284.91C333.002 284.91 310.668 292.368 300.723 301.069C290.779 309.771 274.661 324.646 274.661 324.646L315.64 327.132L345.432 379.465L366.523 328.582H391.384C398.312 328.657 405.125 330.36 411.273 333.555C411.273 333.555 382.724 295.061 366.564 287.603C355.952 283.142 344.19 282.198 333.002 284.91Z" fill="white" stroke="#263238" stroke-linecap="round" stroke-linejoin="round"/>
<path d="M319.369 270.034C319.369 270.034 323.098 322.16 333.001 335.834C342.904 349.507 356.578 313.5 356.578 297.34C356.578 281.18 357.821 258.847 357.821 258.847L319.369 270.034Z" fill="white" stroke="#263238" stroke-linecap="round" stroke-linejoin="round"/>
<path d="M239.855 315.862C239.855 315.862 190.132 481.603 190.132 493.081C190.132 504.558 204.013 517.403 217.935 509.282C231.858 501.161 259.619 423.594 259.619 423.594L239.855 315.862Z" fill="#0EA362" stroke="#263238" stroke-linecap="round" stroke-linejoin="round"/>
<path d="M174.967 421.273L230.573 529.005L307.022 537.085L261.857 406.232L174.967 421.273Z" fill="white" stroke="#263238" stroke-linecap="round" stroke-linejoin="round"/>
<path d="M242.175 489.6L262.893 451.397L287.215 443.11L290.696 447.751L276.774 456.038C276.774 456.038 294.176 457.156 298.817 457.156C303.458 457.156 302.256 464.118 302.256 464.118L299.977 468.758C299.977 468.758 302.256 483.799 302.256 488.44C302.256 493.081 251.291 508.122 251.291 508.122L242.175 489.6Z" fill="white" stroke="#263238" stroke-linecap="round" stroke-linejoin="round"/>
<path d="M244.247 478.164L259.951 520.594C259.951 520.594 230.449 534.392 209.234 534.392C188.019 534.392 176.997 506.754 185.285 492.956C193.572 479.158 244.247 478.164 244.247 478.164Z" fill="#0EA362" stroke="#263238" stroke-linecap="round" stroke-linejoin="round"/>
<path d="M340.336 176.846L301.676 223.502C301.676 223.502 300.351 259.178 318.002 286.608C342.242 324.397 373.815 249.317 373.815 249.317L340.336 176.846Z" fill="white" stroke="#263238" stroke-linecap="round" stroke-linejoin="round"/>
<path d="M324.59 234.856C325.004 238.212 323.969 241.112 322.311 241.32C320.654 241.527 318.955 238.958 318.541 235.643C318.126 232.328 319.121 229.386 320.82 229.179C322.518 228.972 324.176 231.541 324.59 234.856Z" fill="#263238"/>
<path d="M346.634 236.637C346.634 239.994 345.225 242.728 343.526 242.728C341.827 242.728 340.543 239.952 340.543 236.596C340.543 233.24 341.952 230.505 343.609 230.505C345.266 230.505 346.634 233.281 346.634 236.637Z" fill="#263238"/>
<path d="M323.223 266.181C329.384 268.139 336.026 267.964 342.076 265.684" stroke="#263238" stroke-width="0.5" stroke-linecap="round" stroke-linejoin="round"/>
<path d="M336.772 222.011C338.984 220.294 341.737 219.426 344.534 219.562C347.331 219.699 349.986 220.832 352.02 222.756" stroke="#263238" stroke-width="0.5" stroke-linecap="round" stroke-linejoin="round"/>
<path d="M325.336 223.71C324.62 222.692 323.685 221.849 322.598 221.242C321.512 220.635 320.303 220.281 319.062 220.206C317.82 220.13 316.577 220.335 315.425 220.805C314.273 221.275 313.242 221.999 312.408 222.922" stroke="#263238" stroke-width="0.5" stroke-linecap="round" stroke-linejoin="round"/>
<path d="M329.148 231.375C330.09 234.923 329.828 238.683 328.402 242.065C326.123 248.985 323.057 252.797 325.336 254.496C327.482 255.524 329.835 256.049 332.214 256.029" stroke="#263238" stroke-width="0.5" stroke-linecap="round" stroke-linejoin="round"/>
<path d="M1072.66 1119.71C1161.36 1119.71 1233.27 1098.97 1233.27 1073.38C1233.27 1047.8 1161.36 1027.06 1072.66 1027.06C983.965 1027.06 912.061 1047.8 912.061 1073.38C912.061 1098.97 983.965 1119.71 1072.66 1119.71Z" fill="#0EA362"/>
<path opacity="0.5" d="M1072.66 1119.71C1161.36 1119.71 1233.27 1098.97 1233.27 1073.38C1233.27 1047.8 1161.36 1027.06 1072.66 1027.06C983.965 1027.06 912.061 1047.8 912.061 1073.38C912.061 1098.97 983.965 1119.71 1072.66 1119.71Z" fill="white"/>
<path d="M1053.44 241.361C1053.44 241.361 1045.48 231.127 1041.67 235.519C1037.86 239.911 1049.96 267.093 1055.14 264.772C1060.32 262.452 1053.44 241.361 1053.44 241.361Z" fill="white" stroke="#263238" stroke-linecap="round" stroke-linejoin="round"/>
<path d="M1117.04 242.728C1117.04 242.728 1124.58 232.784 1128.56 237.342C1132.54 241.9 1121.72 268.625 1116.34 266.098C1110.95 263.57 1117.04 242.728 1117.04 242.728Z" fill="white" stroke="#263238" stroke-linecap="round" stroke-linejoin="round"/>
<path d="M1062.72 307.823C1062.72 307.823 1049.17 313.707 1047.64 324.066C1046.1 334.425 1051.78 556.104 1051.78 556.104L1144.72 561.118L1140.58 321.207C1129.45 313.343 1116.71 308.05 1103.28 305.71C1089.75 303.828 1075.98 304.545 1062.72 307.823Z" fill="white" stroke="#263238" stroke-linecap="round" stroke-linejoin="round"/>
<path d="M1015.77 547.361L1158.1 552.458C1158.1 552.458 1170.99 658.077 1177.12 727.149C1183.26 796.222 1192.45 860.074 1191.5 908.098C1190.55 956.121 1191.71 1028.01 1191.96 1030.54C1192.21 1033.07 1207.04 1043.55 1216.45 1051.63C1225.85 1059.71 1245.74 1067.38 1239.15 1071.97C1232.56 1076.57 1224.03 1077.82 1208.99 1075.12C1193.95 1072.43 1176.5 1062.15 1171.94 1059.79L1167.34 1057.43L1167.1 1064.31L1149.94 1057.43C1149.94 1057.43 1147.04 1054.16 1144.72 1037.96C1142.4 1021.75 1138.8 971.452 1136.93 950.113C1135.07 928.774 1115.3 775.546 1107.93 739.953C1100.55 704.36 1085.34 642.497 1085.34 642.497C1085.34 642.497 1027.33 843.21 1020.12 868.403C1012.91 893.595 982.252 1029.54 981.755 1033.85C981.258 1038.16 973.468 1047.98 973.675 1050.43C973.882 1052.87 965.968 1061.95 959.711 1069.94C953.455 1077.94 927.143 1085.23 920.182 1085.57C913.221 1085.9 910.238 1071.48 924.077 1060.7C933.422 1053.12 942.292 1044.97 950.637 1036.3C950.637 1036.3 957.184 934.036 956.894 901.509C956.604 868.983 975.83 761.831 979.393 753.088C982.957 744.345 1002.76 624.307 1002.76 624.307L1015.77 547.361Z" fill="#263238" stroke="#263238" stroke-linecap="round" stroke-linejoin="round"/>
<path d="M1061.85 333.099C1061.85 333.099 1076.93 425.168 1078.67 434.906C1080.41 444.643 1057.04 637.235 1057.04 637.235C1045.02 638.981 1032.75 637.67 1021.37 633.423C1000.65 626.337 981.921 618.589 981.921 618.589L1021.45 496.603L985.733 333.265C995.113 327.937 1005.1 323.764 1015.48 320.834C1030.8 316.405 1046.42 313.122 1062.22 311.014L1061.85 333.099Z" fill="#0EA362" stroke="#263238" stroke-linecap="round" stroke-linejoin="round"/>
<path d="M1076.93 351.455L1087.08 365.957L1073.7 540.525L1094.71 564.474L1104.98 541.312L1095.04 368.526L1105.48 349.673L1090.65 327.464L1076.93 351.455Z" fill="#263238" stroke="#263238" stroke-linecap="round" stroke-linejoin="round"/>
<path d="M1116.01 308.362C1116.01 308.362 1106.02 382.324 1106.27 388.125C1106.52 393.926 1103.99 442.613 1104.2 447.171C1104.4 451.728 1124.91 637.11 1124.91 637.11C1137.95 639.524 1151.3 639.72 1164.4 637.69C1187.27 634.376 1211.64 619.417 1211.64 619.417L1165.65 497.597L1183.26 326.594C1183.26 326.594 1129.31 310.931 1116.01 308.362Z" fill="#0EA362" stroke="#263238" stroke-linecap="round" stroke-linejoin="round"/>
<path d="M1089.82 341.469L1070.84 359.701C1070.84 359.701 1058.41 317.561 1058.41 311.055C1058.19 307.334 1058.98 303.622 1060.69 300.311C1062.41 297 1064.98 294.213 1068.15 292.244C1075.23 288.349 1103.62 291.539 1110.37 294.771C1117.12 298.003 1122.35 313.542 1122.35 313.542L1107.18 362.891L1089.82 341.469Z" fill="white" stroke="#263238" stroke-linecap="round" stroke-linejoin="round"/>
<path d="M1066.08 277.99C1066.08 277.99 1068.36 301.318 1074.11 313.003C1079.87 324.688 1087.91 342.795 1089.82 341.469C1091.72 340.143 1107.14 315.53 1107.55 310.31C1107.97 305.089 1109.09 284.371 1109.09 284.371L1066.08 277.99Z" fill="white" stroke="#263238" stroke-linecap="round" stroke-linejoin="round"/>
<path d="M1067.32 200.257C1067.32 200.257 1054.43 207.923 1052.61 215.132C1050.79 222.342 1052.03 259.344 1059.78 275.421C1067.53 291.498 1081.95 304.716 1089.03 304.799C1096.12 304.881 1112.48 293.818 1114.76 277.493C1117.32 262.786 1118.53 247.876 1118.37 232.95C1117.54 222.011 1126.45 226.9 1112.9 212.564C1099.35 198.227 1075.23 193.255 1067.32 200.257Z" fill="white" stroke="#263238" stroke-linecap="round" stroke-linejoin="round"/>
<path d="M1077.18 251.264C1077.18 253.833 1076.1 255.946 1074.82 255.946C1073.53 255.946 1072.5 253.833 1072.5 251.264C1072.5 248.695 1073.53 246.623 1074.82 246.623C1076.1 246.623 1077.18 248.695 1077.18 251.264Z" fill="#263238"/>
<path d="M1099.27 251.264C1099.27 253.833 1098.23 255.946 1096.95 255.946C1095.66 255.946 1094.62 253.833 1094.62 251.264C1094.62 248.695 1095.66 246.623 1096.95 246.623C1098.23 246.623 1099.27 248.695 1099.27 251.264Z" fill="#263238"/>
<path d="M1066.7 243.723C1067.24 242.886 1067.96 242.171 1068.79 241.625C1069.63 241.078 1070.57 240.711 1071.56 240.548C1072.54 240.384 1073.55 240.427 1074.52 240.674C1075.49 240.921 1076.39 241.367 1077.18 241.983" stroke="#263238" stroke-width="0.5" stroke-linecap="round" stroke-linejoin="round"/>
<path d="M1091.72 242.728C1091.72 242.728 1096.37 235.146 1104.53 243.889" stroke="#263238" stroke-width="0.5" stroke-linecap="round" stroke-linejoin="round"/>
<path d="M1089.98 250.684L1091.14 271.07L1081.82 269.91" stroke="#263238" stroke-width="0.5" stroke-linecap="round" stroke-linejoin="round"/>
<path d="M1078.92 277.493C1085.66 279.905 1093.06 279.683 1099.64 276.871" stroke="#263238" stroke-width="0.5" stroke-linecap="round" stroke-linejoin="round"/>
<path d="M1058.12 199.553C1058.12 199.553 1045.44 195.036 1043.33 207.84C1041.21 220.643 1052.11 244.137 1052.11 244.137C1052.11 244.137 1053.85 238.295 1056.84 231.168C1059.82 224.041 1066.24 220.105 1063.8 209.746C1061.35 199.387 1058.12 199.553 1058.12 199.553Z" fill="#263238" stroke="#263238" stroke-linecap="round" stroke-linejoin="round"/>
<path d="M1060.4 207.301C1060.4 207.301 1066.78 217.701 1084.64 220.229C1102.5 222.757 1111.61 220.229 1113.64 223.42C1115.67 226.61 1115.88 244.8 1115.88 244.8C1115.88 244.8 1121.85 246.748 1122.22 239.621C1122.89 233.975 1125.45 228.721 1129.47 224.704C1131.38 222.757 1140.99 216.873 1130.43 200.672C1119.86 184.47 1106.52 179.332 1083.48 179.374C1060.44 179.415 1046.56 191.141 1060.4 207.301Z" fill="#263238" stroke="#263238" stroke-linecap="round" stroke-linejoin="round"/>
<path d="M1183.13 326.594C1183.13 326.594 1216.28 440.997 1218.39 452.972C1220.51 464.946 1207.04 471.825 1192.95 466.728C1178.86 461.632 1169.62 388.001 1169.62 388.001L1183.13 326.594Z" fill="#0EA362" stroke="#263238" stroke-linecap="round" stroke-linejoin="round"/>
<path d="M1204.35 428.193C1204.35 428.193 1151.02 418.87 1137.14 418.912C1123.26 418.953 1056.63 425.044 1056.63 425.044L1054.14 448.165C1054.14 448.165 1155.82 471.079 1175.88 473.606C1195.93 476.134 1215.86 475.222 1217.94 462.377C1220.01 449.532 1215.37 443.566 1215.37 443.566" fill="#0EA362"/>
<path d="M1204.35 428.193C1204.35 428.193 1151.02 418.87 1137.14 418.912C1123.26 418.953 1056.63 425.044 1056.63 425.044L1054.14 448.165C1054.14 448.165 1155.82 471.079 1175.88 473.606C1195.93 476.134 1215.86 475.222 1217.94 462.377C1220.01 449.532 1215.37 443.566 1215.37 443.566" stroke="#263238" stroke-linecap="round" stroke-linejoin="round"/>
<path d="M985.733 333.265C985.733 333.265 987.1 399.561 988.633 435.32C990.167 471.079 1000.15 484.214 1018.38 484.172C1036.62 484.131 1021.82 381.413 1021.82 381.413" fill="#0EA362"/>
<path d="M985.733 333.265C985.733 333.265 987.1 399.561 988.633 435.32C990.167 471.079 1000.15 484.214 1018.38 484.172C1036.62 484.131 1021.82 381.413 1021.82 381.413" stroke="#263238" stroke-linecap="round" stroke-linejoin="round"/>
<path d="M1056.63 425.044C1056.63 425.044 1043.33 418.249 1035.54 418.249C1027.75 418.249 1004.92 432.875 1005 435.444C1005.08 438.013 1017.43 441.411 1032.97 439.588C1041.32 438.513 1049.77 438.513 1058.12 439.588L1056.63 425.044Z" fill="white" stroke="#263238" stroke-linecap="round" stroke-linejoin="round"/>
<path d="M1146.34 407.765C1152.85 406.269 1159.5 405.395 1166.18 405.155C1174.84 405.155 1185.12 422.226 1185.12 422.226L1151.39 424.878L1146.34 407.765Z" fill="white" stroke="#263238" stroke-linecap="round" stroke-linejoin="round"/>
<path d="M1007.9 442.281L1139.09 404.326C1139.09 404.326 1141.57 401.757 1146.17 407.724C1149.26 412.917 1150.99 418.8 1151.23 424.837C1151.23 424.837 1073.78 460.927 1049.92 471.244C1026.05 481.562 1018.09 497.846 1005.29 482.473C992.487 467.101 1000.61 454.214 1000.61 454.214" fill="#0EA362"/>
<path d="M1007.9 442.281L1139.09 404.326C1139.09 404.326 1141.57 401.757 1146.17 407.724C1149.26 412.917 1150.99 418.8 1151.23 424.837C1151.23 424.837 1073.78 460.927 1049.92 471.244C1026.05 481.562 1018.09 497.846 1005.29 482.473C992.487 467.101 1000.61 454.214 1000.61 454.214" stroke="#263238" stroke-linecap="round" stroke-linejoin="round"/>
<path d="M905.887 1159.9C970.718 1159.9 1023.27 1139.16 1023.27 1113.58C1023.27 1087.99 970.718 1067.25 905.887 1067.25C841.056 1067.25 788.5 1087.99 788.5 1113.58C788.5 1139.16 841.056 1159.9 905.887 1159.9Z" fill="#0EA362"/>
<path opacity="0.5" d="M905.887 1159.9C970.718 1159.9 1023.27 1139.16 1023.27 1113.58C1023.27 1087.99 970.718 1067.25 905.887 1067.25C841.056 1067.25 788.5 1087.99 788.5 1113.58C788.5 1139.16 841.056 1159.9 905.887 1159.9Z" fill="white"/>
<path d="M951.797 216.541C960.879 206.933 966.757 194.743 968.62 181.653C970.484 161.681 947.446 151.115 931.867 151.736C922.141 152.316 912.809 155.778 905.058 161.681C905.058 161.681 868.719 159.858 841.496 180.575C814.273 201.293 817.795 262.866 819.66 285.904C820.591 303.575 820.175 321.292 818.417 338.9C837.663 346.608 857.743 352.045 878.249 355.101C910.03 359.452 953.04 351.994 957.391 350.958C961.742 349.922 944.96 345.944 942.433 321.663C939.905 297.382 946.162 269.289 948.689 256.195C951.217 243.101 946.825 217.577 946.825 217.577L951.797 216.541Z" fill="#263238" stroke="#263238" stroke-linecap="round" stroke-linejoin="round"/>
<path d="M948.482 161.722C948.482 161.722 942.143 183.6 938.621 192.095" stroke="white" stroke-width="0.5" stroke-linecap="round" stroke-linejoin="round"/>
<path d="M922.585 170.921C922.585 170.921 928.221 189.235 908.456 221.016C888.691 252.797 848.499 286.65 847.09 309.937" stroke="white" stroke-width="0.5" stroke-linecap="round" stroke-linejoin="round"/>
<path d="M856.04 256.982C856.04 256.982 831.179 298.625 841.952 324.025" stroke="white" stroke-width="0.5" stroke-linecap="round" stroke-linejoin="round"/>
<path d="M917.53 328.707C917.53 328.707 951.176 346.151 956.148 348.016C961.12 349.88 965.512 354.272 969.241 365.46C972.971 376.647 993.564 457.695 995.428 466.438C997.293 475.181 979.849 483.882 968.62 484.504C957.391 485.125 943.054 475.181 943.054 467.681C943.054 460.181 917.53 328.707 917.53 328.707Z" fill="#0EA362" stroke="#263238" stroke-linecap="round" stroke-linejoin="round"/>
<path d="M931.245 460.844C938.101 451.801 945.592 443.258 953.662 435.279C961.12 429.063 976.7 424.05 986.064 429.063C995.429 434.077 993.564 442.737 989.793 444.021C986.023 445.306 976.7 445.264 970.484 448.994C964.269 452.723 954.283 459.601 947.446 461.424C942.068 462.41 936.539 462.213 931.245 460.844Z" fill="white" stroke="#263238" stroke-linecap="round" stroke-linejoin="round"/>
<path d="M829.977 1074.05L829.397 1107.61H833.334L838.347 1084.65L829.977 1074.05Z" fill="#263238" stroke="#263238" stroke-linecap="round" stroke-linejoin="round"/>
<path d="M958.385 789.22C958.385 789.22 952.211 872.629 936.01 926.702C919.809 980.775 887.365 1064.89 886.578 1078.02C886.578 1078.02 906.674 1097.33 913.594 1101.19C920.513 1105.04 926.024 1104.29 921.342 1108.15C916.66 1112 903.566 1114.32 893.539 1110.47C883.512 1106.61 875.763 1095.01 870.377 1091.95C864.99 1088.88 857.946 1084.99 857.242 1078.02C856.537 1071.06 867.269 1061.04 867.269 1061.04C867.269 1061.04 892.752 1003.9 889.686 967.599C886.619 931.301 894.285 890.405 902.116 875.695C907.097 866.035 911.255 855.972 914.547 845.613L892.752 793.819C892.752 793.819 936.756 780.725 958.385 789.22Z" fill="white" stroke="#263238" stroke-linecap="round" stroke-linejoin="round"/>
<path d="M913.594 1101.19C912.478 1100.53 911.4 1099.81 910.362 1099.03C906.218 1100.94 896.025 1104.83 888.111 1098.12C879.244 1090.58 869.755 1077.03 860.722 1068.66C858.538 1071.3 857.311 1074.6 857.242 1078.02C857.988 1084.99 864.949 1088.84 870.377 1091.95C875.805 1095.05 883.47 1106.61 893.539 1110.47C903.608 1114.32 916.701 1112 921.342 1108.15C925.983 1104.29 920.555 1105.08 913.594 1101.19Z" fill="#263238" stroke="#263238" stroke-linecap="round" stroke-linejoin="round"/>
<path d="M947.447 781.388C947.447 781.388 962.529 826.553 962.529 838.155C962.529 849.757 889.561 1014.21 882.6 1030.41C875.639 1046.62 865.197 1076.74 865.197 1076.74C867.431 1085.64 872.783 1093.45 880.28 1098.74C893 1108.02 897.641 1116.14 891.84 1118.46C886.039 1120.79 859.438 1123.11 852.477 1113.82C845.515 1104.54 838.596 1084.82 831.759 1079.06C824.922 1073.3 831.759 1060.54 836.4 1057.06C841.036 1052.81 845.292 1048.16 849.12 1043.18C849.12 1043.18 866.482 1006.09 866.482 973.648C866.482 941.204 872.283 909.962 889.686 883.319C899.248 869.282 907.029 854.111 912.848 838.155L894.285 799.91C894.285 799.91 924.408 779.192 947.447 781.388Z" fill="white" stroke="#263238" stroke-linecap="round" stroke-linejoin="round"/>
<path d="M881.15 1099.45C874.396 1102.72 869.631 1105.16 854.921 1088.47C847.121 1079.67 839.817 1070.44 833.043 1060.83C829.314 1066.13 826.372 1074.71 831.759 1079.18C838.72 1084.99 845.64 1104.67 852.477 1113.95C859.313 1123.23 886.081 1120.91 891.84 1118.59C897.6 1116.27 893.29 1108.48 881.15 1099.45Z" fill="#263238" stroke="#263238" stroke-linecap="round" stroke-linejoin="round"/>
<path d="M885.293 321.456C885.293 321.456 808.638 333.265 806.111 337.657C803.583 342.049 829.811 485.954 832.298 497.183C834.784 508.412 817.339 537.707 807.436 594.39C797.533 651.074 809.384 664.83 826.207 705.271C843.029 745.712 890.1 806.249 890.1 806.249L963.648 793.156C963.648 793.156 980.471 661.681 972.349 598.119C967.701 560.414 956.748 523.758 939.947 489.683L941.811 455.996C941.811 455.996 962.529 443.234 963.316 426.991C964.103 410.749 952.419 387.421 941.811 366.247C931.204 345.074 901.868 321.456 885.293 321.456Z" fill="#0EA362" stroke="#263238" stroke-linecap="round" stroke-linejoin="round"/>
<path d="M890.722 311.884C890.722 311.884 874.52 313.749 872.034 316.856C869.548 319.964 862.048 362.891 862.048 362.891C862.048 362.891 891.343 354.19 894.451 354.19C897.558 354.19 923.124 384.106 923.124 384.106V357.919L945.541 374.741C941.202 362.249 935.781 350.159 929.339 338.61C919.395 321.456 904.437 312.506 890.722 311.884Z" fill="white" stroke="#263238" stroke-linecap="round" stroke-linejoin="round"/>
<path d="M891.964 274.509C891.964 274.509 886.992 322.491 890.1 328.085C893.208 333.679 914.381 366.123 914.381 366.123C914.381 366.123 911.895 341.262 911.895 325.599C912.764 312.092 915.07 298.716 918.773 285.697L891.964 274.509Z" fill="white" stroke="#263238" stroke-linecap="round" stroke-linejoin="round"/>
<path d="M935.596 195.326C935.596 195.326 923.745 224.621 911.895 235.229C905.284 241.282 897.966 246.513 890.1 250.808C890.1 250.808 888.857 271.526 891.964 274.509C895.072 277.493 920.638 303.763 929.256 300.034C937.875 296.304 951.093 271.982 952.336 252.673C952.522 237.939 950.639 223.252 946.742 209.042L935.596 195.326Z" fill="white" stroke="#263238" stroke-linecap="round" stroke-linejoin="round"/>
<path d="M944.256 231.582C942.636 232.288 941.284 233.492 940.396 235.02C939.509 236.548 939.134 238.32 939.325 240.077C939.325 247.121 945.665 252.756 945.665 256.278C945.665 259.8 937.916 261.954 937.916 261.954" stroke="#263238" stroke-width="0.5" stroke-linecap="round" stroke-linejoin="round"/>
<path d="M932.986 235.104C932.986 235.104 929.422 226.817 918.152 229.469" stroke="#263238" stroke-width="0.5" stroke-linecap="round" stroke-linejoin="round"/>
<path d="M935.803 273.225C933.336 273.778 930.774 273.747 928.321 273.136C925.869 272.525 923.592 271.349 921.674 269.703" stroke="#263238" stroke-width="0.5" stroke-linecap="round" stroke-linejoin="round"/>
<path d="M925.9 240.408C925.9 243.35 925.113 245.712 924.16 245.712C923.207 245.712 922.378 243.35 922.378 240.408C922.378 237.466 923.165 235.104 924.16 235.104C925.154 235.104 925.9 237.508 925.9 240.408Z" fill="#263238"/>
<path d="M944.256 242.729C944.256 245.629 943.469 248.032 942.474 248.032C941.48 248.032 940.734 245.629 940.734 242.729C940.734 239.828 941.521 237.425 942.474 237.425C943.427 237.425 944.256 239.952 944.256 242.729Z" fill="#263238"/>
<path d="M820.281 336.207C812.972 335.961 805.756 337.909 799.564 341.8C790.821 348.016 792.727 372.338 797.077 398.526C801.428 424.713 825.129 497.597 830.723 510.07C833.395 516.012 837.665 521.096 843.057 524.754C848.449 528.412 854.751 530.501 861.261 530.787C873.111 530.787 951.01 489.02 951.01 489.02L944.132 469.711C944.132 469.711 877.628 486.368 872.863 487.197C868.098 488.026 846.054 376.275 846.054 376.275" fill="#0EA362"/>
<path d="M820.281 336.207C812.972 335.961 805.756 337.909 799.564 341.8C790.821 348.016 792.727 372.338 797.077 398.526C801.428 424.713 825.129 497.597 830.723 510.07C833.395 516.012 837.665 521.096 843.057 524.754C848.449 528.412 854.751 530.501 861.261 530.787C873.111 530.787 951.01 489.02 951.01 489.02L944.132 469.711C944.132 469.711 877.628 486.368 872.863 487.197C868.098 488.026 846.054 376.275 846.054 376.275" stroke="#263238" stroke-linecap="round" stroke-linejoin="round"/>
<path d="M891.343 473.938C891.343 473.938 865.777 473.275 862.048 473.275C858.319 473.275 840.875 493.247 836.483 498.136C832.09 503.025 837.104 504.351 839.01 505.014C840.916 505.677 852.684 500.622 852.684 500.622C852.684 500.622 842.118 521.34 844.604 524.945C847.09 528.55 853.305 531.16 855.833 528.674C859.22 525.821 863.289 523.894 867.642 523.08C870.011 523.188 872.373 522.733 874.533 521.754C876.694 520.774 878.592 519.298 880.073 517.445C885.086 511.851 893.166 489.435 893.166 489.435L905.597 485.664V476.424L891.343 473.938Z" fill="white" stroke="#263238" stroke-linecap="round" stroke-linejoin="round"/>
<path d="M888.857 473.275L895.694 515.042C895.694 515.042 981.092 491.382 991.658 486.368C1002.22 481.355 996.05 454.587 987.929 447.751C979.807 440.914 888.857 473.275 888.857 473.275Z" fill="#0EA362" stroke="#263238" stroke-linecap="round" stroke-linejoin="round"/>
<path d="M890.1 806.249L963.648 793.156C963.648 793.156 980.47 661.681 972.349 598.12C970.663 585.079 968.242 572.145 965.098 559.378C946.916 566.749 927.746 571.398 908.207 573.176C859.935 578.521 827.657 564.64 815.35 557.969C812.45 568.618 809.632 580.675 807.063 594.349C797.119 651.074 809.011 664.789 825.834 705.23C842.656 745.671 890.1 806.249 890.1 806.249Z" fill="#263238" stroke="#263238" stroke-linecap="round" stroke-linejoin="round"/>
<path d="M902.986 652.317C915.462 673.584 924.759 696.561 930.582 720.52" stroke="white" stroke-width="0.75" stroke-linecap="round" stroke-linejoin="round"/>
<path d="M880.404 620.868C885.607 626.636 890.372 632.786 894.658 639.265" stroke="white" stroke-width="0.75" stroke-linecap="round" stroke-linejoin="round"/>
<path d="M644.098 1181.49C748.587 1181.49 833.292 1160.75 833.292 1135.16C833.292 1109.58 748.587 1088.84 644.098 1088.84C539.609 1088.84 454.904 1109.58 454.904 1135.16C454.904 1160.75 539.609 1181.49 644.098 1181.49Z" fill="#0EA362"/>
<path opacity="0.5" d="M644.098 1181.49C748.587 1181.49 833.292 1160.75 833.292 1135.16C833.292 1109.58 748.587 1088.84 644.098 1088.84C539.609 1088.84 454.904 1109.58 454.904 1135.16C454.904 1160.75 539.609 1181.49 644.098 1181.49Z" fill="white"/>
<path d="M629.761 188.241C629.761 188.241 622.8 175.52 617.704 179.954C612.607 184.387 620.894 216.831 627.234 214.925C633.573 213.019 629.761 188.241 629.761 188.241Z" fill="white" stroke="#263238" stroke-linecap="round" stroke-linejoin="round"/>
<path d="M500.815 628.616C539.697 644.964 580.744 655.586 622.676 660.148C690.009 666.944 768.446 618.381 768.446 618.381C768.446 618.381 690.009 497.349 689.18 494.78C688.351 492.211 594.583 488.813 594.583 488.813L500.815 628.616Z" fill="#263238" stroke="#263238" stroke-linecap="round" stroke-linejoin="round"/>
<path d="M557.954 527.845C557.954 527.845 526.67 661.06 526.67 708.545C526.67 756.03 526.67 794.233 524.35 832.478C522.03 870.723 509.309 944.809 513.95 983.054C518.59 1021.3 524.35 1096.59 524.35 1096.59C524.35 1096.59 483.826 1128.99 483.826 1140.59C483.826 1152.19 508.149 1148.88 528.991 1135.95C549.833 1123.02 555.634 1113.95 555.634 1113.95L560.274 1118.59L567.236 1111.63L569.556 1086.15L592.718 877.642L625.162 670.466L681.887 919.492L731.61 1092.11L743.212 1096.75L745.532 1107.15L757.092 1114.11L768.694 1115.27L780.255 1125.67C780.255 1125.67 817.339 1137.28 824.301 1134.96C831.262 1132.64 831.22 1123.4 812.699 1109.47C794.177 1095.55 762.976 1087.47 762.976 1087.47C762.976 1087.47 759.496 970.458 751.416 902.131C743.336 833.804 732.853 775.877 732.853 727.232C732.853 678.587 716.693 536.919 716.693 536.919L557.954 527.845Z" fill="#263238" stroke="#263238" stroke-linecap="round" stroke-linejoin="round"/>
<path d="M637.924 267.217L551.448 300.365L558.368 538.204C558.368 538.204 587.746 552.872 639.457 552.126C691.169 551.38 726.472 549.226 726.472 549.226L746.982 289.55L663.573 270.241C663.573 270.241 647.951 264.896 637.924 267.217Z" fill="white" stroke="#263238" stroke-linecap="round" stroke-linejoin="round"/>
<path d="M638.711 308.901L647.951 332.85L621.723 518.937L635.604 549.847L658.766 514.337L655.7 334.383L666.515 310.434L654.125 285.738L638.711 308.901Z" fill="#263238" stroke="#263238" stroke-linecap="round" stroke-linejoin="round"/>
<path d="M638.049 256.319L624.043 272.893L626.612 324.439L655.866 300.904L679.401 335.253C679.401 335.253 688.931 290.089 685.119 276.084C681.307 262.079 667.965 253.17 660.962 254.454C653.96 255.739 638.049 256.319 638.049 256.319Z" fill="white" stroke="#263238" stroke-linecap="round" stroke-linejoin="round"/>
<path d="M634.237 232.162C634.237 232.162 634.237 233.157 634.485 234.856C635.272 243.35 637.717 269.454 639.333 277.948C641.239 288.142 654.581 299.578 659.678 297.672C664.774 295.766 676.874 280.476 678.117 275.421C679.36 270.366 684.498 246.789 684.498 246.789C684.498 246.789 667.923 254.413 660.962 254.413C654.001 254.413 634.237 232.162 634.237 232.162Z" fill="white" stroke="#263238" stroke-linecap="round" stroke-linejoin="round"/>
<path d="M700.823 198.931C700.823 198.931 711.182 188.738 714.745 194.456C718.309 200.174 701.155 228.889 695.602 225.243C690.05 221.596 700.823 198.931 700.823 198.931Z" fill="white" stroke="#263238" stroke-linecap="round" stroke-linejoin="round"/>
<path d="M653.255 143.739C653.255 143.739 637.386 150.535 633.946 158.49C630.507 166.446 624.872 208.213 630.549 227.687C636.225 247.162 649.858 263.985 657.772 264.979C665.686 265.974 686.155 255.905 691.832 237.756C697.508 219.607 703.144 200.464 704.262 188.034C705.381 175.603 714.455 182.357 701.983 164.208C689.511 146.06 663.324 136.944 653.255 143.739Z" fill="white" stroke="#263238" stroke-linecap="round" stroke-linejoin="round"/>
<path d="M658.228 197.149C658.228 200.257 657.109 202.784 655.576 202.826C654.043 202.867 652.675 200.381 652.592 197.274C652.51 194.166 653.711 191.638 655.286 191.597C656.86 191.556 658.145 193.917 658.228 197.149Z" fill="#263238"/>
<path d="M680.313 198.517C680.313 201.624 679.194 204.193 677.661 204.235C676.128 204.276 674.76 201.79 674.677 198.682C674.595 195.575 675.796 193.006 677.329 192.964C678.862 192.923 680.23 195.409 680.313 198.517Z" fill="#263238"/>
<path d="M646.874 182.978C648.333 180.827 650.505 179.26 653.007 178.555C655.509 177.85 658.18 178.052 660.548 179.125" stroke="#263238" stroke-width="0.5" stroke-linecap="round" stroke-linejoin="round"/>
<path d="M672.73 181.321C672.73 181.321 679.94 177.841 687.978 187.205" stroke="#263238" stroke-width="0.5" stroke-linecap="round" stroke-linejoin="round"/>
<path d="M653.794 227.729C659.201 230.298 665.313 230.984 671.155 229.676" stroke="#263238" stroke-width="0.5" stroke-linecap="round" stroke-linejoin="round"/>
<path d="M670.202 189.152C670.202 189.152 674.056 216.044 671.155 217.494C668.255 218.944 662.04 215.547 662.04 215.547" stroke="#263238" stroke-width="0.5" stroke-linecap="round" stroke-linejoin="round"/>
<path d="M636.142 130.853C636.142 130.853 614.513 135.286 615.135 146.723C615.756 158.159 623.422 178.545 623.422 178.545C623.422 178.545 631.046 182.978 629.761 188.075C628.477 193.172 629.14 203.986 633.615 200.174C638.09 196.362 635.521 182.357 637.427 180.451C639.612 179.083 641.442 177.217 642.767 175.006C644.092 172.795 644.875 170.302 645.051 167.73C645.051 160.106 640.576 153.104 641.861 151.156C643.145 149.209 665.396 151.778 676.21 156.874C687.025 161.971 701.652 170.216 697.84 178.503C696.635 180.473 696.108 182.783 696.34 185.08C696.571 187.377 697.55 189.535 699.124 191.224C699.124 191.224 694.649 203.323 697.84 206.514C701.03 209.704 704.842 195.699 704.842 195.699C706.981 195.266 708.931 194.174 710.417 192.577C711.904 190.979 712.852 188.955 713.129 186.791C715.937 176.644 716.795 166.056 715.657 155.59C713.751 145.438 692.743 128.242 669.871 127.621C646.999 126.999 636.142 130.853 636.142 130.853Z" fill="#263238" stroke="#263238" stroke-linecap="round" stroke-linejoin="round"/>
<path d="M638.67 141.833C638.67 141.833 664.774 164.705 687.025 173.614C709.276 182.523 737.908 165.99 739.192 153.269C740.477 140.549 718.848 122.11 713.13 121.447C707.411 120.784 716.279 113.16 695.312 106.82C674.346 100.481 627.856 104.293 625.328 117.013C622.8 129.734 638.67 141.833 638.67 141.833Z" fill="#263238" stroke="#263238" stroke-linecap="round" stroke-linejoin="round"/>
<path d="M627.11 271.07C627.11 271.07 624.043 417.793 606.392 467.971C588.741 518.149 566.241 568.369 546.932 586.145C527.623 603.92 493.646 660.272 493.646 660.272C493.646 660.272 482.044 637.856 482.044 630.936C482.044 624.016 535.91 574.543 540.758 569.902C545.606 565.261 547.72 541.353 547.72 505.843C547.72 470.333 539.225 303.514 539.225 300.406C539.225 297.299 612.442 267.217 627.11 271.07Z" fill="#0EA362" stroke="#263238" stroke-linecap="round" stroke-linejoin="round"/>
<path d="M539.101 300.406L537.402 302.975C526.843 322.515 517.476 342.676 509.35 363.347C495.014 398.235 457.225 456.038 465.346 467.598C473.467 479.158 494.351 486.12 507.03 472.239C519.709 458.358 551.034 399.271 551.034 399.271C551.034 399.271 546.808 312.754 539.101 300.406Z" fill="#0EA362" stroke="#263238" stroke-linecap="round" stroke-linejoin="round"/>
<path d="M683.503 272.603C683.503 272.603 685.036 373.788 688.103 443.275C691.169 512.763 700.533 539.033 708.199 552.168C715.864 565.303 772.299 652.566 772.299 652.566C772.299 652.566 785.434 625.508 783.86 614.694C782.285 603.879 741.388 535.179 741.388 531.326C741.388 527.472 759.164 299.661 756.057 293.487C752.949 287.313 683.503 272.603 683.503 272.603Z" fill="#0EA362" stroke="#263238" stroke-linecap="round" stroke-linejoin="round"/>
<path d="M610.908 280.352L588.492 335.958L606.268 353.692L586.959 375.321L597.773 457.944" stroke="#263238" stroke-linecap="round" stroke-linejoin="round"/>
<path d="M694.276 281.097L715.16 330.53L691.997 344.411L715.16 380.749L692.743 439.422" stroke="#263238" stroke-linecap="round" stroke-linejoin="round"/>
<path d="M557.995 575.33L561.89 585.44L534.377 606.655L525.717 587.015L557.995 575.33Z" fill="white" stroke="#263238" stroke-linecap="round" stroke-linejoin="round"/>
<path d="M503.549 451.397L557.954 575.33L517.43 606.614C517.43 606.614 458.509 482.639 458.509 472.239C458.509 461.839 471.271 440.955 477.031 437.475" fill="#0EA362"/>
<path d="M503.549 451.397L557.954 575.33L517.43 606.614C517.43 606.614 458.509 482.639 458.509 472.239C458.509 461.839 471.271 440.955 477.031 437.475" stroke="#263238" stroke-linecap="round" stroke-linejoin="round"/>
<path d="M561.89 585.44L571.338 590.164L545.358 625.55L534.377 606.655L561.89 585.44Z" fill="white" stroke="#263238" stroke-linecap="round" stroke-linejoin="round"/>
<path d="M706.044 577.112L701.155 586.808L726.43 610.674L736.996 591.987L706.044 577.112Z" fill="white" stroke="#263238" stroke-linecap="round" stroke-linejoin="round"/>
<path d="M756.056 293.487C756.056 293.487 767.99 306.207 769.564 317.975C771.139 329.743 812.823 468.22 814.397 474.518C815.972 480.816 800.226 491.092 784.481 493.412C768.736 495.733 749.095 434.408 749.095 434.408L756.056 293.487Z" fill="#0EA362" stroke="#263238" stroke-linecap="round" stroke-linejoin="round"/>
<path d="M772.589 459.228L706.044 577.112L743.336 612.29C743.336 612.29 814.48 494.863 815.516 484.504C816.552 474.145 805.986 452.101 800.558 448.082" fill="#0EA362"/>
<path d="M772.589 459.228L706.044 577.112L743.336 612.29C743.336 612.29 814.48 494.863 815.516 484.504C816.552 474.145 805.986 452.101 800.558 448.082" stroke="#263238" stroke-linecap="round" stroke-linejoin="round"/>
<path d="M701.155 586.808L691.293 590.537L713.585 628.367L726.43 610.674L701.155 586.808Z" fill="white" stroke="#263238" stroke-linecap="round" stroke-linejoin="round"/>
</g>
<defs>
<filter id="filter0_d_314_6820" x="0.5" y="0" width="1281.6" height="1189.49" filterUnits="userSpaceOnUse" color-interpolation-filters="sRGB">
<feFlood flood-opacity="0" result="BackgroundImageFix"/>
<feColorMatrix in="SourceAlpha" type="matrix" values="0 0 0 0 0 0 0 0 0 0 0 0 0 0 0 0 0 0 127 0" result="hardAlpha"/>
<feOffset dy="4"/>
<feGaussianBlur stdDeviation="2"/>
<feComposite in2="hardAlpha" operator="out"/>
<feColorMatrix type="matrix" values="0 0 0 0 0 0 0 0 0 0 0 0 0 0 0 0 0 0 0.25 0"/>
<feBlend mode="normal" in2="BackgroundImageFix" result="effect1_dropShadow_314_6820"/>
<feBlend mode="normal" in="SourceGraphic" in2="effect1_dropShadow_314_6820" result="shape"/>
</filter>
</defs>
</svg>
