<svg width="628" height="596" viewBox="0 0 628 596" fill="none" xmlns="http://www.w3.org/2000/svg">
<path opacity="0.2" d="M590.887 363.648H536.126V385.814H590.887V363.648Z" fill="black"/>
<path opacity="0.2" d="M412.757 184.697H357.996V206.862H412.757V184.697Z" fill="black"/>
<path opacity="0.2" d="M379.027 218.18H324.266V240.345H379.027V218.18Z" fill="black"/>
<path opacity="0.2" d="M416.121 71.0549H361.36V93.2201H416.121V71.0549Z" fill="black"/>
<path opacity="0.2" d="M371.843 339.866H317.082V362.032H371.843V339.866Z" fill="black"/>
<path opacity="0.2" d="M263.886 141.944H209.125V164.11H263.886V141.944Z" fill="black"/>
<path opacity="0.2" d="M323.862 141.944H269.101V164.11H323.862V141.944Z" fill="black"/>
<path opacity="0.2" d="M277.967 503.771H223.206V525.937H277.967V503.771Z" fill="black"/>
<path opacity="0.2" d="M249.283 531.152H194.521V553.317H249.283V531.152Z" fill="black"/>
<path opacity="0.1" d="M349.039 248.82H294.278V270.985H349.039V248.82Z" fill="black"/>
<path opacity="0.1" d="M268.032 86.8052H213.271V108.97H268.032V86.8052Z" fill="black"/>
<path opacity="0.1" d="M622.179 416.793H567.418V438.958H622.179V416.793Z" fill="black"/>
<path opacity="0.1" d="M301.436 450.692H246.675V472.858H301.436V450.692Z" fill="black"/>
<path opacity="0.1" d="M364.02 450.692H309.259V472.858H364.02V450.692Z" fill="black"/>
<path opacity="0.1" d="M369.236 419.4H314.475V441.566H369.236V419.4Z" fill="black"/>
<path opacity="0.1" d="M411.623 248.82H356.862V270.985H411.623V248.82Z" fill="black"/>
<path opacity="0.2" d="M439.642 528.922H384.881V551.088H439.642V528.922Z" fill="black"/>
<path opacity="0.1" d="M409.654 559.562H354.893V581.728H409.654V559.562Z" fill="black"/>
<path opacity="0.1" d="M472.238 559.562H417.477V581.728H472.238V559.562Z" fill="black"/>
<path opacity="0.2" d="M174.169 253.044H119.408V275.209H174.169V253.044Z" fill="black"/>
<path opacity="0.1" d="M144.18 283.684H89.4194V305.849H144.18V283.684Z" fill="black"/>
<path opacity="0.1" d="M206.764 283.684H152.003V305.849H206.764V283.684Z" fill="black"/>
<path opacity="0.2" d="M152.799 418.096H98.0381V440.262H152.799V418.096Z" fill="black"/>
<path opacity="0.1" d="M395.312 312.108H340.551V334.273H395.312V312.108Z" fill="black"/>
<path opacity="0.1" d="M313.171 529.848H258.41V552.013H313.171V529.848Z" fill="black"/>
<path opacity="0.1" d="M295.178 114.564H240.417V136.729H295.178V114.564Z" fill="black"/>
<path opacity="0.2" d="M121.507 344.704H66.7461V366.869H121.507V344.704Z" fill="black"/>
<path opacity="0.1" d="M152.799 317.323H98.0381V339.488H152.799V317.323Z" fill="black"/>
<path opacity="0.1" d="M292.309 184.058H237.548V206.224H292.309V184.058Z" fill="black"/>
<path opacity="0.1" d="M212.475 197.071H157.714V219.236H212.475V197.071Z" fill="black"/>
<path opacity="0.2" d="M482.669 363.648H427.908V385.814H482.669V363.648Z" fill="black"/>
<path opacity="0.2" d="M83.0828 486.248H28.3218V508.413H83.0828V486.248Z" fill="black"/>
<path opacity="0.1" d="M59.4314 174.814H4.67041V196.979H59.4314V174.814Z" fill="black"/>
<path opacity="0.1" d="M122.015 174.814H67.2544V196.979H122.015V174.814Z" fill="black"/>
<path opacity="0.1" d="M127.231 143.522H72.4697V165.687H127.231V143.522Z" fill="black"/>
<path opacity="0.1" d="M86.3035 232.574H31.5425V254.739H86.3035V232.574Z" fill="black"/>
<path opacity="0.2" d="M157.402 509.065H102.641V531.23H157.402V509.065Z" fill="black"/>
<g opacity="0.3">
<path d="M415.261 5.68066V318.379H612.14V5.68066H415.261ZM604.929 80.7945H518.159V17.0631H604.929V80.7945ZM518.159 165.739H604.929V234.021H518.159V165.739ZM518.159 157.408V89.126H604.929V157.408H518.159ZM422.419 17.0631H509.189V80.7945H422.862V89.126H509.189V157.408H422.862V165.739H509.189V234.021H422.862V242.327H509.189V306.997H422.419V17.0631ZM518.159 306.997V242.327H604.929V306.997H518.159Z" stroke="black" stroke-linecap="round" stroke-linejoin="round"/>
<path d="M496.751 36.1123L452.981 72.3458" stroke="black" stroke-linecap="round" stroke-linejoin="round"/>
<path d="M583.546 107.054L539.764 143.287" stroke="black" stroke-linecap="round" stroke-linejoin="round"/>
<path d="M484.677 260.267L440.907 296.488" stroke="black" stroke-linecap="round" stroke-linejoin="round"/>
<path d="M473.79 46.6863L453.737 63.2841" stroke="black" stroke-linecap="round" stroke-linejoin="round"/>
<path d="M580.209 98.7615L560.143 115.359" stroke="black" stroke-linecap="round" stroke-linejoin="round"/>
<path d="M482.095 271.585L462.029 288.196" stroke="black" stroke-linecap="round" stroke-linejoin="round"/>
<path d="M476.059 191.581L455.993 208.192" stroke="black" stroke-linecap="round" stroke-linejoin="round"/>
<path d="M578.696 261.78L558.63 278.378" stroke="black" stroke-linecap="round" stroke-linejoin="round"/>
<path d="M624.292 318.171H403.917V345.551H624.292V318.171Z" stroke="black" stroke-linecap="round" stroke-linejoin="round"/>
</g>
<g opacity="0.3">
<path d="M91.3104 125.999L92.1187 118.124H39.9263L40.7346 125.999H91.3104Z" stroke="black" stroke-linecap="round" stroke-linejoin="round"/>
<path d="M89.1722 146.716H42.873L37.084 90.6907H94.9481L89.1722 146.716Z" stroke="black" stroke-linecap="round" stroke-linejoin="round"/>
<path d="M46.5367 90.2866C41.3064 89.2573 36.427 86.9052 32.364 83.4545C25.5319 77.6785 13.4584 76.1009 9.24703 79.2562C6.30318 81.5367 3.49921 83.9924 0.850342 86.6098C0.850342 86.6098 4.00562 75.0578 12.4023 72.4241C20.799 69.7903 26.0535 72.4241 30.7864 74.5232C35.5193 76.6224 37.6185 78.2001 42.8729 81.3553C45.8014 83.0996 48.6069 85.0425 51.2696 87.1704C51.2696 87.1704 49.692 80.3514 46.5367 77.1961C43.3814 74.0408 24.4889 60.3506 24.4889 60.3506C30.402 61.837 36.1944 63.7678 41.8168 66.1265C48.6489 69.2818 53.8903 75.0578 54.4249 77.6785C55.0949 80.1959 55.967 82.6551 57.0326 85.0321L59.1317 90.2475C59.1317 90.2475 58.6102 82.4245 58.0887 76.5963C57.5671 70.7682 56.511 67.1305 57.0326 61.3545C57.5541 55.5785 58.6102 51.9017 58.6102 48.7595C58.7248 46.582 59.2746 44.4496 60.2269 42.488C60.2269 42.488 62.3 57.1822 63.3562 61.9282C64.4123 66.6742 64.3992 72.9586 64.9207 76.1009C65.4423 79.2431 67.033 88.709 67.033 88.709C67.033 88.709 65.9769 80.8859 69.1321 76.6354C72.2874 72.3849 73.3305 69.2818 75.4297 66.1265C77.5288 62.9713 80.1626 57.7168 80.1626 57.7168C80.1626 57.7168 80.1626 66.1265 78.0504 71.381C75.9381 76.6354 74.3735 79.204 74.3735 81.3553V88.709C74.3735 88.709 79.5889 79.2562 82.7833 76.6354C85.9777 74.0147 87.9986 74.0278 89.0808 72.4241C90.163 70.8204 96.4344 67.2087 96.4344 67.2087C96.4344 67.2087 92.8228 75.5793 91.7145 77.157C89.7474 79.3885 87.6396 81.492 85.404 83.4545C89.1431 81.611 93.0077 80.0338 96.969 78.7346C102.184 77.157 110.099 75.5793 113.241 75.5793C116.383 75.5793 126.905 74.0017 126.905 74.0017C126.905 74.0017 117.452 78.2 111.676 80.3123C105.9 82.4245 102.21 83.4545 100.111 83.9891L98.0381 84.5628C103.041 85.3466 107.963 86.5771 112.745 88.2396C120.099 90.8472 122.198 92.9595 123.254 94.5371C123.995 95.8462 124.527 97.2626 124.832 98.7354C124.832 98.7354 127.974 101.343 127.974 103.468C127.974 105.594 113.775 93.4419 108.469 91.8642C103.162 90.2866 94.8959 90.6908 94.8959 90.6908" stroke="black" stroke-linecap="round" stroke-linejoin="round"/>
</g>
<g opacity="0.3">
<path d="M124.167 165.661L123.619 160.329H158.992L158.432 165.661H124.167Z" stroke="black" stroke-linecap="round" stroke-linejoin="round"/>
<path d="M125.627 179.703H156.984L160.909 141.736H121.703L125.627 179.703Z" stroke="black" stroke-linecap="round" stroke-linejoin="round"/>
<path d="M154.507 141.462C158.052 140.776 161.359 139.181 164.103 136.833C168.732 132.922 176.92 131.853 179.749 133.991C181.748 135.534 183.651 137.197 185.447 138.972C185.447 138.972 183.309 131.149 177.624 129.362C171.939 127.576 168.367 129.362 165.159 130.784C162.328 132.131 159.596 133.678 156.984 135.412C154.998 136.585 153.094 137.891 151.287 139.324C151.287 139.324 152.356 134.708 154.494 132.57C156.632 130.432 169.436 121.174 169.436 121.174C165.432 122.183 161.51 123.491 157.701 125.086C153.073 127.211 149.513 131.136 149.161 132.909C148.706 134.614 148.113 136.28 147.388 137.89L145.954 141.449C145.954 141.449 146.319 136.116 146.671 132.192C147.023 128.267 147.74 125.79 147.388 121.878C147.036 117.967 146.319 115.477 146.319 113.338C146.253 111.856 145.89 110.401 145.25 109.062C145.25 109.062 143.829 119.036 143.112 122.23C142.394 125.425 142.407 129.701 142.042 131.84C141.677 133.978 140.621 140.38 140.621 140.38C140.621 140.38 141.338 135.047 139.2 132.192C137.062 129.336 136.358 127.211 134.923 125.086C133.489 122.961 131.729 119.388 131.729 119.388C131.731 122.528 132.21 125.649 133.15 128.645C134.571 132.192 135.641 133.978 135.641 135.399V140.38C135.641 140.38 132.081 133.978 129.943 132.192C127.804 130.406 126.383 130.419 125.679 129.349C124.975 128.28 120.699 125.79 120.699 125.79C120.699 125.79 123.189 131.488 123.893 132.557C125.226 134.068 126.655 135.492 128.17 136.82C125.64 135.574 123.026 134.507 120.347 133.626C116.75 132.532 113.049 131.82 109.303 131.501C107.165 131.501 100.059 130.432 100.059 130.432C100.059 130.432 106.461 133.274 110.372 134.708C114.284 136.142 116.774 136.833 118.195 137.199L119.616 137.551C116.224 138.081 112.886 138.914 109.642 140.041C104.661 141.814 103.24 143.248 102.536 144.304C102.029 145.193 101.668 146.157 101.467 147.16C101.467 147.16 99.3418 148.933 99.3418 150.354C99.3418 151.775 108.951 143.6 112.511 142.531C115.525 141.854 118.617 141.586 121.703 141.736" stroke="black" stroke-linecap="round" stroke-linejoin="round"/>
</g>
<g opacity="0.3">
<path d="M192.266 75.8402L192.892 69.7122H152.33L152.955 75.8402H192.266Z" stroke="black" stroke-linecap="round" stroke-linejoin="round"/>
<path d="M190.597 91.9423H154.625L150.126 48.3943H195.096L190.597 91.9423Z" stroke="black" stroke-linecap="round" stroke-linejoin="round"/>
<path d="M150.191 48.3944C150.191 48.3944 145.185 43.4789 142.277 42.2272C139.37 40.9755 133.88 38.9285 133.88 38.9285C133.88 38.9285 140.543 38.9285 145.119 41.0147C148.257 42.4987 151.305 44.1662 154.246 46.0083C154.246 46.0083 150.074 40.1802 146.749 36.021C143.424 31.8618 135.914 24.7689 135.51 22.6958C135.106 20.6227 145.498 29.7756 152.577 35.1865C159.657 40.5974 160.909 44.3134 160.909 44.3134C160.909 44.3134 155.498 34.313 151.326 25.5642C148.82 20.1318 145.762 14.9718 142.199 10.166C140.895 8.49705 154.272 23.9084 158.849 31.4054C163.425 38.9025 166.346 43.4789 166.346 43.4789C166.346 43.4789 161.352 18.4844 160.518 12.6563L158.849 1C158.849 1 166.763 23.9084 167.976 28.0676C169.188 32.2268 171.3 39.7239 171.3 39.7239C171.3 39.7239 173.804 27.6504 174.638 20.1664C175.473 12.6824 179.215 1.91268 179.215 1.91268C179.215 1.91268 177.572 25.147 177.194 30.9882L176.359 42.6445C176.359 42.6445 180.519 31.8096 184.274 26.8159C187.529 22.7378 191.011 18.8462 194.704 15.1596C194.704 15.1596 187.598 28.4979 185.929 32.6441C184.261 36.7902 182.187 44.3786 182.187 44.3786C182.187 44.3786 190.519 31.4706 194.261 27.2983C197.425 23.9827 201.079 21.1728 205.096 18.9668C208.421 16.8937 194.665 33.5437 193.009 37.2987C191.921 39.711 190.684 42.0537 189.306 44.3134C189.306 44.3134 191.81 40.9756 198.433 38.4722C204.93 36.2024 211.62 34.5308 218.421 33.4785C220.09 33.4785 207.99 38.4722 203.844 40.1411C199.698 41.81 195.095 48.3944 195.095 48.3944" stroke="black" stroke-linecap="round" stroke-linejoin="round"/>
</g>
<path d="M492.412 205.322C497.161 186.045 480.413 165.344 455.005 159.084C429.597 152.825 405.15 163.377 400.401 182.653C395.652 201.93 412.399 222.631 437.807 228.891C463.216 235.15 487.663 224.598 492.412 205.322Z" fill="#0EA362" stroke="#263238" stroke-linecap="round" stroke-linejoin="round"/>
<path d="M419.616 209.548C419.616 209.548 410.215 212.156 405.939 206.941C401.662 201.725 408.077 186.849 415.131 180.003C422.184 173.158 442.068 170.173 452.329 171.242C462.59 172.311 474.768 180.003 476.489 188.191C478.21 196.38 474.768 204.229 474.559 206.784C474.351 209.34 468.353 209.392 467.506 208.088C466.658 206.784 453.828 187.996 451.26 187.135C448.691 186.275 446.983 187.996 444.206 189.482C441.429 190.969 420.268 199.913 420.268 199.913L419.616 209.548Z" fill="#263238" stroke="#263238" stroke-linecap="round" stroke-linejoin="round"/>
<path d="M450.751 424.094L446.527 396.648L436.826 430.001C434.262 434.186 432.117 438.614 430.424 443.221C428.012 450.862 440.177 474.931 440.972 472.388C441.768 469.846 446.357 437.185 446.357 437.185C446.84 433.87 446.997 430.516 446.827 427.171L450.751 424.094Z" fill="white" stroke="#263238" stroke-linecap="round" stroke-linejoin="round"/>
<path d="M445.119 443.508C445.119 443.508 436.331 446.507 436.331 465.165C436.331 470.25 443.58 523.694 443.58 532.638V569.719H492.135L498.12 534.516L502.618 568.976H551.316C551.316 568.976 556.179 514.672 556.532 507.931C556.884 501.19 560.274 486.574 559.139 466.351C558.005 446.129 553.52 438.254 553.52 438.254L446.162 436.363L445.119 443.508Z" fill="#263238" stroke="#263238" stroke-linecap="round" stroke-linejoin="round"/>
<path d="M454.128 255.574C454.128 255.574 431.246 275.131 426.291 280.412C421.337 285.692 423.279 316.476 429.851 337.507C436.422 358.537 443.411 391.068 443.737 397.639C444.063 404.211 445.119 443.508 445.119 443.508C445.119 443.508 485.955 459.624 510.936 455.673C525.9 453.329 540.351 448.438 553.663 441.213C553.663 441.213 549.751 373.831 549.751 359.072C549.751 344.313 546.466 295.314 543.232 278.234C539.999 261.154 528.447 250.958 519.894 249.967C511.34 248.976 479.292 247.542 479.292 247.542L454.128 255.574Z" fill="white" stroke="#263238" stroke-linecap="round" stroke-linejoin="round"/>
<path d="M442.576 250.958C442.576 250.958 452.903 279.929 454.624 280.216C456.345 280.503 460.934 275.913 460.934 275.913L479.292 247.542L471.991 221.322C471.991 221.322 467.818 235.195 459.787 244.087C451.755 252.979 442.576 250.958 442.576 250.958Z" fill="white" stroke="#263238" stroke-linecap="round" stroke-linejoin="round"/>
<path d="M462.525 245.286L448.978 266.252L442.576 250.958L462.525 245.286Z" fill="#263238" stroke="#263238" stroke-linecap="round" stroke-linejoin="round"/>
<path d="M450.621 179.182C450.621 179.182 438.887 188.596 429.46 192.012C420.033 195.428 415.339 196.692 415.339 196.692C415.339 196.692 418.338 215.715 419.251 221.061C420.164 226.407 422.028 235.403 425.874 239.236C429.721 243.07 439.121 252.275 443.398 254.622C447.674 256.969 454.95 255.052 457.088 253.983C459.226 252.914 471.613 234.099 472.265 231.531C472.917 228.962 472.043 221.27 472.043 221.27C472.043 221.27 477.597 218.284 478.458 215.285C479.318 212.286 477.389 201.178 475.681 199.639C473.973 198.1 471.196 199.861 470.765 201.569C470.315 203.039 469.744 204.469 469.057 205.845C468.922 203.313 468.265 200.836 467.128 198.57C465.42 195.793 465.42 194.658 461.352 191.516C457.284 188.374 450.621 179.182 450.621 179.182Z" fill="white" stroke="#263238" stroke-linecap="round" stroke-linejoin="round"/>
<path d="M436.292 221.296L436.93 227.072C436.93 227.072 443.984 226.863 447.192 223.434" stroke="#263238" stroke-linecap="round" stroke-linejoin="round"/>
<path d="M433.124 233.056C433.124 233.056 438.261 234.764 446.162 232.417C454.063 230.071 456.006 224.503 456.006 224.503" stroke="#263238" stroke-linecap="round" stroke-linejoin="round"/>
<path d="M431.585 206.98C431.585 206.98 422.393 203.981 419.616 209.587" stroke="#263238" stroke-linecap="round" stroke-linejoin="round"/>
<path d="M440.946 203.564C440.946 203.564 447.14 197.357 453.554 199.652" stroke="#263238" stroke-linecap="round" stroke-linejoin="round"/>
<path d="M430.633 215.194C431.246 216.85 431.064 218.453 430.229 218.753C429.395 219.053 428.234 217.958 427.621 216.289C427.009 214.62 427.204 213.029 428.039 212.73C428.873 212.43 430.034 213.525 430.633 215.194Z" fill="#263238"/>
<path d="M450.53 209.079C451.143 210.748 450.96 212.338 450.126 212.651C449.291 212.964 448.131 211.843 447.518 210.187C446.905 208.531 447.088 206.927 447.922 206.628C448.757 206.328 449.917 207.423 450.53 209.079Z" fill="#263238"/>
<path d="M499.098 286.083L517.873 353.152C517.35 354.84 517.238 356.628 517.547 358.368C517.939 359.553 518.266 360.758 518.525 361.979C518.525 361.979 513.309 388.278 508.668 404.38C504.026 420.482 487.637 455.647 488.289 459.597C488.941 463.548 485.003 493.119 486.985 494.436C488.967 495.753 493.569 497.722 494.873 497.722C496.177 497.722 502.109 498.374 504.078 498.374C506.047 498.374 513.283 498.048 514.6 495.414C515.917 492.78 515.591 491.15 513.609 491.802C511.902 492.277 510.157 492.609 508.394 492.793L507.09 490.185C507.09 490.185 508.733 478.686 507.09 470.132C505.447 461.579 504.795 458.633 504.795 458.633C504.795 458.633 545.879 391.915 547.522 379.425C549.165 366.934 551.786 353.126 551.786 346.829C551.786 340.531 545.266 284.388 543.245 278.143C541.224 271.898 540.286 265.652 535.031 260.398C529.777 255.143 526.152 255.182 523.518 255.182" fill="white"/>
<path d="M499.098 286.083L517.873 353.152C517.35 354.84 517.238 356.628 517.547 358.368C517.939 359.553 518.266 360.758 518.525 361.979C518.525 361.979 513.309 388.278 508.668 404.38C504.026 420.482 487.637 455.647 488.289 459.597C488.941 463.548 485.003 493.119 486.985 494.436C488.967 495.753 493.569 497.722 494.873 497.722C496.177 497.722 502.109 498.374 504.078 498.374C506.047 498.374 513.283 498.048 514.6 495.414C515.917 492.78 515.591 491.15 513.609 491.802C511.902 492.277 510.157 492.609 508.394 492.793L507.09 490.185C507.09 490.185 508.733 478.686 507.09 470.132C505.447 461.579 504.795 458.633 504.795 458.633C504.795 458.633 545.879 391.915 547.522 379.425C549.165 366.934 551.786 353.126 551.786 346.829C551.786 340.531 545.266 284.388 543.245 278.143C541.224 271.898 540.286 265.652 535.031 260.398C529.777 255.143 526.152 255.182 523.518 255.182" stroke="#263238" stroke-linecap="round" stroke-linejoin="round"/>
<path d="M521.132 360.206C521.132 360.206 530.781 356.19 539.021 359.815" stroke="#263238" stroke-linecap="round" stroke-linejoin="round"/>
<path d="M527.365 352.97C527.365 352.97 538.421 350.362 545.462 358.603" stroke="#263238" stroke-linecap="round" stroke-linejoin="round"/>
<path d="M511.732 392.541C510.715 396.727 509.659 400.821 508.629 404.406C504.026 420.509 487.598 455.673 488.25 459.624C488.902 463.574 484.964 493.145 486.946 494.462C488.928 495.779 493.53 497.748 494.834 497.748C496.138 497.748 502.07 498.4 504.039 498.4C506.008 498.4 513.244 498.074 514.561 495.44C515.878 492.806 515.552 491.176 513.57 491.828C511.862 492.304 510.118 492.635 508.355 492.819L507.051 490.211C507.051 490.211 508.694 478.712 507.051 470.158C505.408 461.605 504.756 458.659 504.756 458.659C504.756 458.659 524.392 426.571 537.091 402.698C528.903 394.223 518.577 392.541 511.732 392.541Z" fill="white" stroke="#263238" stroke-linecap="round" stroke-linejoin="round"/>
<path d="M500.284 492.311C500.284 492.311 503.544 495.075 504.678 495.948C505.812 496.822 506.178 497.709 508.303 497.956" fill="white"/>
<path d="M500.284 492.311C500.284 492.311 503.544 495.075 504.678 495.948C505.812 496.822 506.178 497.709 508.303 497.956" stroke="#263238" stroke-linecap="round" stroke-linejoin="round"/>
<path d="M493.895 493.967C493.895 493.967 498.784 497.604 501.783 498.36Z" fill="white"/>
<path d="M493.895 493.967C493.895 493.967 498.784 497.604 501.783 498.36" stroke="#263238" stroke-linecap="round" stroke-linejoin="round"/>
<path d="M488.51 493.184C489.792 494.881 491.413 496.293 493.269 497.331Z" fill="white"/>
<path d="M488.51 493.184C489.792 494.881 491.413 496.293 493.269 497.331" stroke="#263238" stroke-linecap="round" stroke-linejoin="round"/>
<path d="M444.989 435.411C444.989 435.411 446.188 444.238 446.658 445.673C447.127 447.107 446.423 449.727 446.905 455.204C447.388 460.68 448.809 466.417 445.236 465.465C441.664 464.513 440.021 455.204 440.217 452.818C440.412 450.432 436.162 443.287 436.162 443.287" fill="white"/>
<path d="M444.989 435.411C444.989 435.411 446.188 444.238 446.658 445.673C447.127 447.107 446.423 449.727 446.905 455.204C447.388 460.68 448.809 466.417 445.236 465.465C441.664 464.513 440.021 455.204 440.217 452.818C440.412 450.432 436.162 443.287 436.162 443.287" stroke="#263238" stroke-linecap="round" stroke-linejoin="round"/>
<path d="M375.52 387.052C372.182 380.663 347.396 292.798 347.396 292.798C342.728 305.589 339.743 368.655 339.743 368.655L342.455 402.098L341.972 408.37C348.491 403.924 364.32 395.162 374.868 406.831C375.024 406.219 375.155 405.697 375.22 405.293C376.589 396.831 378.858 393.402 375.52 387.052Z" fill="#0EA362" stroke="#263238" stroke-linecap="round" stroke-linejoin="round"/>
<path d="M367.527 395.475C369.196 395.748 370.825 396.225 372.378 396.896" stroke="#263238" stroke-linecap="round" stroke-linejoin="round"/>
<path d="M344.28 398.565C349.782 396.542 355.558 395.363 361.413 395.071" stroke="#263238" stroke-linecap="round" stroke-linejoin="round"/>
<path d="M370.748 391.955C370.748 391.955 363.446 387.522 357.579 389.269" stroke="#263238" stroke-linecap="round" stroke-linejoin="round"/>
<path d="M222.698 568.846L224.249 501.855L229.008 465.1L339.821 461.319L349.691 487.669L355.78 569.719H299.689L289.102 515.376L286.064 520.604L284.904 568.559L222.698 568.846Z" fill="#263238" stroke="#263238" stroke-linecap="round" stroke-linejoin="round"/>
<path d="M257.601 280.268C257.601 280.268 209.359 293.046 206.4 294.506C203.44 295.966 209.946 339.84 214.509 355.786C219.073 371.732 230.155 430.47 230.155 430.47L229.412 472.897C229.412 472.897 276.754 474.07 295.699 471.736C309.035 469.939 322.266 467.432 335.336 464.226C335.336 464.226 342.051 426.728 339.743 402.033C337.435 377.339 344.163 315.98 344.254 311.938C344.345 307.897 347.344 292.759 347.344 292.759C347.344 292.759 311.28 281.716 302.01 280.555C287.245 279.133 272.383 279.037 257.601 280.268Z" fill="#0EA362" stroke="#263238" stroke-linecap="round" stroke-linejoin="round"/>
<path d="M248.514 291.09C248.514 291.09 254.524 307.662 268.723 317.558" stroke="#263238" stroke-linecap="round" stroke-linejoin="round"/>
<path d="M298.294 288.156C296.376 292.767 294.128 297.234 291.566 301.521" stroke="#263238" stroke-linecap="round" stroke-linejoin="round"/>
<path d="M290.68 304.989L288.189 308.47" stroke="#263238" stroke-linecap="round" stroke-linejoin="round"/>
<path d="M273.299 468.216C284.512 467.551 305.074 465.752 318.425 461.084" stroke="#263238" stroke-linecap="round" stroke-linejoin="round"/>
<path d="M265.32 468.568C265.32 468.568 266.624 468.568 268.801 468.438" stroke="#263238" stroke-linecap="round" stroke-linejoin="round"/>
<path d="M311.502 456.156C296.781 458.072 274.46 459.806 257.08 456.051" stroke="#263238" stroke-linecap="round" stroke-linejoin="round"/>
<path d="M327.161 453.548C327.161 453.548 323.445 454.317 317.473 455.217" stroke="#263238" stroke-linecap="round" stroke-linejoin="round"/>
<path d="M325.935 433.169C317.03 438.384 300.015 447.094 283.156 449.858" stroke="#263238" stroke-linecap="round" stroke-linejoin="round"/>
<path d="M332.298 429.283C332.298 429.283 331.098 430.092 328.96 431.383" stroke="#263238" stroke-linecap="round" stroke-linejoin="round"/>
<path d="M250.782 263.566L252.803 286.892C252.803 286.892 259.935 303.841 276.533 302.707C292.792 301.638 295.204 280.933 295.204 280.933L291.918 256.304C291.918 256.304 277.576 268.234 269.61 267.191C261.643 266.148 250.782 263.566 250.782 263.566Z" fill="white" stroke="#263238" stroke-linecap="round" stroke-linejoin="round"/>
<path d="M234.249 235.938C234.249 235.938 231.29 232.17 229.034 235.573C226.778 238.976 229.451 248.129 233.532 250.111C237.613 252.092 238.682 252.079 238.682 252.079C238.682 252.079 243.311 261.206 245.749 263.918C248.187 266.63 266.024 279.356 270.313 280.138C274.603 280.92 280.744 279.59 283.13 277.087C285.516 274.584 293.118 257.347 294.291 253.227C295.464 249.107 295.673 248.194 295.725 245.691C295.777 243.187 295.66 241.023 295.66 241.023C295.66 241.023 299.937 234.738 300.419 229.719C300.901 224.699 299.741 220.931 297.068 220.214C294.395 219.497 291.383 224.868 291.383 224.868L282.374 197.24C282.374 197.24 279.271 189.639 276.663 188.739C274.055 187.84 254.746 190.186 246.584 193.589C238.422 196.992 230.455 200.591 229.816 204.359C229.178 208.127 234.249 235.938 234.249 235.938Z" fill="white" stroke="#263238" stroke-linecap="round" stroke-linejoin="round"/>
<path d="M249.009 197.266C249.009 197.266 233.598 200.33 232.698 202.834C231.798 205.337 230.573 210.083 232.163 213.708C233.754 217.332 235.527 236.003 235.527 236.003C235.527 236.003 237.887 241.857 236.231 241.01C234.575 240.162 233.363 233.187 232.828 232.378C232.294 231.57 225.37 218.167 223.258 213.147C221.146 208.127 225.722 203.394 226.87 202.273C227.706 201.409 228.474 200.48 229.165 199.496C229.165 199.496 227.965 191.412 231.681 187.761C235.397 184.11 262.282 178.634 264.524 177.722C266.767 176.809 269.114 172.154 271.044 171.033C272.973 169.912 278.867 172.715 282.257 179.677C285.647 186.64 285.386 188.596 284.238 189.991L283.182 191.477C283.182 191.477 287.094 192.038 288.619 197.331C290.145 202.625 292.27 207.632 292.166 211.817C292.061 216.002 291.449 224.034 291.423 224.855C291.396 225.677 290.458 224.855 289.688 222.117C288.919 219.379 281.865 198.987 280.822 196.758C279.945 194.939 278.965 193.172 277.889 191.464C277.315 190.578 254.498 191.477 249.009 197.266Z" fill="#263238" stroke="#263238" stroke-linecap="round" stroke-linejoin="round"/>
<path d="M270.314 280.138C274.603 280.855 280.745 279.59 283.131 277.087C285.517 274.584 293.118 257.347 294.291 253.227C295.465 249.107 295.673 248.194 295.726 245.691C295.778 243.187 295.66 241.023 295.66 241.023L291.879 224.073L291.553 224.581C291.984 229.797 292.766 239.915 292.609 241.362C292.353 242.472 291.782 243.485 290.966 244.28C290.15 245.075 289.123 245.619 288.007 245.847C285.842 246.212 275.66 244.543 271.161 244.96C266.663 245.378 265.203 246.929 261.748 248.729C258.292 250.528 251.187 254.817 249.387 255.365C247.588 255.913 244.172 254.648 242.803 252.849C241.434 251.049 235.528 236.055 235.528 236.055C235.36 237.039 235.024 237.987 234.537 238.858L238.696 252.132C238.696 252.132 243.324 261.258 245.763 263.97C248.201 266.682 266.024 279.356 270.314 280.138Z" fill="#263238" stroke="#263238" stroke-linecap="round" stroke-linejoin="round"/>
<path d="M268.189 219.601C268.189 219.601 265.242 223.017 265.75 224.086C266.259 225.155 272.961 244.947 272.726 247.06C272.491 249.172 269.597 250.28 267.289 249.563C264.981 248.846 263.508 242.392 263.508 242.392" fill="white"/>
<path d="M268.189 219.601C268.189 219.601 265.242 223.017 265.75 224.086C266.259 225.155 272.961 244.947 272.726 247.06C272.491 249.172 269.597 250.28 267.289 249.563C264.981 248.846 263.508 242.392 263.508 242.392" stroke="#263238" stroke-linecap="round" stroke-linejoin="round"/>
<path d="M271.292 217.815C271.292 217.815 277.667 213.329 283.339 216.38" stroke="#263238" stroke-width="3" stroke-linecap="round" stroke-linejoin="round"/>
<path d="M254.498 221.752C254.498 221.752 244.693 219.601 240.377 227.137" stroke="#263238" stroke-width="3" stroke-linecap="round" stroke-linejoin="round"/>
<path d="M253.507 230.918C253.859 232.404 253.403 233.813 252.49 234.047C251.577 234.282 250.547 233.278 250.195 231.792C249.843 230.305 250.287 228.91 251.199 228.662C252.112 228.415 253.194 229.432 253.507 230.918Z" fill="#263238" stroke="#263238" stroke-linecap="round" stroke-linejoin="round"/>
<path d="M277.08 224.738C277.432 226.224 276.976 227.619 276.063 227.854C275.151 228.089 274.121 227.085 273.769 225.598C273.417 224.112 273.86 222.717 274.773 222.482C275.685 222.248 276.728 223.252 277.08 224.738Z" fill="#263238" stroke="#263238" stroke-linecap="round" stroke-linejoin="round"/>
<path d="M260.444 258.181C260.444 258.181 272.935 260.515 280.314 252.262" stroke="#858585" stroke-linecap="round" stroke-linejoin="round"/>
<path d="M375.22 405.306C375.22 405.488 375.142 405.71 375.09 405.932C375.142 405.658 375.181 405.436 375.22 405.306Z" stroke="#263238" stroke-linecap="round" stroke-linejoin="round"/>
<path d="M374.868 406.792C364.32 395.123 348.44 403.885 341.973 408.331L338.609 439.206L337.018 445.021C337.018 445.021 325.075 457.798 323.562 460.419C322.055 462.778 320.133 464.845 317.891 466.521C316.117 467.981 312.31 469.129 311.971 470.876C311.632 472.623 317.434 473.483 319.195 472.623C320.955 471.762 325.44 467.108 325.44 467.108L322.637 474.657L345.349 484.54C345.349 484.54 346.653 477.851 347.357 473.783C348.061 469.715 349.144 460.132 349.483 458.385C349.822 456.638 372.6 416.493 375.064 405.984L374.868 406.792Z" fill="white" stroke="#263238" stroke-linecap="round" stroke-linejoin="round"/>
<path d="M206.4 294.48C206.4 294.48 200.454 299.995 199.164 305.523C197.873 311.052 178.146 380.155 173.53 390.625C168.915 401.094 168.132 409.517 170.649 413.585C173.165 417.653 218.617 449.962 218.617 449.962C218.617 449.962 223.454 466.234 224.797 470.302C226.14 474.37 228.604 481.345 228.604 481.345L246.858 472.91C248.617 474.882 250.513 476.729 252.529 478.438C254.811 480.185 257.745 481.046 258.318 479.311C258.892 477.577 255.58 472.623 255.58 472.623C254.634 470.601 254 468.447 253.703 466.234C253.481 463.326 249.244 458.098 247.562 455.477C245.88 452.857 231.916 443.274 231.916 443.274L203.349 398.474L214.575 355.799C214.575 355.799 204.366 306.423 206.4 294.48Z" fill="white" stroke="#263238" stroke-linecap="round" stroke-linejoin="round"/>
<path d="M203.284 398.5L216.218 362.279C216.218 362.279 204.366 306.41 206.4 294.48C206.4 294.48 200.454 299.995 199.164 305.523C197.873 311.052 178.146 380.155 173.53 390.625C168.915 401.094 168.132 409.517 170.649 413.585C173.928 417.99 178.169 421.588 183.048 424.107C185.656 419.048 192.566 407.288 207.482 406.258L203.284 398.5Z" fill="#0EA362" stroke="#263238" stroke-linecap="round" stroke-linejoin="round"/>
<path d="M181.822 396.466C187.506 395.861 193.253 396.557 198.629 398.5" stroke="#263238" stroke-linecap="round" stroke-linejoin="round"/>
<path d="M193.518 393.845C193.518 393.845 200.728 395.879 203.283 398.5" stroke="#263238" stroke-linecap="round" stroke-linejoin="round"/>
<path d="M347.996 444.017C347.996 444.017 331.555 490.055 337.683 514.828C343.811 539.601 349.417 569.732 349.417 569.732H433.867C433.867 569.732 443.346 539.066 442.224 520.682C441.103 502.298 438.886 481.658 438.886 481.658L434.427 428.684H350.226L347.996 444.017Z" fill="#263238" stroke="#263238" stroke-linecap="round" stroke-linejoin="round"/>
<path d="M387.854 489.442C387.854 489.442 401.792 518.987 407.921 542.13C414.049 565.273 413.775 569.433 413.775 569.433" stroke="#858585" stroke-linecap="round" stroke-linejoin="round"/>
<path d="M403.461 514.254C403.461 514.254 418.233 501.438 422.692 486.144" stroke="#858585" stroke-linecap="round" stroke-linejoin="round"/>
<path d="M397.046 304.663L357.475 317.701C367.204 334.678 373.632 353.343 376.42 372.71C381.166 405.032 379.21 437.902 379.21 437.902C379.21 437.902 389.523 444.03 409.029 441.813C428.534 439.597 434.427 428.684 434.427 428.684C434.427 428.684 433.032 374.614 425.783 353.152C418.534 331.691 397.046 304.663 397.046 304.663Z" fill="#0EA362" stroke="#263238" stroke-linecap="round" stroke-linejoin="round"/>
<path d="M338.165 208.622C338.165 208.622 328.608 207.879 324.592 218.675C320.577 229.471 309.272 267.165 311.554 275.457C313.836 283.749 318.843 286.513 320.85 295.562C322.858 304.611 318.308 310.126 318.308 310.126C318.308 310.126 321.828 315.159 330.368 315.406C338.909 315.654 351.725 308.887 360.265 306.866C368.805 304.845 387.646 303.098 399.459 301.338C411.271 299.578 413.801 290.79 413.801 290.79C413.801 290.79 405.756 291.533 405.261 286.513C404.765 281.494 411.284 262.64 408.52 249.576C405.756 236.511 386.916 223.499 378.623 216.915C370.331 210.33 362.547 205.18 353.746 204.854C344.945 204.528 339.665 205.363 338.165 208.622Z" fill="#263238" stroke="#263238" stroke-linecap="round" stroke-linejoin="round"/>
<path d="M333.888 255.86C333.888 255.86 326.352 268.899 327.369 280.477C328.386 292.055 337.174 292.798 338.921 291.286" stroke="#858585" stroke-linecap="round" stroke-linejoin="round"/>
<path d="M382.13 236.772C382.13 236.772 400.215 253.605 402.992 271.441" stroke="#858585" stroke-linecap="round" stroke-linejoin="round"/>
<path d="M355.154 284.688L363.616 307.87C363.616 307.87 381.335 328.497 389.015 325.59C396.694 322.682 389.289 302.029 389.015 299.122C388.741 296.214 386.407 281.911 386.407 281.911C386.407 281.911 381.114 290.386 377.671 290.386C374.229 290.386 355.154 284.688 355.154 284.688Z" fill="white" stroke="#263238" stroke-linecap="round" stroke-linejoin="round"/>
<path d="M348.531 223.76C348.531 223.76 334.71 249.028 334.71 252.444C334.71 255.86 345.336 277.217 348.27 281.429C351.203 285.64 371.4 294.988 375.924 295.249C380.448 295.51 384.96 290.464 386.016 286.474C387.072 282.485 391.596 271.572 391.296 265.509C391.179 263.24 382.991 237.737 380.592 236.407C378.193 235.077 348.531 223.76 348.531 223.76Z" fill="white" stroke="#263238" stroke-linecap="round" stroke-linejoin="round"/>
<path d="M357.579 259.081C357.579 259.081 352.507 256.982 349.535 261.519" stroke="#263238" stroke-linecap="round" stroke-linejoin="round"/>
<path d="M371.022 254.192C371.022 254.192 372.078 248.768 378.363 250.345" stroke="#263238" stroke-linecap="round" stroke-linejoin="round"/>
<path d="M354.424 251.91C354.424 251.91 346.393 251.388 343.994 256.982" stroke="#263238" stroke-linecap="round" stroke-linejoin="round"/>
<path d="M365.324 246.851C365.324 246.851 369.692 240.906 375.755 243.005" stroke="#263238" stroke-linecap="round" stroke-linejoin="round"/>
<path d="M372.6 265.718C372.6 265.718 369.992 269.564 366.081 268.508" stroke="#263238" stroke-linecap="round" stroke-linejoin="round"/>
<path d="M380.11 268.169C380.11 268.169 375.051 275.679 361.074 276.722C361.074 276.722 370.331 283.358 375.742 281.611C381.153 279.864 380.11 268.169 380.11 268.169Z" fill="white" stroke="#263238" stroke-linecap="round" stroke-linejoin="round"/>
<path d="M339.756 265.887C339.756 265.887 335.206 263.801 334.541 269.381C333.876 274.962 345.545 276.904 345.545 276.904L339.756 265.887Z" fill="white" stroke="#263238" stroke-linecap="round" stroke-linejoin="round"/>
<path d="M384.973 245.743C384.957 245.462 385.011 245.183 385.129 244.928C385.247 244.673 385.427 244.452 385.651 244.283C385.875 244.114 386.138 244.003 386.415 243.96C386.693 243.916 386.976 243.942 387.242 244.035C389.471 244.608 393.213 251.297 392.809 255.3C392.405 259.303 389.784 259.381 389.784 259.381L384.973 245.743Z" fill="white" stroke="#263238" stroke-linecap="round" stroke-linejoin="round"/>
<path d="M349.574 307.583C349.574 307.583 318.608 328.236 317.278 331.939C315.948 335.642 338.452 445.503 338.452 445.503C338.452 445.503 308.542 512.742 315.961 524.385C323.38 536.028 356.993 547.15 358.57 549.262C360.148 551.374 373.669 493.419 379.432 471.449C385.195 449.48 394.843 409.765 395.312 390.964C395.782 372.162 388.167 347.285 385.521 339.071C382.874 330.857 378.167 316.645 378.167 316.645L349.574 307.583Z" fill="#A3A3A3" stroke="#263238" stroke-linecap="round" stroke-linejoin="round"/>
<path d="M357.501 294.48C357.501 294.48 379.288 315.511 378.232 316.567C377.176 317.623 364.724 336.124 364.724 336.124L345.675 308.327L357.501 294.48Z" fill="#A3A3A3" stroke="#263238" stroke-linecap="round" stroke-linejoin="round"/>
<path d="M392.705 315.537C392.705 315.537 411.78 338.81 419.72 355.499C427.661 372.189 431.377 401.825 431.377 413.468V435.438C431.377 435.438 439.643 491.033 442.251 500.303C444.858 509.574 449.135 526.771 449.135 526.771C449.135 526.771 452.303 525.715 452.042 514.059C451.782 502.402 447.544 455.034 443.841 436.233C440.138 417.432 438.626 386.283 436.214 380.729L433.828 375.161L462.108 366.947C462.108 366.947 444.467 350.988 438.743 326.528C436.136 315.394 430.334 309.448 426.891 307.062C423.449 304.676 398.285 302.029 394.009 302.303C389.732 302.577 392.705 315.537 392.705 315.537Z" fill="#A3A3A3" stroke="#263238" stroke-linecap="round" stroke-linejoin="round"/>
<path d="M392.704 315.537C392.704 315.537 393.5 312.095 395.09 312.616C396.681 313.138 410.176 320.831 411.506 320.035C412.836 319.24 397.75 300.999 394.843 298.392C393.057 296.774 391.104 295.354 389.015 294.154V299.187L392.704 315.537Z" fill="#A3A3A3" stroke="#263238" stroke-linecap="round" stroke-linejoin="round"/>
<path d="M418.403 315.798C418.403 315.798 427.661 345.708 428.73 358.681Z" fill="white"/>
<path d="M418.403 315.798C418.403 315.798 427.661 345.708 428.73 358.681" stroke="#263238" stroke-linecap="round" stroke-linejoin="round"/>
<path d="M423.684 375.657C423.684 375.657 429.068 354.104 430.359 352.8C431.65 351.497 442.224 346.985 443.085 346.777C443.945 346.568 450.842 351.51 451.912 352.592C452.981 353.674 457.74 356.686 456.879 358.407C456.019 360.128 453.215 358.837 451.664 358.837C450.112 358.837 443.046 363.361 442.615 364.052C442.185 364.744 439.812 370.089 438.951 371.602C438.091 373.114 423.684 375.657 423.684 375.657Z" fill="white" stroke="#263238" stroke-linecap="round" stroke-linejoin="round"/>
<path d="M453.881 354.339C453.881 354.339 451.051 353.205 450.204 353.622C449.356 354.039 439.278 358.733 438.717 359.437C438.156 360.141 437.413 361.289 437.413 361.289" stroke="#263238" stroke-linecap="round" stroke-linejoin="round"/>
<path d="M434.74 358.029C435.693 356.768 436.842 355.667 438.143 354.769C439.851 353.765 445.81 351.497 446.514 351.223C447.643 351.076 448.787 351.076 449.917 351.223" stroke="#263238" stroke-linecap="round" stroke-linejoin="round"/>
<path d="M445.523 348.667C445.523 348.667 434.179 352.774 433.462 353.765L432.758 354.769" stroke="#263238" stroke-linecap="round" stroke-linejoin="round"/>
<path d="M434.544 372.175C434.544 372.175 445.405 364.496 450.19 362.384C454.976 360.271 464.754 364.235 466.606 366.621C468.457 369.007 470.843 380.39 470.517 388.852C470.191 397.313 469.996 401.029 464.168 402.881C459.371 404.193 454.51 405.254 449.604 406.062C448.821 406.323 448.026 390.181 442.993 381.446C437.96 372.71 434.544 372.175 434.544 372.175Z" fill="#A3A3A3" stroke="#263238" stroke-linecap="round" stroke-linejoin="round"/>
<path d="M420.776 377.469C420.776 377.469 423.384 407.653 425.548 411.369C427.712 415.085 432.954 414.276 438.521 412.96C444.088 411.643 452.277 409.778 452.55 407.927C452.824 406.075 452.55 388.369 449.63 380.924C446.709 373.479 441.689 368.225 437.726 369.281C433.762 370.337 420.776 372.971 420.776 377.469Z" fill="#A3A3A3" stroke="#263238" stroke-linecap="round" stroke-linejoin="round"/>
<path d="M396.303 427.171L428.638 399.36L415.065 390.312L389.197 401.733C389.197 401.733 396.095 420.052 396.303 427.171Z" fill="white" stroke="#263238" stroke-linecap="round" stroke-linejoin="round"/>
<path d="M380.579 442.478C380.579 442.478 384.021 442.478 388.767 438.567C393.513 434.655 397.816 432.048 396.525 421.108C395.234 410.169 389.836 393.298 387.255 391.12C384.673 388.943 368.075 391.55 367.697 392.633C367.319 393.715 380.84 413.324 381.922 424.746C383.004 436.168 380.579 442.478 380.579 442.478Z" fill="#A3A3A3" stroke="#263238" stroke-linecap="round" stroke-linejoin="round"/>
<path d="M323.667 332.539C323.667 332.539 321.242 327.897 317.278 331.939C313.314 335.981 311.163 347.416 313.966 361.21C316.77 375.005 324.527 432.778 327.552 439.884C330.577 446.989 333.367 453.678 338.752 453.9C344.137 454.121 361.817 451.735 373.891 447.003C385.964 442.27 385.312 428.032 381.218 415.711C377.124 403.389 369.575 393.285 365.051 390.273C360.526 387.261 358.153 383.375 353.42 374.535C348.687 365.695 337.944 343.322 334.88 340.114" fill="#A3A3A3"/>
<path d="M323.667 332.539C323.667 332.539 321.242 327.897 317.278 331.939C313.314 335.981 311.163 347.416 313.966 361.21C316.77 375.005 324.527 432.778 327.552 439.884C330.577 446.989 333.367 453.678 338.752 453.9C344.137 454.121 361.817 451.735 373.891 447.003C385.964 442.27 385.312 428.032 381.218 415.711C377.124 403.389 369.575 393.285 365.051 390.273C360.526 387.261 358.153 383.375 353.42 374.535C348.687 365.695 337.944 343.322 334.88 340.114" stroke="#263238" stroke-linecap="round" stroke-linejoin="round"/>
<path d="M344.723 413.051C343.676 414.006 342.556 414.878 341.373 415.658" stroke="#263238" stroke-linecap="round" stroke-linejoin="round"/>
<path d="M358.01 394.458C355.149 400.11 351.626 405.402 347.514 410.221" stroke="#263238" stroke-linecap="round" stroke-linejoin="round"/>
<path d="M426.695 380.833C426.695 380.833 395.012 383.845 386.824 383.623C378.636 383.401 366.993 379.099 366.993 379.099C366.993 379.099 352.99 373.284 349.965 371.771C346.94 370.259 339.834 370.259 337.891 371.132C335.949 372.006 331.646 375.435 332.298 377.651C332.95 379.868 335.518 378.29 336.822 377.208C337.884 376.422 339.04 375.774 340.264 375.279L347.162 376.778L348.465 378.512C348.465 378.512 338.987 380.233 337.696 380.885C336.405 381.537 332.741 389.712 332.089 391.446C331.437 393.18 332.089 392.945 333.393 392.945H334.697C334.697 392.945 334.058 396.401 335.349 396.857C336.373 397.048 337.431 396.897 338.361 396.427C338.361 396.427 339.873 397.939 340.525 397.939C343.407 396.668 346.21 395.226 348.922 393.623C350.004 392.972 359.274 394.927 361.647 394.927C364.02 394.927 373.069 394.719 373.069 394.719C373.069 394.719 416.604 407.209 422.432 408.083C428.26 408.957 432.132 408.722 434.284 402.255C436.435 395.788 431.663 381.693 426.695 380.833Z" fill="white" stroke="#263238" stroke-linecap="round" stroke-linejoin="round"/>
<path d="M338.322 396.349C338.322 396.349 344.15 389.829 345.649 389.021C347.119 388.278 348.634 387.629 350.187 387.078" stroke="#263238" stroke-linecap="round" stroke-linejoin="round"/>
<path d="M334.658 392.893L340.694 385.787L347.161 383.193" stroke="#263238" stroke-linecap="round" stroke-linejoin="round"/>
<path d="M180.375 207.201C181.85 208.031 183.389 208.741 184.978 209.327C187.807 210.383 194.887 212.86 198.016 216.406C201.145 219.953 200.141 228.441 200.141 228.441" stroke="#263238" stroke-linecap="round" stroke-linejoin="round"/>
<path d="M139.957 236.642L137.192 242.6" stroke="#263238" stroke-linecap="round" stroke-linejoin="round"/>
<path d="M117.596 217.958C117.596 217.958 115.666 227.085 113.684 229.171C111.702 231.257 108.638 233.734 109.668 238.298C110.698 242.861 116.709 245.717 116.683 246.473C116.657 247.229 105.861 249.302 106.122 252.757C106.383 256.213 109.355 260.359 109.355 260.359C109.355 260.359 101.311 262.966 100.633 267.569C99.9546 272.171 102.693 276.696 102.654 278.404C102.614 280.112 97.7642 283.906 99.2114 286.957C100.659 290.008 104.088 289.565 104.27 290.177C104.453 290.79 102.288 293.215 102.249 294.741C102.301 295.776 102.675 296.77 103.319 297.583H167.532L149.279 202.599L125.106 211.908L117.596 217.958Z" fill="#0EA362" stroke="#263238" stroke-linecap="round" stroke-linejoin="round"/>
<path d="M204.601 433.534C204.601 433.534 217.835 463.666 219.582 471.071C221.329 478.477 222.189 511.399 219.386 524.229C214.366 547.58 199.972 569.719 199.972 569.719H127.036L111.989 499.482L133.959 431.057L204.601 433.534Z" fill="white" stroke="#263238" stroke-linecap="round" stroke-linejoin="round"/>
<path d="M192.501 491.62L186.36 507.513L189.28 569.38" stroke="#263238" stroke-linecap="round" stroke-linejoin="round"/>
<path d="M203.44 413.52C203.44 413.52 216.322 424.485 217.873 428.592C219.425 432.699 220.403 459.884 221.107 464.487C221.811 469.089 218.695 473.535 218.695 473.535L207.56 445.855C207.56 445.855 206.491 433.534 206.256 432.712C206.022 431.891 203.975 425.307 203.975 425.307L203.44 413.52Z" fill="white" stroke="#263238" stroke-linecap="round" stroke-linejoin="round"/>
<path d="M214.079 438.736C214.079 438.736 214.236 443.665 214.705 447.224C215.174 450.784 216.648 457.368 213.597 458.959" fill="white"/>
<path d="M214.079 438.736C214.079 438.736 214.236 443.665 214.705 447.224C215.174 450.784 216.648 457.368 213.597 458.959" stroke="#263238" stroke-linecap="round" stroke-linejoin="round"/>
<path d="M156.71 296.788L174.234 297.335L186.764 297.753L201.328 309.944C201.328 309.944 213.558 370.78 214.562 374.614C215.565 378.447 204.131 407.21 203.283 409.961C202.436 412.712 204.587 433.534 204.587 433.534C204.587 433.534 198.981 438.749 180.831 441.2C162.682 443.652 141.716 435.985 141.716 435.985C141.716 435.985 155.472 399.817 158.418 380.351C158.418 380.351 161.026 342.813 160.126 332.109C159.227 321.404 156.71 296.788 156.71 296.788Z" fill="#0EA362" stroke="#263238" stroke-linecap="round" stroke-linejoin="round"/>
<path d="M200.389 386.831L172.018 401.225" stroke="#263238" stroke-linecap="round" stroke-linejoin="round"/>
<path d="M198.733 391.772L185.578 398.343" stroke="#263238" stroke-linecap="round" stroke-linejoin="round"/>
<path d="M151.874 276.644C151.874 276.644 162.409 313.151 163.778 319.605C165.147 326.059 178.628 333.66 186.908 329.475C195.187 325.29 192.514 317.323 191.119 312.382C189.724 307.44 186.699 297.753 186.699 297.753L189.88 268.116C189.88 268.116 179.893 281.442 176.268 282.941C172.644 284.44 151.874 276.644 151.874 276.644Z" fill="white" stroke="#263238" stroke-linecap="round" stroke-linejoin="round"/>
<path d="M171.587 286.253L185.395 299.578L188.798 270.985L171.587 286.253Z" fill="#263238" stroke="#263238" stroke-linecap="round" stroke-linejoin="round"/>
<path d="M185.89 298.118L185.16 311.208" stroke="#263238" stroke-linecap="round" stroke-linejoin="round"/>
<path d="M186.816 294.741C186.816 294.741 206.373 350.506 208.499 363.101C210.624 375.696 211.106 378.447 211.302 382.841C211.497 387.235 207.951 396.805 207.951 396.805C207.951 396.805 221.785 379.855 221.876 365.031C221.967 350.206 211.915 305.537 207.221 302.825C188.576 292.055 186.816 294.741 186.816 294.741Z" fill="#263238" stroke="#263238" stroke-linecap="round" stroke-linejoin="round"/>
<path d="M204.953 322.265C204.953 322.265 213.519 347.259 212.137 366.021" stroke="#A3A3A3" stroke-linecap="round" stroke-linejoin="round"/>
<path d="M138.705 232.965L147.558 220.435L188.537 262.041C188.537 262.041 186.047 286.357 186.034 287.113C186.021 287.87 188.576 292.055 188.576 292.055C189.338 292.737 190.02 293.502 190.61 294.337C191.523 295.64 190.61 295.64 190.336 297.557C190.063 299.474 191.405 300.412 192.331 301.364C193.735 302.389 195.243 303.263 196.829 303.972C198.133 304.728 196.96 306.436 195.969 308.144C195.161 309.368 194.669 310.773 194.534 312.233C194.4 313.693 194.629 315.164 195.2 316.515C196.816 319.931 197.807 319.357 200.571 322.017C203.336 324.677 199.268 327.154 199.268 327.154C199.268 327.154 201.367 326.58 203.088 326.007C203.472 325.9 203.828 325.712 204.133 325.456C204.438 325.199 204.685 324.881 204.856 324.522C205.028 324.162 205.121 323.77 205.128 323.372C205.136 322.973 205.058 322.578 204.9 322.212C204.17 320.909 202.749 316.515 203.349 315.693C203.948 314.872 209.32 312.277 210.885 310.191C212.449 308.105 210.754 307.714 212.11 306.958C213.466 306.201 216.152 304.493 216.791 301.834C217.43 299.174 214.275 295.94 215.24 294.988C216.204 294.037 219.868 288.195 219.907 286.474C219.946 284.753 217.782 281.872 217.782 281.872C217.782 281.872 219.203 280.738 220.09 275.235C220.976 269.733 216.661 268.012 216.348 264.974C216.035 261.936 220.52 257.751 220.585 247.112C220.65 236.472 203.062 233.239 202.527 231.922C201.993 230.605 202.605 228.493 202.292 225.651C201.98 222.808 195.082 217.828 195.082 217.828C195.082 217.828 195.904 214.985 196.516 213.082C197.129 211.178 196.23 209.47 192.879 206.432C189.528 203.394 173.321 189.143 166.554 187.618C159.788 186.092 148.301 193.511 146.997 194.267C145.693 195.023 134.884 192.377 131.599 195.037C128.313 197.696 127.244 202.247 126.383 204.163C125.523 206.08 122.719 206.067 120.972 207.971C119.225 209.874 116.344 226.394 116.344 226.394" fill="#0EA362"/>
<path d="M138.705 232.965L147.558 220.435L188.537 262.041C188.537 262.041 186.047 286.357 186.034 287.113C186.021 287.87 188.576 292.055 188.576 292.055C189.338 292.737 190.02 293.502 190.61 294.337C191.523 295.64 190.61 295.64 190.336 297.557C190.063 299.474 191.405 300.412 192.331 301.364C193.735 302.389 195.243 303.263 196.829 303.972C198.133 304.728 196.96 306.436 195.969 308.144C195.161 309.368 194.669 310.773 194.534 312.233C194.4 313.693 194.629 315.164 195.2 316.515C196.816 319.931 197.807 319.357 200.571 322.017C203.336 324.677 199.268 327.154 199.268 327.154C199.268 327.154 201.367 326.58 203.088 326.007C203.472 325.9 203.828 325.712 204.133 325.456C204.438 325.199 204.685 324.881 204.856 324.522C205.028 324.162 205.121 323.77 205.128 323.372C205.136 322.973 205.058 322.578 204.9 322.212C204.17 320.909 202.749 316.515 203.349 315.693C203.948 314.872 209.32 312.277 210.885 310.191C212.449 308.105 210.754 307.714 212.11 306.958C213.466 306.201 216.152 304.493 216.791 301.834C217.43 299.174 214.275 295.94 215.24 294.988C216.204 294.037 219.868 288.195 219.907 286.474C219.946 284.753 217.782 281.872 217.782 281.872C217.782 281.872 219.203 280.738 220.09 275.235C220.976 269.733 216.661 268.012 216.348 264.974C216.035 261.936 220.52 257.751 220.585 247.112C220.65 236.472 203.062 233.239 202.527 231.922C201.993 230.605 202.605 228.493 202.292 225.651C201.98 222.808 195.082 217.828 195.082 217.828C195.082 217.828 195.904 214.985 196.516 213.082C197.129 211.178 196.23 209.47 192.879 206.432C189.528 203.394 173.321 189.143 166.554 187.618C159.788 186.092 148.301 193.511 146.997 194.267C145.693 195.023 134.884 192.377 131.599 195.037C128.313 197.696 127.244 202.247 126.383 204.163C125.523 206.08 122.719 206.067 120.972 207.971C119.225 209.874 116.344 226.394 116.344 226.394" stroke="#263238" stroke-linecap="round" stroke-linejoin="round"/>
<path d="M155.576 290.634C155.576 290.634 175.407 360.363 176.281 369.411C177.155 378.46 146.123 437.641 139.774 449.975C133.424 462.31 119.655 499.847 117.426 512.716C115.196 525.585 113.514 540.944 113.514 540.944C113.514 540.944 96.9948 533.003 86.1339 526.145C75.273 519.287 73.5128 515.467 74.3994 514.085C75.286 512.703 79.7842 495.727 79.7842 495.727C79.7842 495.727 70.4488 485.296 71.0225 484.227C71.5962 483.158 92.8226 410.234 92.8226 410.234C92.8226 410.234 98.416 292.955 100.646 292.955C102.875 292.955 155.576 290.634 155.576 290.634Z" fill="#263238" stroke="#263238" stroke-linecap="round" stroke-linejoin="round"/>
<path d="M153.568 323.934L176.281 369.411" stroke="#A3A3A3" stroke-linecap="round" stroke-linejoin="round"/>
<path d="M113.684 293.776C113.684 293.776 97.3209 290.49 94.4785 294.871C91.6362 299.252 66.5374 373.518 64.9988 380.363C63.4603 387.209 110.503 437.902 110.503 437.902L134.728 421.734L106.044 381.446L121.69 323.907" fill="#263238"/>
<path d="M113.684 293.776C113.684 293.776 97.3209 290.49 94.4785 294.871C91.6362 299.252 66.5374 373.518 64.9988 380.363C63.4603 387.209 110.503 437.902 110.503 437.902L134.728 421.734L106.044 381.446L121.69 323.907" stroke="#263238" stroke-linecap="round" stroke-linejoin="round"/>
<path d="M117.648 341.809L105.965 377.912L132.107 417.092" stroke="#A3A3A3" stroke-linecap="round" stroke-linejoin="round"/>
<path d="M120.842 330.479L119.16 335.811" stroke="#A3A3A3" stroke-linecap="round" stroke-linejoin="round"/>
<path d="M132.107 417.093L105.809 439.01L114.597 449.701L142.251 428.319L132.107 417.093Z" fill="white" stroke="#263238" stroke-linecap="round" stroke-linejoin="round"/>
<path d="M140.295 429.414C140.295 429.414 162.187 453.535 164.625 454.63C167.063 455.725 171.874 460.927 173.178 463.392C174.482 465.856 176.333 469.155 178.211 470.524C180.088 471.893 180.336 473.536 177.024 474.357C173.713 475.178 170.701 475.452 168.875 471.619C167.552 468.991 165.957 466.508 164.116 464.213L145.419 478.19C145.419 478.19 141.391 463.392 140.921 460.38C140.452 457.368 139.461 452.44 139.461 452.44L126.879 440.379L140.295 429.414Z" fill="white" stroke="#263238" stroke-linecap="round" stroke-linejoin="round"/>
<path d="M109.642 273.814C109.642 273.814 107.817 285.966 108.86 290.151C109.955 294.584 118.86 293.789 117.035 299.669C116.448 301.56 114.154 303.581 114.871 305.732C115.588 307.883 118.508 308.053 120.086 309.305C123.046 311.599 121.99 314.077 122.994 317.323C123.724 319.67 126.227 320.491 126.905 322.356C127.7 324.559 126.162 325.941 128.613 328.341C132.89 332.526 136.097 333.282 136.671 332.904C137.244 332.526 136.136 331.6 138.835 330.296C141.534 328.992 146.658 326.489 145.811 324.403L144.024 320.244C145.328 323.125 149.162 320.244 150.231 318.692C152.656 315.224 148.927 311.495 149.37 307.74C149.853 303.594 154.585 301.455 155.055 297.309C155.524 293.163 151.313 290.399 152.239 286.631C152.656 284.923 152.89 283.032 152.89 283.032C152.89 283.032 151.587 279.225 149.787 277.895C147.988 276.565 147.297 271.246 147.18 269.342" fill="#0EA362"/>
<path d="M109.642 273.814C109.642 273.814 107.817 285.966 108.86 290.151C109.955 294.584 118.86 293.789 117.035 299.669C116.448 301.56 114.154 303.581 114.871 305.732C115.588 307.883 118.508 308.053 120.086 309.305C123.046 311.599 121.99 314.077 122.994 317.323C123.724 319.67 126.227 320.491 126.905 322.356C127.7 324.559 126.162 325.941 128.613 328.341C132.89 332.526 136.097 333.282 136.671 332.904C137.244 332.526 136.136 331.6 138.835 330.296C141.534 328.992 146.658 326.489 145.811 324.403L144.024 320.244C145.328 323.125 149.162 320.244 150.231 318.692C152.656 315.224 148.927 311.495 149.37 307.74C149.853 303.594 154.585 301.455 155.055 297.309C155.524 293.163 151.313 290.399 152.239 286.631C152.656 284.923 152.89 283.032 152.89 283.032C152.89 283.032 151.587 279.225 149.787 277.895C147.988 276.565 147.297 271.246 147.18 269.342" stroke="#263238" stroke-linecap="round" stroke-linejoin="round"/>
<path d="M143.816 213.642C143.816 213.642 128.456 235.977 129.63 240.697C130.803 245.417 142.525 275.705 146.58 278.704C150.635 281.702 166.737 288.795 172.096 289.017C177.455 289.239 181.379 287.087 183.622 283.437C185.864 279.786 194.365 264.961 194.443 261.741C194.522 258.52 187.65 227.606 186.373 227.176C185.095 226.746 143.816 213.642 143.816 213.642Z" fill="white" stroke="black" stroke-linecap="round" stroke-linejoin="round"/>
<path d="M167.285 237.307C167.285 237.307 166.841 243.265 167.389 245.208C167.937 247.151 172.982 254.139 173.1 255.339C173.217 256.538 171.261 257.725 168.549 258.768" stroke="#263238" stroke-linecap="round" stroke-linejoin="round"/>
<path d="M132.629 249.863C132.629 249.863 129.265 246.864 127.414 250.515C125.562 254.166 126.996 259.107 132.629 263.188C138.261 267.269 139.617 267.256 139.617 267.256L132.629 249.863Z" fill="white" stroke="#263238" stroke-linecap="round" stroke-linejoin="round"/>
<path d="M188.824 234.843C188.824 234.843 191.862 233.33 193.27 237.203C194.678 241.075 192.514 250.945 192.514 250.945L188.824 234.843Z" fill="white" stroke="#263238" stroke-linecap="round" stroke-linejoin="round"/>
<path d="M159.696 266.565C159.696 266.565 169.618 265.822 172.044 264.622C174.469 263.423 178.719 258.52 178.719 258.52C178.719 258.52 178.719 269.277 173.504 271.115C169.749 272.406 159.696 266.565 159.696 266.565Z" fill="white" stroke="#263238" stroke-linecap="round" stroke-linejoin="round"/>
<path d="M143.451 243.122C143.451 243.122 144.181 237.45 154.038 236.407Z" fill="white"/>
<path d="M143.451 243.122C143.451 243.122 144.181 237.45 154.038 236.407" stroke="#263238" stroke-linecap="round" stroke-linejoin="round"/>
<path d="M167.141 232.43C167.141 232.43 173.191 227.215 179.736 233.578Z" fill="white"/>
<path d="M167.141 232.43C167.141 232.43 173.191 227.215 179.736 233.578" stroke="#263238" stroke-linecap="round" stroke-linejoin="round"/>
<path d="M155.681 245.99C156.202 247.737 155.681 249.472 154.377 249.902C153.073 250.332 151.769 249.172 151.248 247.424C150.726 245.677 151.248 243.956 152.552 243.513C153.855 243.07 155.159 244.243 155.681 245.99Z" fill="#263238"/>
<path d="M175.955 240.384C176.477 242.131 175.955 243.852 174.651 244.296C173.347 244.739 172.044 243.578 171.522 241.831C171.001 240.084 171.522 238.35 172.826 237.92C174.13 237.489 175.434 238.637 175.955 240.384Z" fill="#263238"/>
<path d="M594.525 569.719H10.7202" stroke="#263238" stroke-linecap="round" stroke-linejoin="round"/>
<path d="M625.53 569.719H603.821" stroke="#263238" stroke-linecap="round" stroke-linejoin="round"/>
</svg>
