<svg width="542" height="401" viewBox="0 0 542 401" fill="none" xmlns="http://www.w3.org/2000/svg">
<path d="M513.33 251.781C513.006 240.115 513.93 220.219 503.493 212.027C494.324 204.835 487.194 214.596 484.621 222.47C478.387 241.572 481.313 262.635 481.333 282.353C481.333 282.652 481.333 282.951 481.333 283.288C480.846 297.803 479.064 313.505 480.684 327.992C480.684 327.992 479.093 313.477 467.464 319.698C455.836 325.919 473.278 358.564 473.278 358.564C473.278 358.564 459.534 348.719 453.186 357.014C446.838 365.308 461.116 374.63 461.116 374.63C461.116 374.63 447.896 371.006 447.896 374.63C447.896 378.255 452.128 381.365 464.29 382.925H529.848C529.848 382.925 540.428 377.218 538.312 371.006C536.196 364.795 525.082 368.372 525.082 368.372C525.082 368.372 542.01 348.159 540.952 339.351C539.894 330.542 518.21 340.91 518.21 340.91C518.21 340.91 535.129 298.933 531.955 280.28C529.457 265.587 517.819 275.609 511.481 281.289C512.973 271.524 513.592 261.651 513.33 251.781Z" fill="#0EA362" stroke="white" stroke-linecap="round" stroke-linejoin="round"/>
<path opacity="0.5" d="M513.33 251.781C513.006 240.115 513.93 220.219 503.493 212.027C494.324 204.835 487.194 214.596 484.621 222.47C478.387 241.572 481.313 262.635 481.333 282.353C481.333 282.652 481.333 282.951 481.333 283.288C480.846 297.803 479.064 313.505 480.684 327.992C480.684 327.992 479.093 313.477 467.464 319.698C455.836 325.919 473.278 358.564 473.278 358.564C473.278 358.564 459.534 348.719 453.186 357.014C446.838 365.308 461.116 374.63 461.116 374.63C461.116 374.63 447.896 371.006 447.896 374.63C447.896 378.255 452.128 381.365 464.29 382.925H529.848C529.848 382.925 540.428 377.218 538.312 371.006C536.196 364.795 525.082 368.372 525.082 368.372C525.082 368.372 542.01 348.159 540.952 339.351C539.894 330.542 518.21 340.91 518.21 340.91C518.21 340.91 535.129 298.933 531.955 280.28C529.457 265.587 517.819 275.609 511.481 281.289C512.973 271.524 513.592 261.651 513.33 251.781Z" fill="white"/>
<path d="M492.294 382.365L497.06 239.854" stroke="white" stroke-linecap="round" stroke-linejoin="round"/>
<path d="M494.944 322.771L519.792 299.97" stroke="white" stroke-linecap="round" stroke-linejoin="round"/>
<path d="M506.572 312.403L511.862 297.897" stroke="white" stroke-linecap="round" stroke-linejoin="round"/>
<path d="M474.317 340.387L493.352 360.601" stroke="white" stroke-linecap="round" stroke-linejoin="round"/>
<path d="M525.082 351.792L493.352 367.858" stroke="white" stroke-linecap="round" stroke-linejoin="round"/>
<path d="M508.164 361.115L519.792 360.601" stroke="white" stroke-linecap="round" stroke-linejoin="round"/>
<path d="M492.294 382.365L497.06 239.854" stroke="#0EA362" stroke-linecap="round" stroke-linejoin="round"/>
<path d="M494.944 322.771L519.792 299.97" stroke="#0EA362" stroke-linecap="round" stroke-linejoin="round"/>
<path d="M506.572 312.403L511.862 297.897" stroke="#0EA362" stroke-linecap="round" stroke-linejoin="round"/>
<path d="M474.317 340.387L493.352 360.601" stroke="#0EA362" stroke-linecap="round" stroke-linejoin="round"/>
<path d="M525.082 351.792L493.352 367.858" stroke="#0EA362" stroke-linecap="round" stroke-linejoin="round"/>
<path d="M508.164 361.115L519.792 360.601" stroke="#0EA362" stroke-linecap="round" stroke-linejoin="round"/>
<g opacity="0.8">
<path d="M492.294 382.365L497.06 239.854" stroke="white" stroke-linecap="round" stroke-linejoin="round"/>
<path d="M494.944 322.771L519.792 299.97" stroke="white" stroke-linecap="round" stroke-linejoin="round"/>
<path d="M506.572 312.402L511.862 297.896" stroke="white" stroke-linecap="round" stroke-linejoin="round"/>
<path d="M474.317 340.387L493.352 360.601" stroke="white" stroke-linecap="round" stroke-linejoin="round"/>
<path d="M525.082 351.792L493.352 367.858" stroke="white" stroke-linecap="round" stroke-linejoin="round"/>
<path d="M508.164 361.115L519.792 360.601" stroke="white" stroke-linecap="round" stroke-linejoin="round"/>
</g>
<path d="M401.458 353.567C401.458 368.055 413.173 379.805 413.173 379.805C413.173 379.805 424.887 368.055 424.887 353.567C424.887 339.08 413.173 327.329 413.173 327.329C413.173 327.329 401.458 339.07 401.458 353.567Z" fill="#0EA362"/>
<path d="M393.337 375.92C399.056 382.206 408.721 382.888 408.721 382.888C408.721 382.888 409.188 373.37 403.508 367.084C397.827 360.797 388.124 360.115 388.124 360.115C388.124 360.115 387.647 369.634 393.337 375.92Z" fill="#0EA362"/>
<path d="M423.19 366.869C417.214 372.893 417.252 382.421 417.252 382.421C417.252 382.421 426.965 382.169 432.931 376.135C438.898 370.1 438.879 360.582 438.879 360.582C438.879 360.582 429.157 360.834 423.19 366.869Z" fill="#0EA362"/>
<g opacity="0.5">
<path d="M401.458 353.567C401.458 368.055 413.172 379.805 413.172 379.805C413.172 379.805 424.887 368.055 424.887 353.567C424.887 339.08 413.172 327.329 413.172 327.329C413.172 327.329 401.458 339.07 401.458 353.567Z" fill="white"/>
<path d="M413.172 379.805V327.329" stroke="white" stroke-linecap="round" stroke-linejoin="round"/>
<path d="M413.173 345.983L406.615 340.369" stroke="white" stroke-linecap="round" stroke-linejoin="round"/>
<path d="M413.277 354.651L421.398 343.124" stroke="white" stroke-linecap="round" stroke-linejoin="round"/>
<path d="M413.172 359.648L403.488 351.186" stroke="white" stroke-linecap="round" stroke-linejoin="round"/>
<path d="M413.277 366.383L422.857 358.023" stroke="white" stroke-linecap="round" stroke-linejoin="round"/>
<path d="M413.277 372.202L405.776 366.383" stroke="white" stroke-linecap="round" stroke-linejoin="round"/>
<path d="M393.337 375.92C399.056 382.206 408.721 382.888 408.721 382.888C408.721 382.888 409.188 373.37 403.508 367.084C397.827 360.797 388.124 360.115 388.124 360.115C388.124 360.115 387.647 369.634 393.337 375.92Z" fill="white"/>
<path d="M408.721 382.888L388.124 360.115" stroke="white" stroke-linecap="round" stroke-linejoin="round"/>
<path d="M395.444 368.213L390.392 368.251" stroke="white" stroke-linecap="round" stroke-linejoin="round"/>
<path d="M398.894 371.931L397.893 363.87" stroke="white" stroke-linecap="round" stroke-linejoin="round"/>
<path d="M400.81 374.145L393.29 374.117" stroke="white" stroke-linecap="round" stroke-linejoin="round"/>
<path d="M403.498 377.022L404.365 369.783" stroke="white" stroke-linecap="round" stroke-linejoin="round"/>
<path d="M405.786 379.544L400.248 379.852" stroke="white" stroke-linecap="round" stroke-linejoin="round"/>
<path d="M423.19 366.869C417.214 372.893 417.252 382.421 417.252 382.421C417.252 382.421 426.965 382.169 432.931 376.135C438.898 370.1 438.879 360.582 438.879 360.582C438.879 360.582 429.157 360.834 423.19 366.869Z" fill="white"/>
<path d="M417.252 382.421L438.879 360.582" stroke="white" stroke-linecap="round" stroke-linejoin="round"/>
<path d="M431.187 368.344L430.777 363.412" stroke="white" stroke-linecap="round" stroke-linejoin="round"/>
<path d="M427.66 371.996L435.791 370.408" stroke="white" stroke-linecap="round" stroke-linejoin="round"/>
<path d="M425.554 374.033L425.02 366.682" stroke="white" stroke-linecap="round" stroke-linejoin="round"/>
<path d="M422.818 376.873L430.253 377.19" stroke="white" stroke-linecap="round" stroke-linejoin="round"/>
<path d="M420.426 379.292L419.702 373.911" stroke="white" stroke-linecap="round" stroke-linejoin="round"/>
</g>
<path d="M413.173 379.805V327.329" stroke="#0EA362" stroke-linecap="round" stroke-linejoin="round"/>
<path d="M413.173 345.983L406.615 340.369" stroke="#0EA362" stroke-linecap="round" stroke-linejoin="round"/>
<path d="M413.277 354.651L421.398 343.124" stroke="#0EA362" stroke-linecap="round" stroke-linejoin="round"/>
<path d="M413.173 359.648L403.488 351.186" stroke="#0EA362" stroke-linecap="round" stroke-linejoin="round"/>
<path d="M413.277 366.383L422.857 358.023" stroke="#0EA362" stroke-linecap="round" stroke-linejoin="round"/>
<path d="M413.277 372.202L405.776 366.383" stroke="#0EA362" stroke-linecap="round" stroke-linejoin="round"/>
<g opacity="0.7">
<path d="M413.173 379.805V327.329" stroke="white" stroke-linecap="round" stroke-linejoin="round"/>
<path d="M413.173 345.983L406.615 340.369" stroke="white" stroke-linecap="round" stroke-linejoin="round"/>
<path d="M413.277 354.651L421.398 343.124" stroke="white" stroke-linecap="round" stroke-linejoin="round"/>
<path d="M413.173 359.648L403.488 351.186" stroke="white" stroke-linecap="round" stroke-linejoin="round"/>
<path d="M413.277 366.383L422.857 358.023" stroke="white" stroke-linecap="round" stroke-linejoin="round"/>
<path d="M413.277 372.202L405.776 366.383" stroke="white" stroke-linecap="round" stroke-linejoin="round"/>
</g>
<path d="M408.721 382.888L388.124 360.115" stroke="#0EA362" stroke-linecap="round" stroke-linejoin="round"/>
<path d="M395.444 368.213L390.392 368.251" stroke="#0EA362" stroke-linecap="round" stroke-linejoin="round"/>
<path d="M398.894 371.931L397.893 363.87" stroke="#0EA362" stroke-linecap="round" stroke-linejoin="round"/>
<path d="M400.81 374.145L393.29 374.117" stroke="#0EA362" stroke-linecap="round" stroke-linejoin="round"/>
<path d="M403.498 377.022L404.365 369.783" stroke="#0EA362" stroke-linecap="round" stroke-linejoin="round"/>
<path d="M405.786 379.544L400.248 379.852" stroke="#0EA362" stroke-linecap="round" stroke-linejoin="round"/>
<g opacity="0.7">
<path d="M408.721 382.888L388.124 360.115" stroke="white" stroke-linecap="round" stroke-linejoin="round"/>
<path d="M395.444 368.213L390.392 368.251" stroke="white" stroke-linecap="round" stroke-linejoin="round"/>
<path d="M398.894 371.931L397.893 363.87" stroke="white" stroke-linecap="round" stroke-linejoin="round"/>
<path d="M400.81 374.145L393.29 374.117" stroke="white" stroke-linecap="round" stroke-linejoin="round"/>
<path d="M403.498 377.022L404.365 369.783" stroke="white" stroke-linecap="round" stroke-linejoin="round"/>
<path d="M405.786 379.544L400.248 379.852" stroke="white" stroke-linecap="round" stroke-linejoin="round"/>
</g>
<path d="M417.252 382.421L438.879 360.582" stroke="#0EA362" stroke-linecap="round" stroke-linejoin="round"/>
<path d="M431.187 368.344L430.777 363.412" stroke="#0EA362" stroke-linecap="round" stroke-linejoin="round"/>
<path d="M427.66 371.996L435.791 370.408" stroke="#0EA362" stroke-linecap="round" stroke-linejoin="round"/>
<path d="M425.554 374.033L425.02 366.682" stroke="#0EA362" stroke-linecap="round" stroke-linejoin="round"/>
<path d="M422.818 376.873L430.253 377.19" stroke="#0EA362" stroke-linecap="round" stroke-linejoin="round"/>
<path d="M420.426 379.292L419.702 373.911" stroke="#0EA362" stroke-linecap="round" stroke-linejoin="round"/>
<g opacity="0.7">
<path d="M417.252 382.421L438.879 360.582" stroke="white" stroke-linecap="round" stroke-linejoin="round"/>
<path d="M431.187 368.344L430.777 363.412" stroke="white" stroke-linecap="round" stroke-linejoin="round"/>
<path d="M427.66 371.996L435.791 370.408" stroke="white" stroke-linecap="round" stroke-linejoin="round"/>
<path d="M425.554 374.033L425.02 366.681" stroke="white" stroke-linecap="round" stroke-linejoin="round"/>
<path d="M422.818 376.873L430.253 377.19" stroke="white" stroke-linecap="round" stroke-linejoin="round"/>
<path d="M420.426 379.292L419.702 373.912" stroke="white" stroke-linecap="round" stroke-linejoin="round"/>
</g>
<path d="M28.67 251.781C28.9846 240.115 28.0696 220.219 38.5066 212.027C47.6759 204.835 54.8055 214.596 57.3695 222.47C63.6127 241.572 60.677 262.635 60.6674 282.353C60.6674 282.652 60.6674 282.951 60.6674 283.288C61.1631 297.803 62.9359 313.505 61.3251 327.992C61.3251 327.992 62.9074 313.477 74.5454 319.698C86.1834 325.919 68.7216 358.564 68.7216 358.564C68.7216 358.564 82.4756 348.719 88.8236 357.014C95.1716 365.308 80.9124 374.593 80.9124 374.593C80.9124 374.593 94.1327 370.969 94.1327 374.593C94.1327 378.217 89.9007 381.328 77.7384 382.888H12.1519C12.1519 382.888 1.57187 377.18 3.68787 370.969C5.80388 364.757 16.9081 368.372 16.9081 368.372C16.9081 368.372 -0.0103705 348.159 1.04763 339.351C2.10563 330.542 23.7899 340.91 23.7899 340.91C23.7899 340.91 6.86187 298.933 10.0359 280.308C12.5331 265.615 24.1807 275.637 30.5096 281.317C29.0191 271.543 28.4036 261.66 28.67 251.781Z" fill="#0EA362" stroke="white" stroke-linecap="round" stroke-linejoin="round"/>
<path opacity="0.5" d="M28.67 251.781C28.9846 240.115 28.0696 220.219 38.5066 212.027C47.6759 204.835 54.8055 214.596 57.3695 222.47C63.6127 241.572 60.677 262.635 60.6674 282.353C60.6674 282.652 60.6674 282.951 60.6674 283.288C61.1631 297.803 62.9359 313.505 61.3251 327.992C61.3251 327.992 62.9074 313.477 74.5454 319.698C86.1834 325.919 68.7216 358.564 68.7216 358.564C68.7216 358.564 82.4756 348.719 88.8236 357.014C95.1716 365.308 80.9124 374.593 80.9124 374.593C80.9124 374.593 94.1327 370.969 94.1327 374.593C94.1327 378.217 89.9007 381.328 77.7384 382.888H12.1519C12.1519 382.888 1.57187 377.18 3.68787 370.969C5.80388 364.757 16.9081 368.372 16.9081 368.372C16.9081 368.372 -0.0103705 348.159 1.04763 339.351C2.10563 330.542 23.7899 340.91 23.7899 340.91C23.7899 340.91 6.86187 298.933 10.0359 280.308C12.5331 265.615 24.1807 275.637 30.5096 281.317C29.0191 271.543 28.4036 261.66 28.67 251.781Z" fill="white"/>
<path d="M49.6966 382.365L44.9404 239.854" stroke="white" stroke-linecap="round" stroke-linejoin="round"/>
<path d="M47.0564 322.771L22.1981 299.97" stroke="white" stroke-linecap="round" stroke-linejoin="round"/>
<path d="M35.4184 312.403L30.1284 297.897" stroke="white" stroke-linecap="round" stroke-linejoin="round"/>
<path d="M67.6731 340.387L48.6386 360.601" stroke="white" stroke-linecap="round" stroke-linejoin="round"/>
<path d="M16.9081 351.792L48.6386 367.858" stroke="white" stroke-linecap="round" stroke-linejoin="round"/>
<path d="M33.8361 361.115L22.1981 360.601" stroke="white" stroke-linecap="round" stroke-linejoin="round"/>
<path d="M49.6966 382.365L44.9404 239.854" stroke="#0EA362" stroke-linecap="round" stroke-linejoin="round"/>
<path d="M47.0564 322.771L22.1981 299.97" stroke="#0EA362" stroke-linecap="round" stroke-linejoin="round"/>
<path d="M35.4184 312.403L30.1284 297.897" stroke="#0EA362" stroke-linecap="round" stroke-linejoin="round"/>
<path d="M67.6731 340.387L48.6386 360.601" stroke="#0EA362" stroke-linecap="round" stroke-linejoin="round"/>
<path d="M16.9081 351.792L48.6386 367.858" stroke="#0EA362" stroke-linecap="round" stroke-linejoin="round"/>
<path d="M33.8361 361.115L22.1981 360.601" stroke="#0EA362" stroke-linecap="round" stroke-linejoin="round"/>
<g opacity="0.8">
<path d="M49.6966 382.365L44.9404 239.854" stroke="white" stroke-linecap="round" stroke-linejoin="round"/>
<path d="M47.0564 322.771L22.1981 299.97" stroke="white" stroke-linecap="round" stroke-linejoin="round"/>
<path d="M35.4184 312.402L30.1284 297.896" stroke="white" stroke-linecap="round" stroke-linejoin="round"/>
<path d="M67.6731 340.387L48.6386 360.601" stroke="white" stroke-linecap="round" stroke-linejoin="round"/>
<path d="M16.9081 351.792L48.6386 367.858" stroke="white" stroke-linecap="round" stroke-linejoin="round"/>
<path d="M33.8362 361.115L22.1981 360.601" stroke="white" stroke-linecap="round" stroke-linejoin="round"/>
</g>
<path d="M142.448 353.567C142.448 368.055 130.734 379.805 130.734 379.805C130.734 379.805 119.039 368.055 119.039 353.567C119.039 339.08 130.753 327.329 130.753 327.329C130.753 327.329 142.448 339.07 142.448 353.567Z" fill="#0EA362"/>
<path d="M150.559 375.92C144.841 382.206 135.176 382.888 135.176 382.888C135.176 382.888 134.708 373.37 140.399 367.084C146.089 360.797 155.783 360.115 155.783 360.115C155.783 360.115 156.212 369.634 150.559 375.92Z" fill="#0EA362"/>
<path d="M120.716 366.869C126.683 372.893 126.654 382.421 126.654 382.421C126.654 382.421 116.942 382.169 110.965 376.135C104.989 370.1 105.027 360.582 105.027 360.582C105.027 360.582 114.74 360.834 120.716 366.869Z" fill="#0EA362"/>
<g opacity="0.5">
<path d="M142.448 353.567C142.448 368.055 130.734 379.805 130.734 379.805C130.734 379.805 119.039 368.055 119.039 353.567C119.039 339.08 130.753 327.329 130.753 327.329C130.753 327.329 142.448 339.07 142.448 353.567Z" fill="white"/>
<path d="M130.734 379.805V327.329" stroke="white" stroke-linecap="round" stroke-linejoin="round"/>
<path d="M130.734 345.983L137.292 340.369" stroke="white" stroke-linecap="round" stroke-linejoin="round"/>
<path d="M130.629 354.651L122.508 343.124" stroke="white" stroke-linecap="round" stroke-linejoin="round"/>
<path d="M130.734 359.648L140.418 351.186" stroke="white" stroke-linecap="round" stroke-linejoin="round"/>
<path d="M130.629 366.383L121.05 358.023" stroke="white" stroke-linecap="round" stroke-linejoin="round"/>
<path d="M130.629 372.202L138.121 366.383" stroke="white" stroke-linecap="round" stroke-linejoin="round"/>
<path d="M150.559 375.92C144.84 382.206 135.175 382.888 135.175 382.888C135.175 382.888 134.708 373.37 140.399 367.084C146.089 360.797 155.783 360.115 155.783 360.115C155.783 360.115 156.212 369.634 150.559 375.92Z" fill="white"/>
<path d="M135.176 382.888L155.783 360.115" stroke="white" stroke-linecap="round" stroke-linejoin="round"/>
<path d="M148.462 368.213L153.505 368.251" stroke="white" stroke-linecap="round" stroke-linejoin="round"/>
<path d="M145.012 371.931L146.013 363.87" stroke="white" stroke-linecap="round" stroke-linejoin="round"/>
<path d="M143.087 374.145L150.617 374.117" stroke="white" stroke-linecap="round" stroke-linejoin="round"/>
<path d="M140.399 377.022L139.531 369.783" stroke="white" stroke-linecap="round" stroke-linejoin="round"/>
<path d="M138.121 379.544L143.659 379.852" stroke="white" stroke-linecap="round" stroke-linejoin="round"/>
<path d="M120.716 366.869C126.683 372.893 126.654 382.421 126.654 382.421C126.654 382.421 116.942 382.169 110.965 376.135C104.989 370.1 105.027 360.582 105.027 360.582C105.027 360.582 114.74 360.834 120.716 366.869Z" fill="white"/>
<path d="M126.654 382.421L105.027 360.582" stroke="white" stroke-linecap="round" stroke-linejoin="round"/>
<path d="M112.71 368.344L113.129 363.412" stroke="white" stroke-linecap="round" stroke-linejoin="round"/>
<path d="M116.246 371.996L108.115 370.408" stroke="white" stroke-linecap="round" stroke-linejoin="round"/>
<path d="M118.343 374.033L118.886 366.682" stroke="white" stroke-linecap="round" stroke-linejoin="round"/>
<path d="M121.078 376.873L113.644 377.19" stroke="white" stroke-linecap="round" stroke-linejoin="round"/>
<path d="M123.48 379.292L124.195 373.911" stroke="white" stroke-linecap="round" stroke-linejoin="round"/>
</g>
<path d="M130.734 379.805V327.329" stroke="#0EA362" stroke-linecap="round" stroke-linejoin="round"/>
<path d="M130.734 345.983L137.292 340.369" stroke="#0EA362" stroke-linecap="round" stroke-linejoin="round"/>
<path d="M130.629 354.651L122.508 343.124" stroke="#0EA362" stroke-linecap="round" stroke-linejoin="round"/>
<path d="M130.734 359.648L140.418 351.186" stroke="#0EA362" stroke-linecap="round" stroke-linejoin="round"/>
<path d="M130.629 366.383L121.05 358.023" stroke="#0EA362" stroke-linecap="round" stroke-linejoin="round"/>
<path d="M130.629 372.202L138.121 366.383" stroke="#0EA362" stroke-linecap="round" stroke-linejoin="round"/>
<g opacity="0.7">
<path d="M130.734 379.805V327.329" stroke="white" stroke-linecap="round" stroke-linejoin="round"/>
<path d="M130.734 345.983L137.292 340.369" stroke="white" stroke-linecap="round" stroke-linejoin="round"/>
<path d="M130.629 354.651L122.508 343.124" stroke="white" stroke-linecap="round" stroke-linejoin="round"/>
<path d="M130.734 359.648L140.418 351.186" stroke="white" stroke-linecap="round" stroke-linejoin="round"/>
<path d="M130.629 366.383L121.05 358.023" stroke="white" stroke-linecap="round" stroke-linejoin="round"/>
<path d="M130.629 372.202L138.121 366.383" stroke="white" stroke-linecap="round" stroke-linejoin="round"/>
</g>
<path d="M135.176 382.888L155.783 360.115" stroke="#0EA362" stroke-linecap="round" stroke-linejoin="round"/>
<path d="M148.462 368.213L153.505 368.251" stroke="#0EA362" stroke-linecap="round" stroke-linejoin="round"/>
<path d="M145.012 371.931L146.013 363.87" stroke="#0EA362" stroke-linecap="round" stroke-linejoin="round"/>
<path d="M143.087 374.145L150.617 374.117" stroke="#0EA362" stroke-linecap="round" stroke-linejoin="round"/>
<path d="M140.399 377.022L139.531 369.783" stroke="#0EA362" stroke-linecap="round" stroke-linejoin="round"/>
<path d="M138.121 379.544L143.659 379.852" stroke="#0EA362" stroke-linecap="round" stroke-linejoin="round"/>
<g opacity="0.7">
<path d="M135.176 382.888L155.783 360.115" stroke="white" stroke-linecap="round" stroke-linejoin="round"/>
<path d="M148.462 368.213L153.505 368.251" stroke="white" stroke-linecap="round" stroke-linejoin="round"/>
<path d="M145.012 371.931L146.013 363.87" stroke="white" stroke-linecap="round" stroke-linejoin="round"/>
<path d="M143.087 374.145L150.617 374.117" stroke="white" stroke-linecap="round" stroke-linejoin="round"/>
<path d="M140.399 377.022L139.531 369.783" stroke="white" stroke-linecap="round" stroke-linejoin="round"/>
<path d="M138.121 379.544L143.659 379.852" stroke="white" stroke-linecap="round" stroke-linejoin="round"/>
</g>
<path d="M126.654 382.421L105.027 360.582" stroke="#0EA362" stroke-linecap="round" stroke-linejoin="round"/>
<path d="M112.71 368.344L113.129 363.412" stroke="#0EA362" stroke-linecap="round" stroke-linejoin="round"/>
<path d="M116.246 371.996L108.115 370.408" stroke="#0EA362" stroke-linecap="round" stroke-linejoin="round"/>
<path d="M118.343 374.033L118.886 366.682" stroke="#0EA362" stroke-linecap="round" stroke-linejoin="round"/>
<path d="M121.078 376.873L113.644 377.19" stroke="#0EA362" stroke-linecap="round" stroke-linejoin="round"/>
<path d="M123.48 379.292L124.195 373.911" stroke="#0EA362" stroke-linecap="round" stroke-linejoin="round"/>
<g opacity="0.7">
<path d="M126.654 382.421L105.027 360.582" stroke="white" stroke-linecap="round" stroke-linejoin="round"/>
<path d="M112.71 368.344L113.129 363.412" stroke="white" stroke-linecap="round" stroke-linejoin="round"/>
<path d="M116.246 371.996L108.115 370.408" stroke="white" stroke-linecap="round" stroke-linejoin="round"/>
<path d="M118.343 374.033L118.886 366.681" stroke="white" stroke-linecap="round" stroke-linejoin="round"/>
<path d="M121.078 376.873L113.644 377.19" stroke="white" stroke-linecap="round" stroke-linejoin="round"/>
<path d="M123.48 379.292L124.195 373.912" stroke="white" stroke-linecap="round" stroke-linejoin="round"/>
</g>
<path d="M406.3 105.281H148.634C148.557 105.282 148.48 105.269 148.409 105.241C148.337 105.212 148.272 105.171 148.217 105.118C148.162 105.065 148.118 105.001 148.088 104.932C148.058 104.862 148.043 104.787 148.043 104.711C148.043 104.558 148.105 104.411 148.216 104.302C148.327 104.193 148.477 104.132 148.634 104.132H406.3C406.377 104.132 406.454 104.147 406.525 104.177C406.596 104.206 406.661 104.249 406.715 104.303C406.769 104.356 406.812 104.42 406.84 104.491C406.869 104.561 406.883 104.636 406.882 104.711C406.882 104.863 406.82 105.007 406.711 105.114C406.602 105.221 406.455 105.281 406.3 105.281Z" fill="#0EA362"/>
<g opacity="0.3">
<path d="M406.3 105.281H148.634C148.557 105.282 148.48 105.269 148.409 105.241C148.337 105.212 148.272 105.171 148.217 105.118C148.162 105.065 148.118 105.001 148.088 104.932C148.058 104.862 148.043 104.787 148.043 104.711C148.043 104.558 148.105 104.411 148.216 104.302C148.327 104.193 148.477 104.132 148.634 104.132H406.3C406.377 104.132 406.454 104.147 406.525 104.177C406.596 104.206 406.661 104.249 406.715 104.303C406.769 104.356 406.812 104.42 406.84 104.491C406.869 104.561 406.883 104.636 406.882 104.711C406.882 104.863 406.82 105.007 406.711 105.114C406.602 105.221 406.455 105.281 406.3 105.281Z" fill="white"/>
</g>
<path d="M405.786 205.433H148.119C148.042 205.434 147.966 205.42 147.894 205.392C147.822 205.364 147.757 205.322 147.702 205.269C147.647 205.216 147.603 205.153 147.574 205.083C147.544 205.014 147.528 204.939 147.528 204.863C147.528 204.709 147.591 204.562 147.702 204.454C147.812 204.345 147.963 204.284 148.119 204.284H405.786C405.863 204.284 405.939 204.299 406.01 204.328C406.082 204.357 406.146 204.4 406.2 204.454C406.254 204.508 406.297 204.572 406.326 204.642C406.354 204.712 406.368 204.787 406.367 204.863C406.367 204.938 406.352 205.012 406.323 205.081C406.294 205.15 406.251 205.213 406.197 205.266C406.143 205.319 406.079 205.361 406.008 205.389C405.938 205.418 405.862 205.433 405.786 205.433Z" fill="#0EA362"/>
<g opacity="0.3">
<path d="M405.786 205.433H148.119C148.042 205.434 147.966 205.42 147.894 205.392C147.822 205.364 147.757 205.322 147.702 205.269C147.647 205.216 147.603 205.153 147.574 205.083C147.544 205.014 147.528 204.939 147.528 204.863C147.528 204.709 147.591 204.562 147.702 204.454C147.812 204.345 147.963 204.284 148.119 204.284H405.786C405.863 204.284 405.939 204.299 406.01 204.328C406.082 204.357 406.146 204.4 406.2 204.454C406.254 204.508 406.297 204.572 406.326 204.642C406.354 204.712 406.368 204.787 406.367 204.863C406.367 204.938 406.352 205.012 406.323 205.081C406.294 205.15 406.251 205.213 406.197 205.266C406.143 205.319 406.079 205.361 406.008 205.389C405.938 205.418 405.862 205.433 405.786 205.433Z" fill="white"/>
</g>
<path d="M405.786 287.304H148.119C147.963 287.304 147.812 287.243 147.702 287.134C147.591 287.026 147.528 286.878 147.528 286.725C147.528 286.649 147.544 286.574 147.574 286.505C147.603 286.435 147.647 286.372 147.702 286.319C147.757 286.266 147.822 286.224 147.894 286.196C147.966 286.168 148.042 286.154 148.119 286.155H405.786C405.862 286.155 405.938 286.17 406.008 286.198C406.079 286.227 406.143 286.269 406.197 286.322C406.251 286.375 406.294 286.438 406.323 286.507C406.352 286.576 406.367 286.65 406.367 286.725C406.368 286.8 406.354 286.876 406.326 286.946C406.297 287.016 406.254 287.08 406.2 287.134C406.146 287.188 406.082 287.231 406.01 287.26C405.939 287.289 405.863 287.304 405.786 287.304Z" fill="#0EA362"/>
<g opacity="0.3">
<path d="M405.786 287.304H148.119C147.963 287.304 147.812 287.243 147.702 287.134C147.591 287.026 147.528 286.878 147.528 286.725C147.528 286.649 147.544 286.574 147.574 286.505C147.603 286.435 147.647 286.372 147.702 286.319C147.757 286.266 147.822 286.224 147.894 286.196C147.966 286.168 148.042 286.154 148.119 286.155H405.786C405.862 286.155 405.938 286.17 406.008 286.198C406.079 286.227 406.143 286.269 406.197 286.322C406.251 286.375 406.294 286.438 406.323 286.507C406.352 286.576 406.367 286.65 406.367 286.725C406.368 286.8 406.354 286.876 406.326 286.946C406.297 287.016 406.254 287.08 406.2 287.134C406.146 287.188 406.082 287.231 406.01 287.26C405.939 287.289 405.863 287.304 405.786 287.304Z" fill="white"/>
</g>
<path d="M202.897 301.157V386.363" stroke="#263238" stroke-width="0.265171" stroke-miterlimit="10"/>
<path d="M215.317 301.157V386.363" stroke="#263238" stroke-width="0.265171" stroke-miterlimit="10"/>
<path d="M227.736 301.157V386.363" stroke="#263238" stroke-width="0.265171" stroke-miterlimit="10"/>
<path d="M240.156 301.157V386.363" stroke="#263238" stroke-width="0.265171" stroke-miterlimit="10"/>
<path d="M252.576 301.157V386.363" stroke="#263238" stroke-width="0.265171" stroke-miterlimit="10"/>
<path d="M264.995 301.157V386.363" stroke="#263238" stroke-width="0.265171" stroke-miterlimit="10"/>
<path d="M277.415 301.157V386.363" stroke="#263238" stroke-width="0.265171" stroke-miterlimit="10"/>
<path d="M289.834 301.157V386.363" stroke="#263238" stroke-width="0.265171" stroke-miterlimit="10"/>
<path d="M302.254 301.157V386.363" stroke="#263238" stroke-width="0.265171" stroke-miterlimit="10"/>
<path d="M314.674 301.157V386.363" stroke="#263238" stroke-width="0.265171" stroke-miterlimit="10"/>
<path d="M327.093 301.157V386.363" stroke="#263238" stroke-width="0.265171" stroke-miterlimit="10"/>
<path d="M339.513 301.157V386.363" stroke="#263238" stroke-width="0.265171" stroke-miterlimit="10"/>
<path d="M203.517 309.068H338.893" stroke="#263238" stroke-width="0.265171" stroke-miterlimit="10"/>
<path d="M203.517 320.631H338.893" stroke="#263238" stroke-width="0.265171" stroke-miterlimit="10"/>
<path d="M203.517 332.196H338.893" stroke="#263238" stroke-width="0.265171" stroke-miterlimit="10"/>
<path d="M203.517 343.759H338.893" stroke="#263238" stroke-width="0.265171" stroke-miterlimit="10"/>
<path d="M203.517 355.323H338.893" stroke="#263238" stroke-width="0.265171" stroke-miterlimit="10"/>
<path d="M203.517 366.887H338.893" stroke="#263238" stroke-width="0.265171" stroke-miterlimit="10"/>
<path d="M203.517 378.451H338.893" stroke="#263238" stroke-width="0.265171" stroke-miterlimit="10"/>
<path d="M231.959 331.047L213.792 385.933H251.842L233.665 331.047C233.607 330.87 233.493 330.715 233.34 330.606C233.186 330.496 233.002 330.437 232.812 330.437C232.622 330.437 232.437 330.496 232.284 330.606C232.131 330.715 232.017 330.87 231.959 331.047Z" fill="#0EA362" stroke="#263238" stroke-width="1.06068" stroke-miterlimit="10"/>
<path d="M266.596 312.869L242.415 385.932H292.513L268.303 312.869C268.245 312.692 268.131 312.538 267.977 312.428C267.824 312.319 267.639 312.26 267.449 312.26C267.26 312.26 267.075 312.319 266.922 312.428C266.768 312.538 266.654 312.692 266.596 312.869Z" fill="#263238" stroke="#263238" stroke-width="1.06068" stroke-miterlimit="10"/>
<path d="M298.47 343.601L284.449 385.933H314.187L300.138 343.601C300.072 343.437 299.957 343.296 299.809 343.196C299.66 343.097 299.484 343.044 299.304 343.044C299.124 343.044 298.948 343.097 298.799 343.196C298.65 343.296 298.536 343.437 298.47 343.601Z" fill="#0EA362" stroke="#263238" stroke-width="1.06068" stroke-miterlimit="10"/>
<path d="M317.676 358.135L308.478 385.933H328.58L319.382 358.135C319.324 357.958 319.21 357.803 319.057 357.694C318.904 357.584 318.719 357.525 318.529 357.525C318.339 357.525 318.154 357.584 318.001 357.694C317.848 357.803 317.734 357.958 317.676 358.135Z" fill="#263238" stroke="#263238" stroke-width="1.06068" stroke-miterlimit="10"/>
<path d="M201.258 274.227C195.808 274.227 190.48 272.643 185.949 269.676C181.417 266.709 177.885 262.491 175.8 257.557C173.714 252.623 173.168 247.193 174.232 241.955C175.295 236.717 177.919 231.905 181.773 228.128C185.627 224.352 190.537 221.78 195.882 220.738C201.227 219.696 206.768 220.231 211.803 222.275C216.838 224.318 221.142 227.78 224.169 232.22C227.197 236.661 228.813 241.882 228.813 247.223C228.806 254.383 225.9 261.247 220.734 266.31C215.568 271.372 208.564 274.22 201.258 274.227ZM201.258 228.149C197.409 228.151 193.647 229.271 190.447 231.368C187.248 233.465 184.754 236.445 183.283 239.93C181.811 243.416 181.427 247.251 182.179 250.95C182.931 254.649 184.786 258.047 187.508 260.714C190.23 263.38 193.698 265.196 197.474 265.931C201.249 266.666 205.162 266.288 208.718 264.844C212.274 263.4 215.313 260.955 217.451 257.819C219.589 254.682 220.731 250.995 220.731 247.223C220.726 242.164 218.672 237.314 215.021 233.738C211.37 230.162 206.42 228.152 201.258 228.149Z" fill="#263238" stroke="#263238" stroke-width="1.06068" stroke-miterlimit="10"/>
<path d="M201.258 274.227C197.539 274.238 193.857 273.506 190.436 272.075C187.016 270.644 183.929 268.544 181.365 265.904L187.208 260.421C189.019 262.286 191.198 263.77 193.614 264.78C196.03 265.79 198.631 266.306 201.258 266.297C203.814 266.297 206.345 265.803 208.706 264.845C211.067 263.886 213.213 262.481 215.02 260.71C216.828 258.939 218.261 256.836 219.24 254.522C220.218 252.208 220.721 249.728 220.721 247.223C220.721 244.718 220.218 242.238 219.24 239.924C218.261 237.61 216.828 235.507 215.02 233.736C213.213 231.965 211.067 230.56 208.706 229.601C206.345 228.643 203.814 228.149 201.258 228.149V220.219C204.876 220.219 208.46 220.917 211.803 222.275C215.146 223.632 218.184 225.621 220.743 228.128C223.301 230.636 225.331 233.613 226.716 236.889C228.101 240.165 228.813 243.677 228.813 247.223C228.813 250.769 228.101 254.281 226.716 257.557C225.331 260.833 223.301 263.81 220.743 266.318C218.184 268.825 215.146 270.814 211.803 272.171C208.46 273.529 204.876 274.227 201.258 274.227Z" fill="#0EA362" stroke="#263238" stroke-width="1.06068" stroke-miterlimit="10"/>
<path d="M269.218 274.227C263.767 274.229 258.439 272.647 253.906 269.681C249.373 266.714 245.84 262.498 243.753 257.563C241.666 252.629 241.119 247.199 242.181 241.961C243.243 236.722 245.867 231.909 249.72 228.132C253.573 224.354 258.483 221.781 263.829 220.739C269.174 219.696 274.715 220.23 279.751 222.274C284.787 224.317 289.091 227.778 292.119 232.219C295.147 236.66 296.764 241.882 296.764 247.223C296.756 254.381 293.852 261.244 288.688 266.306C283.524 271.369 276.522 274.217 269.218 274.227ZM269.218 228.149C265.369 228.153 261.608 229.275 258.41 231.373C255.211 233.471 252.72 236.451 251.249 239.937C249.779 243.422 249.396 247.257 250.15 250.956C250.903 254.654 252.758 258.051 255.481 260.717C258.204 263.382 261.672 265.197 265.447 265.932C269.222 266.666 273.134 266.287 276.689 264.843C280.245 263.399 283.283 260.954 285.421 257.818C287.559 254.682 288.7 250.995 288.7 247.223C288.693 242.163 286.637 237.313 282.984 233.737C279.332 230.161 274.381 228.152 269.218 228.149Z" fill="#263238" stroke="#263238" stroke-width="1.06068" stroke-miterlimit="10"/>
<path d="M279.941 272.097L276.795 264.802C280.929 263.085 284.33 260.021 286.423 256.129C288.516 252.237 289.172 247.755 288.281 243.443C287.389 239.131 285.005 235.253 281.531 232.466C278.057 229.679 273.707 228.154 269.218 228.149V220.219C275.576 220.22 281.738 222.375 286.66 226.32C291.581 230.264 294.96 235.755 296.222 241.862C297.484 247.969 296.553 254.315 293.585 259.826C290.618 265.337 285.797 269.672 279.941 272.097Z" fill="#0EA362" stroke="#263238" stroke-width="1.06068" stroke-miterlimit="10"/>
<path d="M337.168 274.227C331.718 274.227 326.39 272.643 321.859 269.676C317.327 266.709 313.796 262.491 311.71 257.557C309.624 252.623 309.079 247.193 310.142 241.955C311.205 236.717 313.829 231.905 317.683 228.128C321.537 224.352 326.447 221.78 331.792 220.738C337.137 219.696 342.678 220.231 347.713 222.275C352.748 224.318 357.052 227.78 360.08 232.22C363.108 236.661 364.724 241.882 364.724 247.223C364.716 254.383 361.811 261.247 356.644 266.31C351.478 271.372 344.474 274.22 337.168 274.227ZM337.168 228.149C333.319 228.149 329.555 229.268 326.355 231.364C323.154 233.46 320.659 236.439 319.186 239.924C317.713 243.409 317.328 247.244 318.079 250.944C318.83 254.644 320.683 258.043 323.405 260.71C326.127 263.378 329.595 265.194 333.371 265.93C337.146 266.666 341.06 266.289 344.616 264.845C348.173 263.401 351.213 260.957 353.351 257.82C355.49 254.683 356.631 250.995 356.631 247.223C356.626 242.166 354.574 237.317 350.925 233.741C347.276 230.165 342.328 228.154 337.168 228.149Z" fill="#263238" stroke="#263238" stroke-width="1.06068" stroke-miterlimit="10"/>
<path d="M356.25 243.421C355.346 239.117 352.957 235.25 349.486 232.468C346.014 229.687 341.671 228.162 337.187 228.149V220.219C343.538 220.235 349.689 222.393 354.607 226.331C359.525 230.269 362.909 235.747 364.19 241.843L356.25 243.421Z" fill="#0EA362" stroke="#263238" stroke-width="1.06068" stroke-miterlimit="10"/>
<path d="M212.248 190.32H341.657" stroke="#263238" stroke-width="1.06068" stroke-miterlimit="10"/>
<path d="M212.248 190.319V187.62" stroke="#263238" stroke-width="1.06068" stroke-miterlimit="10"/>
<path d="M238.126 190.319V187.62" stroke="#263238" stroke-width="1.06068" stroke-miterlimit="10"/>
<path d="M264.013 190.319V187.62" stroke="#263238" stroke-width="1.06068" stroke-miterlimit="10"/>
<path d="M289.892 190.319V187.62" stroke="#263238" stroke-width="1.06068" stroke-miterlimit="10"/>
<path d="M315.77 190.319V187.62" stroke="#263238" stroke-width="1.06068" stroke-miterlimit="10"/>
<path d="M341.657 190.319V187.62" stroke="#263238" stroke-width="1.06068" stroke-miterlimit="10"/>
<path d="M234.504 154.274H215.87V175.897H234.504V154.274Z" fill="#0EA362" stroke="#263238" stroke-width="1.06068" stroke-miterlimit="10"/>
<path d="M260.382 129.044H241.748V179.503H260.382V129.044Z" fill="#0EA362" stroke="#263238" stroke-width="1.06068" stroke-miterlimit="10"/>
<path d="M286.27 93.7273H267.635V149.958H286.27V93.7273Z" fill="#0EA362" stroke="#263238" stroke-width="1.06068" stroke-miterlimit="10"/>
<path d="M312.148 146.353H293.513V157.169H312.148V146.353Z" fill="#0EA362" stroke="#263238" stroke-width="1.06068" stroke-miterlimit="10"/>
<path d="M338.026 139.861H319.392V167.977H338.026V139.861Z" fill="#0EA362" stroke="#263238" stroke-width="1.06068" stroke-miterlimit="10"/>
<path d="M234.504 175.907H215.87V190.329H234.504V175.907Z" fill="#263238" stroke="#263238" stroke-width="1.06068" stroke-miterlimit="10"/>
<path d="M260.382 179.512H241.748V190.329H260.382V179.512Z" fill="#263238" stroke="#263238" stroke-width="1.06068" stroke-miterlimit="10"/>
<path d="M286.27 149.949H267.635V190.319H286.27V149.949Z" fill="#263238" stroke="#263238" stroke-width="1.06068" stroke-miterlimit="10"/>
<path d="M312.148 157.16H293.513V190.319H312.148V157.16Z" fill="#263238" stroke="#263238" stroke-width="1.06068" stroke-miterlimit="10"/>
<path d="M338.026 167.977H319.392V190.32H338.026V167.977Z" fill="#263238" stroke="#263238" stroke-width="1.06068" stroke-miterlimit="10"/>
<path d="M376.142 83.5178C375.918 83.5193 375.698 83.4664 375.5 83.3637C375.302 83.261 375.133 83.1117 375.008 82.9293L334.919 25.6333L294.247 68.1336L252.719 41.606L212.543 50.7412L171.739 83.2189C171.455 83.4443 171.093 83.5503 170.73 83.5135C170.367 83.4767 170.034 83.3002 169.804 83.0227C169.574 82.7453 169.465 82.3896 169.503 82.034C169.541 81.6784 169.721 81.352 170.004 81.1265L211.304 48.2566L253.243 38.7197L293.828 64.6495L335.262 21.3459L377.277 81.4068C377.419 81.6083 377.503 81.8442 377.518 82.0889C377.534 82.3337 377.481 82.5779 377.365 82.7952C377.249 83.0126 377.075 83.1948 376.861 83.3221C376.647 83.4495 376.402 83.5171 376.152 83.5178H376.142Z" fill="#263238"/>
<path d="M174.322 82.1725C174.322 82.8321 174.122 83.4768 173.748 84.0252C173.374 84.5735 172.843 85.0009 172.221 85.2533C171.599 85.5057 170.915 85.5718 170.255 85.4431C169.595 85.3144 168.989 84.9968 168.513 84.5305C168.037 84.0641 167.713 83.4699 167.581 82.8231C167.45 82.1762 167.518 81.5057 167.775 80.8964C168.033 80.2871 168.469 79.7663 169.028 79.3999C169.588 79.0335 170.246 78.8379 170.919 78.8379C171.821 78.8379 172.687 79.1892 173.325 79.8146C173.963 80.4399 174.322 81.2881 174.322 82.1725Z" fill="#0EA362"/>
<path d="M211.924 52.8333C213.803 52.8333 215.326 51.3404 215.326 49.4987C215.326 47.657 213.803 46.1641 211.924 46.1641C210.044 46.1641 208.521 47.657 208.521 49.4987C208.521 51.3404 210.044 52.8333 211.924 52.8333Z" fill="#0EA362"/>
<path d="M252.976 43.4925C254.855 43.4925 256.379 41.9995 256.379 40.1579C256.379 38.3162 254.855 36.8232 252.976 36.8232C251.097 36.8232 249.573 38.3162 249.573 40.1579C249.573 41.9995 251.097 43.4925 252.976 43.4925Z" fill="#0EA362"/>
<path d="M294.028 69.7213C295.908 69.7213 297.431 68.2283 297.431 66.3866C297.431 64.545 295.908 63.052 294.028 63.052C292.149 63.052 290.626 64.545 290.626 66.3866C290.626 68.2283 292.149 69.7213 294.028 69.7213Z" fill="#0EA362"/>
<path d="M338.483 23.4943C338.483 24.1538 338.284 24.7986 337.91 25.3469C337.536 25.8953 337.005 26.3227 336.383 26.5751C335.761 26.8275 335.077 26.8935 334.417 26.7649C333.757 26.6362 333.15 26.3186 332.674 25.8523C332.199 25.3859 331.874 24.7917 331.743 24.1449C331.612 23.498 331.679 22.8275 331.937 22.2182C332.194 21.6089 332.63 21.0881 333.19 20.7217C333.75 20.3552 334.408 20.1597 335.081 20.1597C335.983 20.1597 336.849 20.511 337.487 21.1364C338.125 21.7617 338.483 22.6099 338.483 23.4943Z" fill="#0EA362"/>
<path d="M379.536 82.1725C379.536 82.8321 379.336 83.4768 378.962 84.0252C378.588 84.5735 378.057 85.0009 377.435 85.2533C376.813 85.5057 376.129 85.5718 375.469 85.4431C374.809 85.3144 374.203 84.9968 373.727 84.5305C373.251 84.0641 372.927 83.4699 372.796 82.8231C372.664 82.1762 372.732 81.5057 372.989 80.8964C373.247 80.2871 373.683 79.7663 374.243 79.3999C374.802 79.0335 375.46 78.8379 376.133 78.8379C377.035 78.8379 377.901 79.1892 378.539 79.8146C379.177 80.4399 379.536 81.2881 379.536 82.1725Z" fill="#0EA362"/>
<path d="M449.516 400C485.849 400 515.303 396.123 515.303 391.341C515.303 386.559 485.849 382.682 449.516 382.682C413.183 382.682 383.73 386.559 383.73 391.341C383.73 396.123 413.183 400 449.516 400Z" fill="#0EA362"/>
<path opacity="0.7" d="M449.516 400C485.849 400 515.303 396.123 515.303 391.341C515.303 386.559 485.849 382.682 449.516 382.682C413.183 382.682 383.73 386.559 383.73 391.341C383.73 396.123 413.183 400 449.516 400Z" fill="white"/>
<path d="M89.0905 400C122.618 400 149.797 396.123 149.797 391.341C149.797 386.559 122.618 382.682 89.0905 382.682C55.5633 382.682 28.3841 386.559 28.3841 391.341C28.3841 396.123 55.5633 400 89.0905 400Z" fill="#0EA362"/>
<path opacity="0.7" d="M89.0905 400C122.618 400 149.797 396.123 149.797 391.341C149.797 386.559 122.618 382.682 89.0905 382.682C55.5633 382.682 28.3841 386.559 28.3841 391.341C28.3841 396.123 55.5633 400 89.0905 400Z" fill="white"/>
<path d="M430.949 86.3013C430.949 86.3013 455.941 83.9288 457.37 88.0107C458.8 92.0926 458.323 101.415 458.323 101.415C459.582 101.735 460.81 102.164 461.993 102.694C462.327 103.012 466.025 105.384 462.574 109.279C461.673 110.267 460.582 111.07 459.362 111.643C457.841 112.303 456.394 113.117 455.045 114.071L450.031 119.648L450.984 126.831C450.984 126.831 453.224 128.419 455.96 133.958C455.96 133.958 462.422 137.694 466.216 139.814C469.335 141.421 472.58 142.782 475.919 143.887C475.919 143.887 477.653 144.438 477.529 145.662C477.406 146.885 468.894 174.618 468.894 174.618L464.414 188.629C464.329 190.351 464.1 192.063 463.728 193.748C463.089 196.765 460.687 198.745 458.2 198.128L458.447 208.403C458.447 208.403 446.762 214.129 427.489 213.158C427.489 213.158 418.415 212.298 411.705 207.432L411.581 183.426L380.66 177.56C380.66 177.56 376.743 176.748 378.754 173.291C380.765 169.835 387.523 161.261 387.523 161.261L409.245 135.219C409.245 135.219 410.742 133.491 411.295 132.94C411.848 132.388 413.201 132.005 418.567 131.566C423.934 131.127 429.948 130.109 429.948 130.109C429.948 130.109 433.208 127.363 433.675 127.363C434.142 127.363 434.237 123.253 434.237 123.253C432.589 122.087 431.218 120.585 430.219 118.85C429.22 117.115 428.617 115.188 428.452 113.203C427.984 106.533 430.968 90.9063 430.968 90.9063L430.949 86.3013Z" fill="white"/>
<path d="M412.086 207.338C412.086 207.338 409.455 245.635 409.455 263.961C409.455 282.288 410.628 297.13 411.209 310.002C411.79 322.873 409.455 331.738 411.495 341.172C413.535 350.606 418.215 378.068 418.215 378.068L423.714 381.318C423.714 381.318 424.668 359.47 426.669 351.755C428.671 344.039 429.3 311.431 430.482 301.418C431.664 291.404 435.448 255.947 435.448 255.947C435.448 255.947 450.041 293.123 453.558 307.713C457.075 322.303 469.027 355.183 471.668 363.188C474.308 371.193 478.378 383.055 478.378 383.055C479.615 383.41 480.914 383.505 482.19 383.336C482.742 383.292 483.273 383.112 483.733 382.811C484.194 382.51 484.568 382.099 484.821 381.617C484.821 381.617 480.942 357.667 479.236 346.029C477.129 331.635 473.698 310.002 471.61 301.997C469.523 293.992 466.359 281.4 466.359 275.394C466.359 269.388 458.485 209.075 458.485 209.075C458.485 209.075 431.054 220.779 412.086 207.338Z" fill="#263238"/>
<path d="M435.429 255.947L423.724 242.571" stroke="white" stroke-width="0.530341" stroke-miterlimit="10" stroke-linecap="round"/>
<path d="M420.731 243.552L430.367 252.342" stroke="white" stroke-width="0.530341" stroke-miterlimit="10" stroke-linecap="round"/>
<path d="M441.329 244.533C443.796 238.415 448.382 233.342 454.282 230.204" stroke="white" stroke-width="0.530341" stroke-miterlimit="10" stroke-linecap="round"/>
<path d="M454.94 212.308C454.94 212.308 453.615 217.183 455.273 220.116C456.932 223.049 458.6 223.049 458.6 223.049C458.6 223.049 461.583 238.994 461.583 248.111C461.583 257.227 459.591 258.199 461.583 268.287C463.575 278.375 464.91 281.634 464.91 287.491C464.91 293.348 467.56 297.261 469.885 300.839C472.211 304.416 472.878 314.85 472.878 319.063C472.878 323.275 474.203 327.852 475.537 332.084C475.537 332.084 475.852 341.574 477.53 343.797C479.207 346.02 479.522 353.567 479.522 353.567" stroke="white" stroke-width="0.530341" stroke-miterlimit="10" stroke-linecap="round"/>
<path d="M433.027 254.621C433.027 254.621 433.684 262.094 431.359 275.124C429.033 288.154 427.375 291.722 427.041 306.696C426.707 321.669 428.042 324.275 427.374 332.084C426.707 339.893 422.723 352.232 422.723 357.836C422.723 363.44 423.333 381.356 423.333 381.356" stroke="white" stroke-width="0.530341" stroke-miterlimit="10" stroke-linecap="round"/>
<path d="M425.716 214.26L426.383 216.866L430.701 217.837L430.034 214.586" stroke="white" stroke-width="0.530341" stroke-miterlimit="10" stroke-linecap="round"/>
<path d="M430.72 217.837C430.72 217.837 438.688 217.51 442.673 216.212L441.719 213.606" stroke="white" stroke-width="0.530341" stroke-miterlimit="10" stroke-linecap="round"/>
<path d="M445.313 212.952L446.266 216.212C446.266 216.212 452.643 215.857 453.596 214.923" stroke="white" stroke-width="0.530341" stroke-miterlimit="10" stroke-linecap="round"/>
<path d="M426.383 216.865C424.18 216.798 422.023 216.239 420.073 215.231L417.08 213.606L418.034 211.326" stroke="white" stroke-width="0.530341" stroke-miterlimit="10" stroke-linecap="round"/>
<path d="M418.215 378.067C418.215 378.067 403.917 387.212 401.868 391.499C399.819 395.787 407.997 394.077 413.83 391.789C419.663 389.5 423.362 381.318 423.362 381.318L418.215 378.067Z" fill="white" stroke="#263238" stroke-width="1.06068" stroke-miterlimit="10" stroke-linecap="round"/>
<path d="M478.835 383.177C479.556 387.095 480.976 390.858 483.029 394.293C486.175 399.085 492.113 403.195 492.113 395.657C492.113 388.119 484.783 381.646 484.783 381.646C484.783 381.646 481.142 383.579 478.835 383.177Z" fill="white" stroke="#263238" stroke-width="1.06068" stroke-miterlimit="10" stroke-linecap="round"/>
<path d="M430.863 91.4761C430.863 91.4761 427.765 110.307 428.814 114.977C431.206 125.43 439.603 124.981 444.855 122.982C449.764 121.114 454.663 114.51 455.292 113.642C455.337 113.58 455.4 113.534 455.473 113.511C456.255 113.296 461.107 111.783 463.242 108.112C465.577 104.105 461.202 102.395 461.202 102.395" fill="white"/>
<mask id="mask0_119_1571" style="mask-type:luminance" maskUnits="userSpaceOnUse" x="428" y="91" width="36" height="34">
<path d="M430.863 91.4761C430.863 91.4761 427.765 110.307 428.814 114.977C431.206 125.43 439.603 124.981 444.855 122.982C449.764 121.114 454.663 114.51 455.292 113.642C455.337 113.58 455.4 113.534 455.473 113.511C456.255 113.296 461.107 111.783 463.242 108.112C465.577 104.105 461.202 102.395 461.202 102.395" fill="white"/>
</mask>
<g mask="url(#mask0_119_1571)">
<g style="mix-blend-mode:multiply" opacity="0.5">
<path d="M450.736 118.49L455.369 113.502C455.369 113.502 460.849 111.848 463.242 108.065C464.643 105.852 463.871 103.918 463.022 103.395C461.86 102.778 460.66 102.233 459.429 101.76L457.875 105.114L456.55 105.338C456.55 105.338 457.103 101.882 455.502 99.8363C453.901 97.7907 453.539 91.8687 453.539 91.8687C453.539 91.8687 451.299 103.675 451.022 108.617C450.951 111.366 450.074 114.038 448.496 116.313C448.496 116.313 448.782 119.33 449.335 122.347C449.402 122.702 449.469 123.235 449.535 123.898L450.298 122.702L450.717 123.842C450.241 121.88 450.021 119.797 450.736 118.49Z" fill="#0EA362"/>
</g>
</g>
<path d="M430.863 91.4761C430.863 91.4761 427.765 110.307 428.814 114.977C431.206 125.43 439.603 124.981 444.855 122.982C449.764 121.114 454.663 114.51 455.292 113.642C455.337 113.58 455.4 113.534 455.473 113.511C456.255 113.296 461.107 111.783 463.242 108.112C465.577 104.105 461.202 102.395 461.202 102.395" stroke="#263238" stroke-width="1.06068" stroke-miterlimit="10" stroke-linecap="round"/>
<path d="M442.72 101.05C442.539 101.797 442.72 102.47 443.073 102.554C443.426 102.638 443.902 102.115 444.083 101.377C444.264 100.639 444.083 99.9663 443.731 99.8729C443.378 99.7795 442.901 100.312 442.72 101.05Z" fill="#263238"/>
<path d="M434.533 99.0985C434.352 99.8458 434.533 100.518 434.885 100.602C435.238 100.686 435.715 100.163 435.896 99.4255C436.077 98.6875 435.896 98.0057 435.543 97.9216C435.19 97.8375 434.704 98.3513 434.533 99.0985Z" fill="#263238"/>
<path d="M447.801 97.781C447.35 97.0044 446.709 96.3505 445.935 95.879C445.161 95.4075 444.278 95.1333 443.368 95.0815" stroke="#263238" stroke-width="1.06068" stroke-miterlimit="10" stroke-linecap="round"/>
<path d="M437.097 95.2219C436.346 94.9005 435.514 94.8106 434.71 94.9641C433.907 95.1176 433.17 95.5073 432.598 96.0812" stroke="#263238" stroke-width="1.06068" stroke-miterlimit="10" stroke-linecap="round"/>
<path d="M437.65 98.6216C437.667 99.8729 437.572 101.123 437.364 102.358C437.049 103.918 435.81 104.226 436.124 105.431C436.439 106.636 438.031 106.757 438.031 106.757" stroke="#263238" stroke-width="1.06068" stroke-miterlimit="10" stroke-linecap="round"/>
<path d="M439.689 111.624C440.364 111.834 441.077 111.899 441.78 111.814C442.482 111.728 443.158 111.494 443.759 111.129" stroke="#263238" stroke-width="1.06068" stroke-miterlimit="10" stroke-linecap="round"/>
<path d="M454.787 78.3237C454.787 78.3237 448.372 72.8875 442.244 72.8875C436.115 72.8875 431.149 76.3248 427.355 76.6237C423.562 76.9226 420.941 73.4759 418.605 78.0529C416.27 82.6298 425.03 90.3546 430.863 91.4942C436.696 92.6337 444.865 90.9244 447.2 90.6348C449.437 90.4845 451.683 90.4845 453.92 90.6348C453.92 90.6348 452.166 96.0711 453.92 97.7898C455.674 99.5085 455.96 100.648 455.96 101.788C456.06 103.045 456.254 104.294 456.541 105.524L458.295 106.103L459.172 102.955C461.538 100.483 463.155 97.4132 463.842 94.0909C464.71 88.9441 460.335 83.8161 460.335 83.8161L454.787 78.3237Z" fill="#263238"/>
<path d="M430.215 89.1504C430.215 89.1504 440.194 91.0185 448.01 87.8333C455.826 84.6481 449.087 78.3245 449.087 78.3245" stroke="white" stroke-width="0.530341" stroke-miterlimit="10" stroke-linecap="round"/>
<path d="M450.736 77.792C451.547 77.792 458.285 82.808 456.932 86.5069C455.578 90.2058 452.89 90.4767 452.89 90.4767" stroke="white" stroke-width="0.530341" stroke-miterlimit="10" stroke-linecap="round"/>
<path d="M449.631 191.253L441.205 186.901C439.039 186.783 436.885 186.508 434.761 186.079C432.798 185.527 412.648 183.641 412.648 183.641L412.343 188.311C412.343 188.311 435.324 191.337 440.08 191.888C444.836 192.44 449.049 194.635 449.888 196.008C450.727 197.381 452.414 198.754 451.575 202.546C450.736 206.339 445.132 211.887 445.132 211.887C444.865 211.495 458.609 210.523 458.476 209.085C458.18 206.226 456.627 197.876 456.627 197.876L449.631 191.253Z" fill="#0EA362"/>
<path opacity="0.5" d="M449.631 191.253L441.205 186.901C439.039 186.783 436.885 186.508 434.761 186.079C432.798 185.527 412.648 183.641 412.648 183.641L412.343 188.311C412.343 188.311 435.324 191.337 440.08 191.888C444.836 192.44 449.049 194.635 449.888 196.008C450.727 197.381 452.414 198.754 451.575 202.546C450.736 206.339 445.132 211.887 445.132 211.887C444.912 211.467 458.638 210.514 458.476 209.085C458.028 205.442 456.627 197.876 456.627 197.876L449.631 191.253Z" fill="white"/>
<path d="M477.425 145.559C476.681 142.14 471.134 142.598 467.788 140.702C464.443 138.806 456.35 134.416 456.35 134.416L452.433 128.643C451.726 127.087 451.155 125.474 450.727 123.823L450.307 122.684L449.545 123.879C450.031 128.998 450.498 142.103 450.498 142.103L452.176 150.341C452.176 150.341 458.628 177.523 460.306 183.566C461.983 189.61 461.983 193.72 460.868 195.644C459.753 197.568 460.125 198.446 460.125 198.446C460.125 198.446 464.5 195.13 464.233 191.842C463.88 187.975 477.949 147.876 477.425 145.559Z" fill="#0EA362"/>
<path opacity="0.5" d="M477.425 145.559C477.043 142.084 471.134 142.598 467.788 140.702C464.443 138.806 456.35 134.416 456.35 134.416L452.433 128.643C451.726 127.087 451.155 125.474 450.727 123.823L450.307 122.684L449.545 123.879C450.031 128.998 450.498 142.103 450.498 142.103L452.176 150.341C452.176 150.341 458.628 177.523 460.306 183.566C461.983 189.61 461.983 193.72 460.868 195.644C459.753 197.568 460.125 198.446 460.125 198.446C460.125 198.446 464.624 195.121 464.233 191.842C463.785 188.321 477.768 148.445 477.425 145.559Z" fill="white"/>
<path d="M452.938 142.131C452.938 142.131 451.184 126.69 450.307 122.683C449.43 118.676 450.021 116.397 446.228 116.397C442.434 116.397 437.764 115.818 438.603 117.826C439.441 119.834 445.275 118.106 446.228 118.966C447.181 119.825 446.514 121.824 446.514 121.824C446.514 121.824 438.889 122.403 438.889 124.402C438.889 126.401 439.184 131.874 440.642 132.407C442.101 132.939 442.682 129.838 442.682 129.838C442.682 129.838 442.978 136.377 444.436 138.702C445.365 140.139 446.441 141.478 447.648 142.7L452.938 142.131Z" fill="white" stroke="#263238" stroke-width="1.06068" stroke-miterlimit="10" stroke-linecap="round"/>
<path d="M447.686 146.418C447.686 146.418 446.809 181.913 448.268 187.601C449.726 193.29 457.609 201.043 461.688 197.325C465.768 193.607 463.737 185.602 463.737 181.885C463.737 178.167 454.396 150.715 454.396 148.707C454.258 147.039 453.862 145.401 453.224 143.849" stroke="#263238" stroke-width="1.06068" stroke-miterlimit="10" stroke-linecap="round"/>
<path d="M448.268 150.715L454.101 150.136" stroke="#263238" stroke-width="1.06068" stroke-miterlimit="10" stroke-linecap="round"/>
<path d="M410.961 168.462L412.086 136.881C412.086 136.881 410.685 136.059 410.122 139.076C409.56 142.093 409.284 148.146 409.284 148.146C409.284 148.146 402.554 144.026 404.241 146.492C405.929 148.958 408.721 154.46 408.721 154.46L398.313 164.613L403.079 166.538L410.961 168.462Z" fill="#0EA362"/>
<path opacity="0.5" d="M410.961 168.462L412.086 136.881C412.086 136.881 410.685 136.059 410.122 139.076C409.56 142.093 409.284 148.146 409.284 148.146C409.284 148.146 402.554 144.026 404.241 146.492C405.929 148.958 408.721 154.46 408.721 154.46L398.313 164.613L403.079 166.538L410.961 168.462Z" fill="white"/>
<path d="M424.915 143.934C424.915 143.934 424.382 145.802 426.621 145.802C428.861 145.802 432.798 144.242 432.798 144.242L432.512 141.141C432.512 141.141 427.127 143.709 424.915 143.934Z" fill="#0EA362"/>
<path opacity="0.5" d="M424.915 143.934C424.915 143.934 424.382 145.802 426.621 145.802C428.861 145.802 432.798 144.242 432.798 144.242L432.512 141.141C432.512 141.141 427.127 143.709 424.915 143.934Z" fill="white"/>
<path d="M434.533 123.047C434.533 123.047 431.616 139.861 433.37 143.597C435.124 147.333 437.745 146.455 439.785 144.746C441.824 143.037 444.455 138.74 444.455 138.74" stroke="#263238" stroke-width="1.06068" stroke-miterlimit="10" stroke-linecap="round"/>
<path d="M411.495 183.884L412.086 207.339C412.086 207.339 418.758 213.625 431.635 213.625C444.512 213.625 458.485 209.048 458.485 209.048V200.753" stroke="#263238" stroke-width="1.06068" stroke-miterlimit="10" stroke-linecap="round"/>
<path d="M450.898 126.401C450.898 126.401 456.15 131.547 456.15 136.414C456.15 141.28 455.273 142.42 455.273 142.42" stroke="#263238" stroke-width="1.06068" stroke-miterlimit="10" stroke-linecap="round"/>
<path d="M455.559 133.556C455.559 133.556 463.442 138.123 467.817 140.701C472.192 143.279 477.453 143.27 477.453 145.558C477.453 147.847 465.196 186.742 465.196 186.742" stroke="#263238" stroke-width="1.06068" stroke-miterlimit="10" stroke-linecap="round"/>
<path d="M460.525 146.418L457.609 157.86" stroke="#263238" stroke-width="1.06068" stroke-miterlimit="10" stroke-linecap="round"/>
<path d="M411.571 153.134L406.853 143.438" stroke="#263238" stroke-width="0.530341" stroke-miterlimit="10" stroke-linecap="round"/>
<path d="M411.571 155.908L404.499 151.752" stroke="#263238" stroke-width="0.530341" stroke-miterlimit="10" stroke-linecap="round"/>
<path d="M434.647 177.597L433.236 184.528" stroke="#263238" stroke-width="0.530341" stroke-miterlimit="10" stroke-linecap="round"/>
<path d="M472.802 145.288C472.802 145.288 465.739 146.67 459.143 154.516" stroke="#263238" stroke-width="0.530341" stroke-miterlimit="10" stroke-linecap="round"/>
<path d="M468.093 144.867C468.093 144.867 466.187 144.4 459.62 149.939" stroke="#263238" stroke-width="0.530341" stroke-miterlimit="10" stroke-linecap="round"/>
<path d="M434.647 147.137L431.826 168.826L434.18 169.293L436.067 162.372" stroke="#263238" stroke-width="0.530341" stroke-miterlimit="10" stroke-linecap="round"/>
<path d="M436.534 203.91C428.051 210.841 416.28 210.374 416.28 210.374" stroke="#263238" stroke-width="0.530341" stroke-miterlimit="10" stroke-linecap="round"/>
<path d="M400.686 166.239C400.686 166.239 394.92 161.064 386.751 167.65" stroke="#263238" stroke-width="0.530341" stroke-miterlimit="10" stroke-linecap="round"/>
<path d="M433.97 127.26C433.97 127.26 431.635 127.83 429.004 131.837C426.374 135.844 423.171 142.7 425.506 143.27C427.842 143.84 432.178 141.271 432.178 141.271" stroke="#263238" stroke-width="1.06068" stroke-miterlimit="10" stroke-linecap="round"/>
<path d="M443.016 142.42L445.932 144.989" stroke="#263238" stroke-width="1.06068" stroke-miterlimit="10" stroke-linecap="round"/>
<path d="M429.881 130.119C429.881 130.119 419.082 131.548 414.707 131.837C410.332 132.127 411.18 133.705 409.751 134.696C407.444 136.274 380.984 169.144 379.25 172.292C377.515 175.44 377.791 176.869 380.708 177.728C383.625 178.588 412.677 183.594 412.677 183.594L438.345 186.172L440.385 179.877C440.385 179.877 446.352 180.652 447.4 180.652" stroke="#263238" stroke-width="1.06068" stroke-miterlimit="10" stroke-linecap="round"/>
<path d="M437.468 177.56C431.803 175.95 426.327 173.758 421.131 171.021" stroke="#263238" stroke-width="1.06068" stroke-miterlimit="10" stroke-linecap="round"/>
<path d="M418.796 170.443C418.796 170.443 410.218 167.323 405.576 166.753C400.934 166.183 393.823 165.996 393.823 165.996" stroke="#263238" stroke-width="1.06068" stroke-miterlimit="10" stroke-linecap="round"/>
<path d="M410.914 166.725L411.79 144.129" stroke="#263238" stroke-width="1.06068" stroke-miterlimit="10" stroke-linecap="round"/>
<path d="M438.345 186.172C440.348 187.159 442.446 187.947 444.608 188.526" stroke="#263238" stroke-width="1.06068" stroke-miterlimit="10" stroke-linecap="round"/>
<path d="M56.445 167.967L59.8859 149.538L81.6654 141.131C81.6654 141.131 82.7235 135.406 83.791 135.153C84.8585 134.901 85.907 132.547 85.907 132.547L85.3828 127.83C85.3828 127.83 87.3748 120.358 97.3925 126.177C97.3925 126.177 94.3615 128.157 94.8857 128.979C95.4099 129.801 94.3043 132.417 95.6292 132.417C96.954 132.417 99.6324 134.07 100.986 135.406C101.933 136.403 102.77 137.496 103.483 138.665L114.759 139.301C115.915 139.31 117.065 139.464 118.181 139.758C118.371 134.359 117.695 130.24 116.36 127.036C111.509 115.472 102.663 111.344 101.396 105.553C100.128 99.7614 100.767 99.1542 100.767 99.1542C102.056 97.8699 102.999 96.2922 103.513 94.5626C104.027 92.833 104.096 91.0055 103.712 89.2437C102.454 83.0508 97.6022 78.7074 80.1118 77.8854C62.6214 77.0634 65.1568 88.8234 65.1568 88.8234L65.3665 89.6454C65.3665 89.6454 54.1955 93.3817 56.3115 107.197C58.4275 121.012 64.5277 127.018 64.318 131.352C64.1083 135.686 57.5697 137.339 48.2955 147.231C39.0213 157.123 37.1341 172.003 40.9276 181.708C42.8339 186.481 46.5608 190.46 51.2408 193.43L56.445 167.967Z" fill="#263238"/>
<path d="M71.0473 169.788V173.954L62.9741 198.399C68.0188 199.707 73.3093 199.816 78.4056 198.717C81.2824 197.982 84.032 196.833 86.5646 195.307L71.0473 169.788Z" fill="#263238"/>
<path d="M94.2566 128.83L95.2098 133.033C95.2098 133.033 98.0692 130.231 103.655 138.74C103.655 138.74 115.264 138.469 118.429 140.02C118.429 140.02 119.086 140.207 121.231 142.439C123.375 144.672 131.439 151.78 131.439 151.78C131.439 151.78 141.79 161.195 142.82 161.924C143.849 162.652 147.71 166.267 150.598 167.528L158.337 150.257L161.788 141.711L163.694 134.677H164.304L164.437 129.007L163.97 122.245C164.046 121.901 164.207 121.58 164.437 121.31C165.237 120.225 165.851 119.02 166.258 117.742C166.258 117.107 165.6 113.352 165.6 113.352C165.6 113.352 165.276 112.418 165.981 112.306C166.687 112.194 169.289 113.081 169.613 114.865L170.566 114.548C171.355 112.7 172.339 110.937 173.502 109.289C175.046 107.327 176.628 106.094 177.61 106.73C177.879 106.912 178.074 107.182 178.157 107.492C178.241 107.802 178.209 108.131 178.067 108.42L174.998 113.95C174.998 113.95 173.645 115.734 175.322 116.369C175.322 116.369 178.954 118.658 179.192 120.666C179.43 122.674 178.115 124.402 176.952 125.878C175.789 127.354 173.74 130.548 173.74 130.548L171.357 132.613L170.404 136.172L171.529 137.545L169.851 144.672L168.641 150.014L168.031 153.256L164.218 166.052L160.406 177.205C160.406 177.205 158.442 183.594 153.686 183.417C148.93 183.239 143.716 180.717 142.029 179.895C140.342 179.073 126.435 171.956 126.435 171.956L123.576 170.629C123.957 171.905 124.121 173.234 124.062 174.562C124.014 177.028 121.307 182.464 120.516 183.697L120.049 193.337C119.864 195.009 119.896 196.698 120.144 198.362C120.564 200.875 122.708 215.091 123.175 216.866C123.175 216.866 118.543 220.976 104.741 222.928C90.9396 224.88 84.4772 221.714 84.4772 221.714L78.3294 218.174L85.907 203.499C85.907 203.499 87.8133 199.137 87.6226 197.988C87.432 196.84 84.1722 191.889 84.1722 191.889L72.2101 171.022L71.6478 171.209L69.7891 177.299L63.0694 197.951L54.2241 223.731C54.2241 223.731 51.8031 230.27 50.8023 232.203L48.0096 240.545C48.1647 242.035 48.5403 243.495 49.1247 244.879L42.1 240.423L43.3486 233.885L44.9023 224.133L46.8086 213.531L48.4861 204.76L51.1645 193.066L52.1176 189.834L54.0239 180.699L57.3791 164.128L60.2385 149.94L80.2548 142.14L81.5034 141.206C81.781 139.4 82.4576 137.676 83.486 136.153C84.1997 135.151 85.0494 134.249 86.0118 133.472C86.0118 133.472 85.9165 132.248 85.8498 131.09C85.7831 129.932 85.478 127.802 85.478 127.802C85.478 127.802 91.664 130.408 94.2566 128.83Z" fill="white"/>
<path d="M67.4444 91.2892C67.4444 91.2892 71.1521 83.2468 78.5677 83.2468C85.9832 83.2468 101.339 97.5194 101.339 97.5194" stroke="white" stroke-width="0.530341" stroke-miterlimit="10" stroke-linecap="round"/>
<path d="M70.6184 92.5594C70.6184 92.5594 75.1173 87.8891 80.6837 89.7012C86.2501 91.5133 87.0412 98.0051 87.0412 98.0051" stroke="white" stroke-width="0.530341" stroke-miterlimit="10" stroke-linecap="round"/>
<path d="M66.9106 93.3625C66.9106 93.3625 60.2957 96.9961 59.762 103.749C59.2282 110.503 69.0266 118.536 70.3515 127.624C71.6764 136.713 64.7946 138.777 53.6713 146.306C42.548 153.834 44.4067 170.694 46.7895 174.328" stroke="white" stroke-width="0.530341" stroke-miterlimit="10" stroke-linecap="round"/>
<path d="M48.1144 176.411C48.1144 176.411 49.6967 179.783 52.0795 180.82" stroke="white" stroke-width="0.530341" stroke-miterlimit="10" stroke-linecap="round"/>
<path d="M67.7113 111.007C67.398 111.666 67.2575 112.392 67.3025 113.118C67.3474 113.843 67.5764 114.547 67.9686 115.164C69.2935 117.499 79.4065 129.175 78.5677 134.63C77.7289 140.085 72.4771 143.448 72.4771 143.448" stroke="white" stroke-width="0.530341" stroke-miterlimit="10" stroke-linecap="round"/>
<path d="M72.7344 93.3625C72.7344 93.3625 66.6437 95.9593 66.9106 101.928C67.1775 107.897 68.5024 109.457 68.5024 109.457" stroke="white" stroke-width="0.530341" stroke-miterlimit="10" stroke-linecap="round"/>
<path d="M101.339 113.109C103.231 117.307 105.828 121.166 109.021 124.523C113.787 129.194 114.311 135.947 114.311 135.947" stroke="white" stroke-width="0.530341" stroke-miterlimit="10" stroke-linecap="round"/>
<path d="M106.895 127.876C106.895 127.876 109.278 133.331 109.278 136.703" stroke="white" stroke-width="0.530341" stroke-miterlimit="10" stroke-linecap="round"/>
<path d="M93.7133 129.325L86.231 135.929C86.231 135.929 85.4304 137.928 83.9244 141.132C82.4184 144.335 82.6662 150.472 82.6662 150.472L87.2795 159.467C87.2795 159.467 78.4056 149.491 77.9005 148.258C77.3953 147.026 68.1116 149.249 66.3578 149.987C64.604 150.724 62.3354 152.2 62.8406 154.414C63.3458 156.628 65.6048 159.57 64.5944 160.065C63.5841 160.56 60.8295 159.327 60.8295 160.803C60.8295 162.279 64.0988 167.939 62.5928 169.901C61.0868 171.862 51.5457 203.602 51.5457 203.602C51.5457 203.602 57.5697 198.68 56.0637 200.651C54.5577 202.621 47.2851 218.603 47.2851 218.603L44.521 227.944L51.0501 194.747L56.5689 166.725L59.8858 149.538C63.0884 148.492 81.6654 141.132 81.6654 141.132C81.6654 141.132 83.1333 135.079 85.907 132.547L85.3827 127.83C85.3827 127.83 90.444 129.568 93.7133 129.325Z" fill="#0EA362"/>
<path opacity="0.5" d="M93.7133 129.325L86.231 135.929C86.231 135.929 85.4304 137.928 83.9244 141.132C82.4184 144.335 82.6662 150.472 82.6662 150.472L87.2795 159.467C87.2795 159.467 78.4056 149.491 77.9005 148.258C77.3953 147.026 68.1116 149.249 66.3578 149.987C64.604 150.724 62.3354 152.2 62.8406 154.414C63.3458 156.628 65.6048 159.57 64.5944 160.065C63.5841 160.56 60.8295 159.327 60.8295 160.803C60.8295 162.279 64.0988 167.939 62.5928 169.901C61.0868 171.862 51.5457 203.602 51.5457 203.602C51.5457 203.602 57.5697 198.68 56.0637 200.651C54.5577 202.621 47.2851 218.603 47.2851 218.603L44.521 227.944L51.0501 194.747L56.5689 166.725L59.8858 149.538C63.0884 148.492 81.6654 141.132 81.6654 141.132C81.6654 141.132 82.0658 135.527 85.9165 133.566L85.3827 127.83C85.3827 127.83 90.444 129.568 93.7133 129.325Z" fill="white"/>
<path d="M121.564 162.522C121.564 162.522 126.082 155.152 126.588 156.87C127.093 158.589 125.329 164.483 125.329 164.483C125.329 164.483 130.095 162.764 129.6 164.24C129.104 165.716 128.094 166.454 128.341 167.192C128.589 167.93 144.907 176.29 146.918 177.271C148.93 178.251 153.695 172.6 155.954 174.319C158.213 176.038 155.954 181.932 151.436 181.941C146.918 181.95 133.87 176.336 133.87 176.336L123.595 170.48" fill="#0EA362"/>
<path opacity="0.5" d="M121.564 162.522C121.564 162.522 126.082 155.152 126.588 156.87C127.093 158.589 125.329 164.483 125.329 164.483C125.329 164.483 130.095 162.764 129.6 164.24C129.104 165.716 128.094 166.454 128.341 167.192C128.589 167.93 144.907 176.29 146.918 177.271C148.93 178.251 153.695 172.6 155.954 174.319C158.213 176.038 155.954 181.932 151.436 181.941C146.918 181.95 133.87 176.336 133.87 176.336L123.633 170.499" fill="white"/>
<path d="M94.4663 192.281C94.4663 192.281 123.804 177.037 119.039 182.689C114.273 188.34 98.4791 194.747 94.4663 192.281Z" fill="#0EA362"/>
<path opacity="0.5" d="M94.4663 192.281C94.4663 192.281 123.804 177.037 119.039 182.689C114.273 188.34 98.4791 194.747 94.4663 192.281Z" fill="white"/>
<path d="M85.3827 127.876C85.3827 127.876 85.5924 131.8 86.231 135.928C86.8697 140.057 86.6504 140.057 90.6537 145.007C94.6569 149.958 98.8699 154.096 99.499 153.274" stroke="#263238" stroke-width="1.06068" stroke-miterlimit="10" stroke-linecap="round"/>
<path d="M99.7087 151.826C99.7087 151.826 100.128 144.597 98.6602 139.851C97.1923 135.106 95.0763 133.444 95.0763 132.379C95.0051 131.269 94.865 130.165 94.657 129.072" stroke="#263238" stroke-width="1.06068" stroke-miterlimit="10" stroke-linecap="round"/>
<path d="M85.3828 133.864C83.6992 135.35 82.5214 137.306 82.0086 139.468C81.3795 142.766 80.7504 146.689 80.7504 146.689L87.2795 159.495C87.848 157.265 88.6965 155.113 89.8054 153.087C90.3546 152.088 91.0661 151.182 91.9119 150.406" stroke="#263238" stroke-width="1.06068" stroke-miterlimit="10" stroke-linecap="round"/>
<path d="M101.186 148.314C101.647 148.201 102.126 148.179 102.596 148.249C103.066 148.32 103.516 148.482 103.922 148.725C105.609 149.556 108.983 153.89 108.983 153.89C108.983 153.89 106.667 143.149 102.663 137.581C98.6602 132.014 95.9151 132.416 95.9151 132.416" stroke="#263238" stroke-width="1.06068" stroke-miterlimit="10" stroke-linecap="round"/>
<path d="M80.1118 141.916L59.8859 149.538C59.8859 149.538 52.518 188.974 49.7729 199.501C47.0278 210.028 42.405 239.769 42.405 239.769L47.8761 240.796L49.7824 235.435" stroke="#263238" stroke-linecap="round" stroke-linejoin="round"/>
<path d="M50.8309 232.353C50.8309 232.353 52.0891 230.485 55.4632 220.21C58.8374 209.935 67.8542 184.715 69.3697 179.736C70.8853 174.758 72.1053 171.479 72.1053 171.479" stroke="#263238" stroke-width="1.06068" stroke-miterlimit="10" stroke-linecap="round"/>
<path d="M68.5214 165.417C68.5214 165.417 85.5829 195.308 87.0603 196.597C88.5377 197.886 86.4312 201.342 86.0023 203.2" stroke="#263238" stroke-width="1.06068" stroke-miterlimit="10" stroke-linecap="round"/>
<path d="M84.1151 206.955L78.644 218.108C78.644 218.108 82.2278 223.479 97.3925 223.479C106.417 223.506 115.313 221.377 123.309 217.277C123.309 217.277 119.725 198.698 119.935 195.391C120.144 192.085 120.573 183.417 120.573 183.417C120.573 183.417 124.386 177.812 123.938 173.506C123.49 169.2 121.622 164.212 121.622 163.39C121.622 162.568 121.202 153.685 121.202 153.685" stroke="#263238" stroke-width="1.06068" stroke-miterlimit="10" stroke-linecap="round"/>
<path d="M97.3639 188.601L112.462 179.521" stroke="#263238" stroke-width="0.530341" stroke-miterlimit="10" stroke-linecap="round"/>
<path d="M105.313 185.752L113.52 181.082" stroke="#263238" stroke-width="0.530341" stroke-miterlimit="10" stroke-linecap="round"/>
<path d="M150.493 167.724L147.414 175.113" stroke="#263238" stroke-width="0.530341" stroke-miterlimit="10" stroke-linecap="round"/>
<path d="M149.263 170.956L146.356 173.814" stroke="#263238" stroke-width="0.530341" stroke-miterlimit="10" stroke-linecap="round"/>
<path d="M63.2028 197.176C63.2028 197.176 58.1702 202.883 54.7293 205.218" stroke="#263238" stroke-width="0.530341" stroke-miterlimit="10" stroke-linecap="round"/>
<path d="M60.2957 198.726C60.2957 198.726 51.5553 205.47 49.4393 207.03" stroke="#263238" stroke-width="0.530341" stroke-miterlimit="10" stroke-linecap="round"/>
<path d="M61.8494 150.715C64.4842 154.365 66.8722 158.182 68.998 162.138" stroke="#263238" stroke-width="0.530341" stroke-miterlimit="10" stroke-linecap="round"/>
<path d="M69.8273 163.951L71.6764 167.061" stroke="#263238" stroke-width="0.530341" stroke-miterlimit="10" stroke-linecap="round"/>
<path d="M121.622 163.39L123.938 151.827" stroke="#263238" stroke-width="0.530341" stroke-miterlimit="10" stroke-linecap="round"/>
<path d="M122.47 164.212L126.044 159.262" stroke="#263238" stroke-width="0.530341" stroke-miterlimit="10" stroke-linecap="round"/>
<path d="M72.1053 171.442L61.9923 166.071" stroke="#263238" stroke-width="0.530341" stroke-miterlimit="10" stroke-linecap="round"/>
<path d="M99.2893 154.302C99.2893 154.302 103.102 161.774 104.351 167.108" stroke="#263238" stroke-width="0.530341" stroke-miterlimit="10" stroke-linecap="round"/>
<path d="M161.864 141.29C162.872 141.218 163.885 141.345 164.842 141.667C165.799 141.988 166.679 142.495 167.43 143.159" stroke="#263238" stroke-width="0.530341" stroke-miterlimit="10" stroke-linecap="round"/>
<path d="M46.0651 234.641L48.6768 235.594" stroke="#263238" stroke-width="0.530341" stroke-miterlimit="10" stroke-linecap="round"/>
<path d="M42.3383 240.143C42.3711 243.694 42.1801 247.244 41.7664 250.773C41.1373 255.116 41.347 265.027 42.1858 268.118C43.0246 271.21 43.4535 271.855 44.2923 269.986C45.131 268.118 47.6664 257.19 47.6664 257.19C47.6664 257.19 48.0858 264.41 49.9826 263.794C51.8794 263.177 50.8309 259.665 50.8309 256.564C50.8309 253.463 51.0406 252.435 50.8309 249.96C50.6212 247.485 47.8094 241.366 47.8094 241.366" fill="white"/>
<path d="M42.3383 240.143C42.3711 243.694 42.1801 247.244 41.7664 250.773C41.1373 255.116 41.347 265.027 42.1858 268.118C43.0246 271.21 43.4535 271.855 44.2923 269.986C45.131 268.118 47.6664 257.19 47.6664 257.19C47.6664 257.19 48.0858 264.41 49.9826 263.794C51.8794 263.177 50.8309 259.665 50.8309 256.564C50.8309 253.463 51.0406 252.435 50.8309 249.96C50.6212 247.485 47.8094 241.366 47.8094 241.366" stroke="#263238" stroke-miterlimit="10" stroke-linecap="round"/>
<path d="M164.323 134.518C164.227 132.691 164.227 130.861 164.323 129.035C164.495 127.316 163.799 124.747 163.97 122.496C164.142 120.245 166.42 119.414 166.067 116.5C165.715 113.585 165.019 113.24 165.543 112.558C166.067 111.876 169.356 112.894 169.565 114.781C169.752 116.723 169.752 118.677 169.565 120.619C169.394 121.133 170.614 124.355 169.918 125.756C169.519 126.515 169.224 127.322 169.041 128.157" stroke="#263238" stroke-width="0.880843" stroke-miterlimit="10" stroke-linecap="round"/>
<path d="M170.271 114.632C170.271 114.632 174.293 106.748 176.571 106.571C178.849 106.393 178.144 108.439 177.438 109.485C176.733 110.531 174.465 114.286 174.293 115.837C174.121 117.387 172.015 122.516 172.015 122.516" stroke="#263238" stroke-width="0.880843" stroke-miterlimit="10" stroke-linecap="round"/>
<path d="M174.322 115.836C174.322 115.836 180.45 119.433 179.087 122.375C177.724 125.317 176.981 126.494 175.932 126.111C175.003 125.646 174.172 125.012 173.483 124.243" stroke="#263238" stroke-width="0.880843" stroke-miterlimit="10" stroke-linecap="round"/>
<path d="M176.571 126.121C176.571 126.121 174.989 128.689 173.769 130.24C173.067 131.135 172.235 131.925 171.3 132.584L170.557 135.116" stroke="#263238" stroke-width="0.880843" stroke-miterlimit="10" stroke-linecap="round"/>
<path d="M103.083 138.609C103.083 138.609 117.618 138.404 119.515 140.674C121.412 142.943 144.383 163.596 147.157 165.455C149.93 167.313 150.531 167.724 150.531 167.724C150.531 167.724 161.902 142.504 161.902 141.29C161.902 140.076 163.808 134.481 163.808 134.481C163.808 134.481 167.392 134.892 168.24 134.892C169.089 134.892 171.395 137.582 171.395 137.582C171.395 137.582 168.24 150.173 168.24 151.593C168.24 153.013 162.34 172.656 159.595 178.681C156.85 184.706 153.066 183.837 146.957 181.978C140.847 180.119 124.205 170.835 124.205 170.835" stroke="#263238" stroke-width="1.06068" stroke-miterlimit="10" stroke-linecap="round"/>
<path d="M78.6439 218.108C78.6439 218.108 70.2085 238.788 67.9305 252.865C65.6524 266.941 66.6247 299.858 65.967 303.379C65.3093 306.901 56.1781 323.518 56.1781 331.514C56.1781 339.509 51.2884 380.749 51.2884 380.749L54.5482 382.663C54.5482 382.663 65.9861 348.103 70.2085 339.182C74.431 330.262 80.3215 309.133 81.9514 304.977C83.5813 300.82 95.0096 267.567 95.6577 263.411C96.3059 259.254 100.223 249.026 100.223 249.026C100.223 249.026 108.706 299.858 110.336 310.413C111.966 320.968 123.385 378.189 123.385 378.189C124.135 378.369 124.901 378.475 125.673 378.507C126.626 378.507 126.978 376.91 126.978 376.91C126.978 376.91 131.544 336.306 130.238 325.433C128.932 314.56 125.024 301.147 125.024 297.299C125.024 293.45 130.896 260.216 130.896 248.727C130.896 237.238 123.271 217.295 123.271 217.295C123.271 217.295 96.2106 230.671 78.6439 218.108Z" fill="#263238"/>
<path d="M124.9 299.41C124.9 299.41 121.993 311.609 118.019 318.092" stroke="white" stroke-width="0.530341" stroke-miterlimit="10" stroke-linecap="round"/>
<path d="M124.109 311.87C124.109 311.87 121.727 320.688 116.961 324.845" stroke="white" stroke-width="0.530341" stroke-miterlimit="10" stroke-linecap="round"/>
<path d="M67.7113 307.975C67.7113 307.975 69.5604 318.614 71.6764 323.023" stroke="white" stroke-width="0.530341" stroke-miterlimit="10" stroke-linecap="round"/>
<path d="M67.1775 314.206C67.1775 314.206 68.7693 321.734 71.6764 326.143" stroke="white" stroke-width="0.530341" stroke-miterlimit="10" stroke-linecap="round"/>
<path d="M101.072 249.073L111.661 240.508" stroke="white" stroke-width="0.530341" stroke-miterlimit="10" stroke-linecap="round"/>
<path d="M106.104 245.439L118.553 239.984" stroke="white" stroke-width="0.530341" stroke-miterlimit="10" stroke-linecap="round"/>
<path d="M78.825 230.905C78.825 230.905 87.0412 236.089 91.807 240.507" stroke="white" stroke-width="0.530341" stroke-miterlimit="10" stroke-linecap="round"/>
<path d="M51.6315 380.721C51.6315 380.721 39.2405 390.995 39.2405 396.096C39.2405 401.196 44.1302 400.887 49.3535 396.096C54.5768 391.304 54.8437 381.431 54.8437 381.431L51.6315 380.721Z" fill="white" stroke="#263238" stroke-width="1.06068" stroke-miterlimit="10" stroke-linecap="round"/>
<path d="M123.385 378.19C123.385 378.19 127.627 388.418 132.202 392.901C136.777 397.385 139.379 398.973 139.379 394.172C139.379 389.371 136.443 383.944 126.988 376.91C126.978 376.91 129.59 378.825 123.385 378.19Z" fill="white" stroke="#263238" stroke-width="1.06068" stroke-miterlimit="10" stroke-linecap="round"/>
<path d="M79.6162 95.0813C78.7679 94.773 77.9672 94.3994 77.138 94.0538C76.3087 93.7082 74.7932 93.5214 74.2213 96.0714C73.373 99.8077 79.273 102.89 77.3763 105.982C76.1963 107.863 74.4228 109.316 72.3246 110.12C71.983 110.235 71.6271 110.304 71.2665 110.325C69.5795 110.531 66.8439 110.325 67.6827 113.212C68.5215 116.098 71.2665 118.583 72.9536 118.583H74.6407C74.6407 118.583 76.547 124.187 83.6957 127.251C90.8443 130.314 95.7054 130.146 97.3925 126.223C99.0796 122.3 100.347 118.994 100.347 113.828C100.347 108.663 98.441 99.9945 98.441 99.9945C98.441 99.9945 96.7539 102.274 90.2248 99.378C85.907 97.4632 81.8656 95.9126 79.6162 95.0813Z" fill="white"/>
<mask id="mask1_119_1571" style="mask-type:luminance" maskUnits="userSpaceOnUse" x="67" y="93" width="34" height="37">
<path d="M79.6162 95.0813C78.7679 94.773 77.9672 94.3994 77.138 94.0538C76.3087 93.7082 74.7932 93.5214 74.2213 96.0714C73.373 99.8077 79.273 102.89 77.3763 105.982C76.1963 107.863 74.4228 109.316 72.3246 110.12C71.983 110.235 71.6271 110.304 71.2665 110.325C69.5795 110.531 66.8439 110.325 67.6827 113.212C68.5215 116.098 71.2665 118.583 72.9536 118.583H74.6407C74.6407 118.583 76.547 124.187 83.6957 127.251C90.8443 130.314 95.7054 130.146 97.3925 126.223C99.0796 122.3 100.347 118.994 100.347 113.828C100.347 108.663 98.441 99.9945 98.441 99.9945C98.441 99.9945 96.7539 102.274 90.2248 99.378C85.907 97.4632 81.8656 95.9126 79.6162 95.0813Z" fill="white"/>
</mask>
<g mask="url(#mask1_119_1571)">
<g style="mix-blend-mode:multiply" opacity="0.5">
<path d="M90.2343 99.3784C90.2343 99.3784 80.1595 98.8273 78.6535 99.0701C77.1475 99.313 78.9013 103.74 78.4057 108.168C77.91 112.596 78.1483 119.732 80.1595 121.946C82.5328 124.228 85.0475 126.365 87.6894 128.344C87.6894 128.344 79.9593 127.12 77.1475 123.916C74.3357 120.713 73.8877 118.994 73.8877 118.994C73.8877 118.994 67.3586 115.258 66.8534 112.353C66.3483 109.448 70.6661 110.989 72.7344 109.55C73.8973 108.766 78.7107 107.29 77.5002 103.358C76.2897 99.4251 74.3357 98.6872 74.2595 96.0531C74.2023 94.1849 75.8798 93.6432 76.9092 93.475C77.3733 93.3985 77.8502 93.4671 78.2722 93.6712L90.2343 99.3784Z" fill="#0EA362"/>
</g>
</g>
<path d="M79.6162 95.0813C78.7679 94.773 77.9672 94.3994 77.138 94.0538C76.3087 93.7082 74.7932 93.5214 74.2213 96.0714C73.373 99.8077 79.273 102.89 77.3763 105.982C76.1963 107.863 74.4228 109.316 72.3246 110.12C71.983 110.235 71.6271 110.304 71.2665 110.325C69.5795 110.531 66.8439 110.325 67.6827 113.212C68.5215 116.098 71.2665 118.583 72.9536 118.583H74.6407C74.6407 118.583 76.547 124.187 83.6957 127.251C90.8443 130.314 95.7054 130.146 97.3925 126.223C99.0796 122.3 100.347 118.994 100.347 113.828C100.347 108.663 98.441 99.9945 98.441 99.9945C98.441 99.9945 96.7539 102.274 90.2248 99.378C85.907 97.4632 81.8656 95.9126 79.6162 95.0813Z" stroke="#263238" stroke-width="1.06068" stroke-miterlimit="10" stroke-linecap="round"/>
<path d="M87.0603 107.318C87.1938 108.103 86.9745 108.794 86.5647 108.859C86.1548 108.925 85.7354 108.336 85.6115 107.552C85.4876 106.767 85.7068 106.066 86.1072 106.001C86.5075 105.936 86.9269 106.571 87.0603 107.318Z" fill="#263238"/>
<path d="M95.7817 105.889C95.9056 106.673 95.6864 107.365 95.2861 107.43C94.8857 107.495 94.4568 106.907 94.3329 106.122C94.209 105.338 94.4187 104.647 94.819 104.581C95.2193 104.516 95.6483 105.104 95.7817 105.889Z" fill="#263238"/>
<path d="M82.0086 103.507C82.5419 102.73 83.2653 102.096 84.1128 101.664C84.9603 101.231 85.9048 101.014 86.8601 101.031" stroke="#263238" stroke-width="1.06068" stroke-miterlimit="10" stroke-linecap="round"/>
<path d="M93.3893 101.648C94.1989 101.371 95.0754 101.341 95.9027 101.563C96.7299 101.785 97.4689 102.248 98.0216 102.89" stroke="#263238" stroke-width="1.06068" stroke-miterlimit="10" stroke-linecap="round"/>
<path d="M92.5505 105.16C92.434 106.466 92.434 107.778 92.5505 109.084C92.7602 110.737 94.0183 111.148 93.5989 112.39C93.1796 113.632 91.4925 113.623 91.4925 113.623" stroke="#263238" stroke-width="1.06068" stroke-miterlimit="10" stroke-linecap="round"/>
<path d="M89.386 118.583C88.6641 118.75 87.9139 118.762 87.1867 118.618C86.4596 118.475 85.7727 118.179 85.173 117.751" stroke="#263238" stroke-width="1.06068" stroke-miterlimit="10" stroke-linecap="round"/>
</svg>
