<svg width="519" height="400" viewBox="0 0 519 400" fill="none" xmlns="http://www.w3.org/2000/svg">
<path d="M519 353.968H0V354.223H519V353.968Z" fill="#EBEBEB"/>
<path d="M80.964 363.672H54.4534V363.927H80.964V363.672Z" fill="#EBEBEB"/>
<path d="M274.032 360.909H159.914V361.164H274.032V360.909Z" fill="#EBEBEB"/>
<path d="M176.46 366.995H101.029V367.249H176.46V366.995Z" fill="#EBEBEB"/>
<path d="M467.007 371.429H367.099V371.684H467.007V371.429Z" fill="#EBEBEB"/>
<path d="M357.851 371.429H351.28V371.684H357.851V371.429Z" fill="#EBEBEB"/>
<path d="M384.984 367.127H312.666V367.382H384.984V367.127Z" fill="#EBEBEB"/>
<path d="M246.006 308.506H45.5785C44.0084 308.504 42.5035 307.889 41.3942 306.798C40.2849 305.707 39.6619 304.228 39.6619 302.686V26.013C39.6756 24.48 40.3046 23.0141 41.4125 21.9339C42.5203 20.8537 44.0173 20.2463 45.5785 20.2437H246.006C247.578 20.2437 249.085 20.8569 250.197 21.9484C251.308 23.0399 251.933 24.5203 251.933 26.0639V302.686C251.933 304.23 251.308 305.71 250.197 306.802C249.085 307.893 247.578 308.506 246.006 308.506ZM45.5785 20.4475C44.0772 20.4502 42.6383 21.0378 41.5777 22.0812C40.5171 23.1246 39.9214 24.5387 39.9214 26.013V302.686C39.9214 304.16 40.5171 305.574 41.5777 306.618C42.6383 307.661 44.0772 308.249 45.5785 308.251H246.006C247.508 308.249 248.948 307.662 250.01 306.618C251.073 305.575 251.671 304.161 251.673 302.686V26.013C251.671 24.5378 251.073 23.1237 250.01 22.0806C248.948 21.0374 247.508 20.4502 246.006 20.4475H45.5785Z" fill="#EBEBEB"/>
<path d="M470.536 308.506H270.098C268.527 308.504 267.021 307.889 265.91 306.799C264.799 305.708 264.174 304.229 264.171 302.686V26.013C264.187 24.479 264.819 23.0132 265.928 21.9333C267.038 20.8533 268.536 20.2462 270.098 20.2437H470.536C472.095 20.249 473.59 20.8575 474.695 21.9375C475.801 23.0174 476.428 24.4817 476.442 26.013V302.686C476.442 304.226 475.82 305.703 474.713 306.794C473.606 307.885 472.104 308.501 470.536 308.506ZM270.098 20.4475C268.596 20.4502 267.156 21.0374 266.094 22.0806C265.031 23.1237 264.433 24.5378 264.431 26.013V302.686C264.433 304.161 265.031 305.575 266.094 306.618C267.156 307.662 268.596 308.249 270.098 308.251H470.536C472.038 308.249 473.478 307.662 474.54 306.618C475.603 305.575 476.201 304.161 476.203 302.686V26.013C476.201 24.5378 475.603 23.1237 474.54 22.0806C473.478 21.0374 472.038 20.4502 470.536 20.4475H270.098Z" fill="#EBEBEB"/>
<path d="M131.058 163.386L403.232 163.386V43.6778L131.058 43.6778V163.386Z" fill="#E6E6E6"/>
<path d="M125.318 163.386L400.554 163.386V43.6778L125.318 43.6778V163.386Z" fill="#F0F0F0"/>
<path d="M131.058 167.433L403.232 167.433V163.376L131.058 163.376V167.433Z" fill="#E6E6E6"/>
<path d="M115.768 167.433L391.004 167.433V163.376L115.768 163.376V167.433Z" fill="#F0F0F0"/>
<path d="M392.53 155.507V51.5569L133.352 51.5569V155.507H392.53Z" fill="#FAFAFA"/>
<path d="M322.517 155.507L275.423 51.5569H227.218L274.323 155.507H322.517Z" fill="white"/>
<path d="M388.814 138.128C388.965 138.128 389.111 138.069 389.218 137.963C389.325 137.858 389.385 137.716 389.385 137.567V56.6843C389.385 56.5347 389.325 56.391 389.218 56.2843C389.112 56.1775 388.966 56.1162 388.814 56.1135C388.738 56.1135 388.663 56.1283 388.593 56.1572C388.523 56.186 388.46 56.2282 388.407 56.2813C388.354 56.3345 388.312 56.3975 388.284 56.4667C388.256 56.5359 388.242 56.6099 388.243 56.6843V137.567C388.242 137.641 388.256 137.715 388.284 137.783C388.312 137.852 388.354 137.914 388.407 137.967C388.461 138.019 388.524 138.06 388.594 138.088C388.664 138.116 388.739 138.129 388.814 138.128Z" fill="#F0F0F0"/>
<path d="M256.199 155.507L209.095 51.5569H192.424L239.518 155.507H256.199Z" fill="white"/>
<path d="M134.369 155.496V51.5466H133.352V155.496H134.369Z" fill="#E6E6E6"/>
<g opacity="0.5">
<path d="M123.418 62.372H395.603L396.34 54.615H124.155L123.418 62.372Z" fill="#E6E6E6"/>
<path d="M123.418 75.1949H395.603L396.34 67.4277H124.155L123.418 75.1949Z" fill="#E6E6E6"/>
<path d="M123.418 88.0077H395.603L396.34 80.2507H124.155L123.418 88.0077Z" fill="#E6E6E6"/>
<path d="M123.418 100.831H395.603L396.34 93.0635H124.155L123.418 100.831Z" fill="#E6E6E6"/>
<path d="M123.418 113.643H395.603L396.34 105.876H124.155L123.418 113.643Z" fill="#E6E6E6"/>
<path d="M123.418 126.456H395.603L396.34 118.699H124.155L123.418 126.456Z" fill="#E6E6E6"/>
</g>
<path d="M410.28 349.024H437.164V244.218H410.28V349.024Z" fill="#F0F0F0"/>
<path d="M305.141 353.968H431.995V349.024H305.141V353.968Z" fill="#F0F0F0"/>
<path d="M410.28 244.218H299.982V349.024H410.28V244.218Z" fill="#F5F5F5"/>
<path d="M399.692 309.842H310.549C310.492 309.842 310.436 309.83 310.384 309.809C310.331 309.787 310.284 309.756 310.244 309.716C310.205 309.676 310.173 309.628 310.153 309.577C310.132 309.525 310.122 309.469 310.123 309.414V283.818C310.122 283.763 310.132 283.707 310.153 283.655C310.173 283.604 310.205 283.556 310.244 283.516C310.284 283.476 310.331 283.445 310.384 283.423C310.436 283.401 310.492 283.39 310.549 283.39H345.093C345.175 283.39 345.256 283.413 345.325 283.456C345.394 283.498 345.45 283.559 345.486 283.632C345.522 283.704 345.536 283.785 345.527 283.865C345.518 283.945 345.487 284.02 345.436 284.084C345.256 284.307 345.157 284.583 345.156 284.868C345.16 285.047 345.2 285.224 345.274 285.387C345.347 285.551 345.453 285.699 345.586 285.822C345.718 285.945 345.874 286.041 346.044 286.105C346.214 286.169 346.396 286.199 346.578 286.194H363.674C363.856 286.199 364.037 286.169 364.208 286.105C364.378 286.041 364.534 285.945 364.666 285.822C364.798 285.699 364.904 285.551 364.978 285.387C365.052 285.224 365.092 285.047 365.096 284.868C365.094 284.583 364.996 284.307 364.815 284.084C364.765 284.02 364.733 283.945 364.724 283.865C364.716 283.785 364.73 283.704 364.766 283.632C364.801 283.559 364.857 283.498 364.927 283.456C364.996 283.413 365.076 283.39 365.158 283.39H399.692C399.808 283.39 399.919 283.435 400.001 283.516C400.082 283.596 400.128 283.705 400.128 283.818V309.414C400.128 309.527 400.082 309.636 400.001 309.716C399.919 309.797 399.808 309.842 399.692 309.842ZM310.985 308.985H399.215V284.247H365.874C365.936 284.448 365.968 284.658 365.968 284.868C365.957 285.456 365.709 286.015 365.279 286.424C364.849 286.833 364.272 287.058 363.674 287.05H346.578C345.979 287.058 345.402 286.833 344.972 286.424C344.542 286.015 344.295 285.456 344.284 284.868C344.284 284.658 344.315 284.448 344.377 284.247H310.985V308.985Z" fill="white"/>
<path d="M399.692 340.105H310.549C310.492 340.105 310.436 340.094 310.384 340.072C310.331 340.051 310.284 340.019 310.244 339.979C310.205 339.939 310.173 339.892 310.153 339.84C310.132 339.788 310.122 339.733 310.123 339.677V314.082C310.122 314.026 310.132 313.971 310.153 313.919C310.173 313.867 310.205 313.82 310.244 313.78C310.284 313.74 310.331 313.708 310.384 313.687C310.436 313.665 310.492 313.654 310.549 313.654H345.104C345.186 313.656 345.266 313.68 345.335 313.723C345.405 313.766 345.461 313.827 345.498 313.898C345.533 313.973 345.545 314.055 345.534 314.137C345.523 314.218 345.489 314.294 345.436 314.357C345.251 314.574 345.152 314.849 345.156 315.132C345.16 315.311 345.2 315.488 345.273 315.652C345.347 315.816 345.453 315.965 345.585 316.089C345.717 316.213 345.873 316.31 346.043 316.375C346.213 316.44 346.395 316.471 346.578 316.467H363.674C363.856 316.471 364.038 316.44 364.208 316.375C364.379 316.31 364.534 316.213 364.666 316.089C364.798 315.965 364.904 315.816 364.978 315.652C365.052 315.488 365.092 315.311 365.096 315.132C365.094 314.85 364.996 314.577 364.815 314.357C364.76 314.295 364.725 314.219 364.714 314.137C364.703 314.055 364.716 313.972 364.753 313.898C364.79 313.827 364.847 313.766 364.916 313.723C364.986 313.68 365.066 313.656 365.148 313.654H399.692C399.808 313.654 399.919 313.699 400.001 313.779C400.082 313.859 400.128 313.968 400.128 314.082V339.677C400.128 339.79 400.082 339.899 400.001 339.98C399.919 340.06 399.808 340.105 399.692 340.105ZM310.985 339.29H399.215V314.51H365.874C365.936 314.712 365.968 314.921 365.968 315.132C365.964 315.424 365.901 315.712 365.784 315.98C365.666 316.248 365.496 316.491 365.283 316.694C365.07 316.898 364.818 317.058 364.542 317.166C364.266 317.274 363.971 317.327 363.674 317.323H346.578C346.281 317.327 345.986 317.274 345.709 317.166C345.433 317.058 345.182 316.898 344.969 316.694C344.756 316.491 344.585 316.248 344.468 315.98C344.35 315.712 344.288 315.424 344.284 315.132C344.284 314.921 344.315 314.712 344.377 314.51H310.985V339.29Z" fill="white"/>
<path d="M399.692 279.578H310.549C310.492 279.578 310.436 279.567 310.384 279.545C310.331 279.524 310.284 279.492 310.244 279.452C310.205 279.412 310.173 279.365 310.153 279.313C310.132 279.261 310.122 279.206 310.123 279.15V253.555C310.122 253.499 310.132 253.444 310.153 253.392C310.173 253.34 310.205 253.293 310.244 253.253C310.284 253.213 310.331 253.181 310.384 253.16C310.436 253.138 310.492 253.127 310.549 253.127H345.093C345.176 253.129 345.255 253.153 345.325 253.196C345.394 253.239 345.451 253.3 345.488 253.372C345.531 253.441 345.554 253.52 345.554 253.601C345.554 253.682 345.531 253.761 345.488 253.83C345.303 254.047 345.204 254.322 345.208 254.605C345.212 254.784 345.252 254.96 345.326 255.124C345.399 255.288 345.505 255.435 345.638 255.558C345.77 255.682 345.926 255.778 346.096 255.842C346.266 255.905 346.448 255.935 346.63 255.93H363.726C363.908 255.935 364.089 255.905 364.259 255.842C364.43 255.778 364.586 255.682 364.718 255.558C364.85 255.435 364.956 255.288 365.03 255.124C365.104 254.96 365.144 254.784 365.148 254.605C365.152 254.322 365.052 254.047 364.867 253.83C364.824 253.761 364.801 253.682 364.801 253.601C364.801 253.52 364.824 253.441 364.867 253.372C364.905 253.3 364.961 253.239 365.03 253.196C365.1 253.153 365.18 253.129 365.262 253.127H399.796C399.853 253.127 399.91 253.138 399.963 253.16C400.016 253.181 400.064 253.213 400.104 253.252C400.145 253.292 400.177 253.339 400.199 253.391C400.221 253.443 400.232 253.499 400.232 253.555V279.15C400.236 279.217 400.224 279.283 400.197 279.344C400.169 279.405 400.128 279.459 400.075 279.501C400.022 279.543 399.96 279.572 399.893 279.585C399.826 279.599 399.758 279.596 399.692 279.578ZM310.985 278.722H399.215V253.983H365.874C365.936 254.185 365.968 254.394 365.968 254.605C365.957 255.193 365.709 255.752 365.279 256.161C364.849 256.57 364.272 256.794 363.674 256.786H346.578C345.979 256.794 345.402 256.57 344.972 256.161C344.542 255.752 344.295 255.193 344.284 254.605C344.284 254.394 344.315 254.185 344.377 253.983H310.985V278.722Z" fill="white"/>
<path d="M296.401 244.218H410.28V235.615H296.401V244.218Z" fill="#F0F0F0"/>
<path d="M440.911 235.615H410.27V244.218H440.911V235.615Z" fill="#E6E6E6"/>
<path d="M50.644 353.958H93.7521L93.7521 211.783H50.644L50.644 353.958Z" fill="#F5F5F5"/>
<path d="M50.6545 353.958H57.7648L57.7648 211.783H50.6545L50.6545 353.958Z" fill="#F0F0F0"/>
<path d="M250.77 216.482H87.109V252.057H250.77V216.482Z" fill="#E6E6E6"/>
<path d="M250.77 262.708H87.109V270.924H250.77V262.708Z" fill="#E6E6E6"/>
<path d="M241.21 211.794H50.6544V224.148H241.21V211.794Z" fill="#F0F0F0"/>
<path d="M241.21 353.958H284.308V211.783H241.21V353.958Z" fill="#F5F5F5"/>
<path d="M241.2 353.958H248.31L248.31 211.783H241.2L241.2 353.958Z" fill="#F0F0F0"/>
<path d="M259.5 400C370.652 400 460.758 394.834 460.758 388.461C460.758 382.089 370.652 376.923 259.5 376.923C148.348 376.923 58.2422 382.089 58.2422 388.461C58.2422 394.834 148.348 400 259.5 400Z" fill="#F5F5F5"/>
<path d="M194.106 118.098C192.248 119.831 190.042 121.165 187.629 122.012C187.498 119.415 187.041 116.844 186.269 114.357C186.269 114.357 186.477 119.912 184.868 122.97C182.581 123.682 180.251 124.254 177.892 124.682C177.747 123.991 177.553 123.309 177.311 122.644C177.238 123.399 177.081 124.144 176.844 124.866C168.986 126.273 158.16 128.566 148.372 126.905C142.403 119.362 148.652 113.786 149.264 109.332C150.064 103.501 144.5 102.135 145.175 97.4055C145.849 92.6759 151.237 95.5504 153.946 90.199C157.537 83.0638 165.426 78.8336 172.318 80.1689C181.442 81.9527 178.297 95.3771 185.345 99.6888C192.393 104.001 195.891 111.442 194.106 118.098Z" fill="#263238"/>
<path d="M193.95 119.861H193.867C193.836 119.851 193.806 119.834 193.781 119.813C193.756 119.791 193.736 119.765 193.721 119.735C193.707 119.706 193.698 119.674 193.697 119.641C193.695 119.608 193.7 119.576 193.712 119.545C195.632 114.061 196.535 107.007 186.331 101.065C182.563 98.8631 181.515 94.898 180.487 91.0653C179.107 85.877 177.82 80.9843 169.858 81.0964C169.794 81.0917 169.733 81.0644 169.687 81.0195C169.642 80.9746 169.614 80.9151 169.609 80.8518C169.606 80.8185 169.61 80.7849 169.622 80.7533C169.633 80.7217 169.651 80.6929 169.675 80.6688C169.698 80.6446 169.727 80.6257 169.759 80.6134C169.79 80.601 169.824 80.5954 169.858 80.597C178.162 80.4848 179.615 85.7955 180.986 90.9328C181.972 94.6737 183.01 98.5369 186.591 100.637C197.23 106.834 196.016 114.489 194.189 119.708C194.169 119.754 194.135 119.792 194.093 119.82C194.05 119.847 194.001 119.861 193.95 119.861Z" fill="#263238"/>
<path d="M182.688 185.699C182.688 185.699 182.273 235.543 179.096 276.489C172.215 317.017 166.184 372.651 166.184 372.651H159.603C159.603 372.651 152.97 298.822 160.288 275.072C155.949 244.615 157.298 186.524 157.298 186.524L182.688 185.699Z" fill="#B55B52"/>
<path d="M191.376 141.756C191.376 142.225 191.376 142.918 191.376 143.509L191.459 145.375C191.532 146.628 191.646 147.882 191.791 149.115C192.06 151.578 192.497 154.019 193.099 156.424C193.677 158.718 194.484 160.951 195.507 163.09C196.45 165.065 197.727 166.868 199.286 168.421L199.67 168.798C199.493 168.622 199.264 168.504 199.016 168.462C198.891 168.462 199.016 168.523 199.337 168.513C200.195 168.424 201.034 168.211 201.829 167.881C203.949 167.036 205.991 166.013 207.932 164.823C210.008 163.61 212.022 162.265 214.046 160.878C216.07 159.492 218.105 158.045 220.066 156.618C220.54 156.272 221.127 156.109 221.715 156.162C222.303 156.214 222.85 156.477 223.252 156.902C223.655 157.326 223.884 157.881 223.895 158.46C223.907 159.04 223.7 159.603 223.315 160.043C221.592 162.02 219.796 163.804 217.938 165.598C216.08 167.392 214.119 169.074 212.032 170.694C209.875 172.404 207.552 173.903 205.098 175.169C203.617 175.917 202.033 176.449 200.396 176.749C199.255 176.951 198.084 176.931 196.95 176.688C195.457 176.363 194.104 175.59 193.078 174.476L193.473 174.863C190.974 172.749 188.891 170.203 187.328 167.351C185.847 164.679 184.687 161.846 183.871 158.911C183.066 156.088 182.479 153.208 182.117 150.298C181.941 148.861 181.816 147.413 181.733 145.966C181.733 145.242 181.66 144.518 181.65 143.784C181.64 143.051 181.65 142.368 181.65 141.491C181.727 140.273 182.281 139.132 183.195 138.305C184.109 137.479 185.313 137.031 186.556 137.056C187.798 137.081 188.983 137.577 189.861 138.439C190.74 139.302 191.246 140.465 191.272 141.685L191.376 141.756Z" fill="#B55B52"/>
<path d="M230.166 156.556L229.907 152.632C229.885 152.322 229.797 152.02 229.65 151.746C229.502 151.471 229.297 151.23 229.049 151.038C228.801 150.846 228.514 150.707 228.207 150.631C227.901 150.554 227.582 150.541 227.27 150.593C225.278 150.923 223.454 151.891 222.08 153.346L217.72 157.932L216.932 162.214C220.44 163.906 225.35 160.44 225.35 160.44L228.931 158.707C229.33 158.509 229.661 158.199 229.881 157.816C230.101 157.433 230.2 156.995 230.166 156.556Z" fill="#B55B52"/>
<path d="M188.22 134.549C195.102 139.982 194.054 145.976 195.58 150.4C192.393 155.7 179.792 158.197 179.792 158.197C179.792 158.197 180.799 128.688 188.22 134.549Z" fill="#0EA362"/>
<path d="M191.272 140.522C192.31 154.436 183.705 164.986 182.968 179.654L147.199 178.798C148.237 164.527 147.801 165.934 142.694 138.3C142.552 137.538 142.572 136.755 142.751 136C142.929 135.245 143.264 134.534 143.734 133.911C144.204 133.288 144.799 132.766 145.483 132.378C146.166 131.99 146.923 131.744 147.707 131.654C150.365 131.359 153.655 131.073 157.112 131.012C162.904 130.763 168.708 130.923 174.477 131.491C178.204 131.93 182.179 132.633 185.21 133.224C188.771 133.887 190.992 136.955 191.272 140.522Z" fill="#0EA362"/>
<path d="M175.495 145.446C175.64 146.883 174.903 148.045 173.844 148.045C172.785 148.045 171.768 146.893 171.664 145.456C171.561 144.019 172.256 142.847 173.315 142.847C174.374 142.847 175.349 144.009 175.495 145.446Z" fill="white"/>
<path d="M173.574 138.953C175.983 139.554 178.557 141.175 179.584 145.313C186.767 134.753 174.498 131.461 174.498 131.461L173.574 138.953Z" fill="white"/>
<path d="M169.35 139.503C168.465 139.39 167.567 139.45 166.706 139.679C165.846 139.909 165.04 140.303 164.334 140.839C163.629 141.375 163.039 142.043 162.598 142.804C162.156 143.564 161.872 144.403 161.762 145.272C153.883 135.202 157.132 130.941 157.132 130.941L169.35 139.503Z" fill="white"/>
<path d="M159.406 111.829C160.34 117.343 161.149 127.424 157.132 130.982C157.132 130.982 164.212 138.515 172.277 140.502C173.455 139.34 174.286 137.882 174.677 136.287C175.069 134.693 175.007 133.023 174.498 131.461C168.27 129.83 168.602 125.294 169.806 121.064L159.406 111.829Z" fill="#B55B52"/>
<path opacity="0.2" d="M163.641 115.6L169.806 121.054C169.502 122.052 169.294 123.075 169.184 124.112C166.807 123.704 163.61 121.054 163.433 118.597C163.313 117.594 163.383 116.578 163.641 115.6Z" fill="black"/>
<path d="M152.814 105.693C156.468 114.143 157.838 117.792 163.879 120.677C172.962 125.019 182.73 118.76 181.723 109.413C180.809 100.994 174.986 88.5986 165.115 88.1501C162.945 88.047 160.784 88.4897 158.838 89.4361C156.891 90.3826 155.223 91.8015 153.991 93.5584C152.759 95.3153 152.004 97.352 151.798 99.4755C151.593 101.599 151.942 103.739 152.814 105.693Z" fill="#B55B52"/>
<path d="M151.704 98.9547C163.392 98.863 179.73 93.1242 174.924 87.1205C172.464 75.1741 151.87 87.6097 151.704 98.9547Z" fill="#263238"/>
<path d="M153.468 96.9776C161.295 101.279 159.219 109.607 154.257 111.248C149.015 105.071 147.707 95.8971 153.468 96.9776Z" fill="#263238"/>
<path d="M167.803 109.117C167.803 109.117 170.46 108.638 177.82 109.046C176.782 111.258 175.111 113.021 171.343 112.777C170.86 112.782 170.382 112.689 169.938 112.505C169.494 112.32 169.093 112.048 168.761 111.704C168.429 111.361 168.172 110.954 168.007 110.509C167.843 110.064 167.773 109.59 167.803 109.117Z" fill="#263238"/>
<path d="M172.848 110.412C171.405 110.252 169.948 110.556 168.696 111.278C169.356 111.791 170.169 112.077 171.01 112.094C172.455 112.253 173.913 111.945 175.162 111.217C174.502 110.706 173.688 110.423 172.848 110.412Z" fill="#A02724"/>
<path d="M168.156 109.066C168.156 109.495 168.364 109.749 169.038 110.025C171.008 110.256 172.996 110.304 174.976 110.167C175.937 110.13 176.844 109.719 177.498 109.026C174.388 108.796 171.264 108.809 168.156 109.066Z" fill="white"/>
<path d="M166.91 103.104C167.159 103.807 167.741 104.245 168.218 104.123C168.696 104.001 168.851 103.256 168.602 102.553C168.353 101.85 167.761 101.412 167.294 101.534C166.827 101.656 166.651 102.4 166.91 103.104Z" fill="#263238"/>
<path d="M176.086 99.9437C176.335 100.647 176.927 101.085 177.394 100.963C177.861 100.841 178.038 100.097 177.778 99.3932C177.519 98.6899 176.937 98.2516 176.47 98.3739C176.003 98.4963 175.837 99.2404 176.086 99.9437Z" fill="#263238"/>
<path d="M176.284 98.4862L177.83 97.3955C177.83 97.3955 177.415 99.0264 176.284 98.4862Z" fill="#263238"/>
<path d="M173.471 101.687C174.678 103.069 176.075 104.28 177.623 105.285C177.35 105.67 176.995 105.992 176.583 106.227C176.171 106.463 175.71 106.608 175.235 106.651L173.471 101.687Z" fill="#A02724"/>
<path d="M152.586 113.868C153.195 114.525 153.93 115.057 154.75 115.433C155.569 115.809 156.457 116.022 157.361 116.059C159.759 116.141 160.392 113.908 159.25 111.982C158.212 110.249 155.752 108.119 153.572 108.924C153.109 109.121 152.702 109.426 152.385 109.813C152.069 110.199 151.853 110.655 151.756 111.141C151.659 111.628 151.684 112.13 151.828 112.605C151.973 113.08 152.233 113.513 152.586 113.868Z" fill="#B55B52"/>
<path d="M162.675 101.85C162.732 101.837 162.786 101.812 162.833 101.776C162.879 101.741 162.917 101.697 162.945 101.646C163.203 101.156 163.575 100.733 164.032 100.412C164.488 100.092 165.016 99.882 165.571 99.8011C165.688 99.7883 165.795 99.7331 165.872 99.6462C165.949 99.5593 165.99 99.4473 165.987 99.3322C165.983 99.2746 165.967 99.2183 165.941 99.1666C165.915 99.1149 165.878 99.0688 165.834 99.0309C165.79 98.993 165.738 98.9641 165.682 98.9458C165.627 98.9276 165.568 98.9203 165.509 98.9245C164.805 99.0145 164.134 99.27 163.552 99.6692C162.97 100.069 162.495 100.6 162.167 101.218C162.111 101.319 162.098 101.438 162.131 101.549C162.164 101.66 162.24 101.753 162.343 101.809C162.393 101.838 162.448 101.857 162.505 101.864C162.562 101.871 162.62 101.866 162.675 101.85Z" fill="#263238"/>
<path d="M176.875 96.6106C176.973 96.5528 177.047 96.4623 177.083 96.3557C177.1 96.3009 177.106 96.2431 177.1 96.1859C177.095 96.1288 177.077 96.0733 177.049 96.0229C177.021 95.9725 176.983 95.9281 176.937 95.8925C176.891 95.8569 176.838 95.8307 176.782 95.8155C176.109 95.5953 175.392 95.5388 174.693 95.6506C173.993 95.7625 173.331 96.0394 172.765 96.4577C172.68 96.5337 172.628 96.639 172.62 96.7516C172.612 96.8641 172.649 96.9753 172.723 97.062C172.796 97.1487 172.901 97.2042 173.015 97.2169C173.129 97.2296 173.244 97.1987 173.336 97.1304C173.789 96.8062 174.315 96.5935 174.87 96.5102C175.424 96.4268 175.991 96.4752 176.522 96.6513C176.581 96.668 176.642 96.673 176.703 96.666C176.764 96.659 176.822 96.6402 176.875 96.6106Z" fill="#263238"/>
<path d="M167.118 101.646L168.654 100.555C168.654 100.555 168.239 102.186 167.118 101.646Z" fill="#263238"/>
<path d="M173.118 186.901C173.118 186.901 166.454 237.867 155.7 278.13C141.023 308.801 123.74 332.49 106.021 357.637L99.7932 354.375C111.948 327.282 124.954 295.193 137.265 274.073C146.171 197.196 145.185 186.932 145.185 186.932L173.118 186.901Z" fill="#B55B52"/>
<path d="M110.339 378.023C109.945 376.382 106.582 372.06 106.582 372.06C106.582 372.06 105.544 366.199 108.596 355.395C108.632 355.268 108.632 355.135 108.595 355.009C108.559 354.883 108.487 354.769 108.388 354.681L102.284 349.258C102.11 349.114 101.885 349.041 101.658 349.055C101.43 349.068 101.216 349.166 101.06 349.33C100.541 349.86 98.8591 352.795 98.2571 353.692C97.655 354.589 96.7623 355.894 96.1811 356.75C94.1051 359.971 89.6728 367.341 89.6728 367.341L90.4721 367.759C91.9398 365.575 93.5377 363.478 95.2572 361.48C97.0633 359.594 96.9803 362.917 96.2952 365.761C95.6101 368.605 97.4578 373.039 102.523 375.954C108.544 379.247 110.755 379.705 110.339 378.023Z" fill="#263238"/>
<path d="M182.989 179.624C190.566 203.15 184.805 227.032 181.204 272.127C164.596 274.583 149.721 272.127 132.625 267.03C143.607 215.269 130.061 202.365 147.219 178.768L182.989 179.624Z" fill="#0EA362"/>
<path d="M146.607 176.199C146.402 177.112 146.264 178.039 146.192 178.971C146.157 179.15 146.189 179.336 146.283 179.493C146.376 179.65 146.525 179.769 146.701 179.827C150.551 180.408 173.097 183.629 183.165 181.183C183.309 181.126 183.429 181.024 183.508 180.894C183.587 180.763 183.62 180.61 183.601 180.459C183.601 179.613 183.601 178.288 183.601 177.463C183.601 177.035 183.342 176.678 183.02 176.678C179.501 176.678 160.931 176.759 147.126 175.74C146.998 175.742 146.874 175.789 146.779 175.873C146.683 175.958 146.622 176.073 146.607 176.199Z" fill="#263238"/>
<path d="M164.886 175.842C166.62 175.393 176.792 175.689 177.716 176.107C178.64 176.525 178.193 182.039 177.373 182.386C175.744 183.099 166.474 182.916 164.803 182.549C163.132 182.182 163.703 176.199 164.886 175.842Z" fill="white"/>
<path opacity="0.2" d="M164.99 236.603L166.391 213.873L174.384 203.078L164.99 236.603Z" fill="black"/>
<path d="M149.368 144.6C147.988 146.272 146.472 148.117 145.112 149.941C143.753 151.766 142.351 153.621 141.106 155.517C138.604 159.056 136.59 162.906 135.116 166.964C134.992 167.433 134.847 167.891 134.763 168.33L134.691 168.615C134.691 168.615 134.691 168.666 134.691 168.737C134.792 169.407 135.017 170.053 135.355 170.643C136.401 172.468 137.643 174.176 139.061 175.74C142.163 179.196 145.458 182.48 148.932 185.576L148.994 185.638C149.422 186.031 149.688 186.565 149.742 187.137C149.796 187.71 149.635 188.283 149.289 188.747C148.943 189.211 148.436 189.535 147.863 189.657C147.291 189.779 146.692 189.691 146.181 189.409C141.751 186.993 137.596 184.119 133.788 180.837C131.713 179.068 129.872 177.051 128.307 174.833C127.308 173.419 126.602 171.826 126.231 170.144C126.125 169.596 126.069 169.04 126.065 168.483C126.065 168.197 126.065 167.881 126.065 167.565C126.065 167.249 126.117 167.178 126.148 166.974C126.241 166.23 126.397 165.537 126.543 164.833C127.194 162.219 128.119 159.677 129.304 157.25C130.414 154.944 131.662 152.704 133.04 150.543C134.39 148.402 135.781 146.312 137.296 144.325C138.812 142.337 140.317 140.411 142.092 138.443C142.934 137.543 144.098 136.998 145.34 136.923C146.582 136.847 147.806 137.246 148.755 138.037C149.704 138.828 150.304 139.949 150.43 141.165C150.556 142.38 150.198 143.597 149.43 144.559L149.368 144.6Z" fill="#B55B52"/>
<path d="M148.154 131.573C141.376 131.97 139.154 135.752 136.819 139.819C138.895 145.619 147.51 154.936 147.51 154.936C147.51 154.936 160.464 130.859 148.154 131.573Z" fill="#0EA362"/>
<path d="M222.35 151.185C210.818 143.713 195.487 147.933 188.096 160.593C176.553 153.121 161.222 157.341 153.842 170.001C146.462 182.661 149.835 198.991 161.367 206.462L203.147 233.505L229.865 187.635C237.266 174.976 233.893 158.656 222.35 151.185Z" fill="#0EA362"/>
<path opacity="0.9" d="M222.35 151.185C210.818 143.713 195.487 147.933 188.096 160.593C176.553 153.121 161.222 157.341 153.842 170.001C146.462 182.661 149.835 198.991 161.367 206.462L203.147 233.505L229.865 187.635C237.266 174.976 233.893 158.656 222.35 151.185Z" fill="white"/>
<path opacity="0.2" d="M163.931 202.11C161.648 200.593 159.694 198.646 158.182 196.382C156.671 194.118 155.634 191.581 155.129 188.92C153.983 183.342 154.943 177.545 157.828 172.611C160.524 167.794 165.056 164.224 170.429 162.683C172.973 161.965 175.645 161.799 178.26 162.197C180.875 162.594 183.371 163.546 185.574 164.986L189.539 167.555L192.071 163.202C194.772 158.385 199.307 154.815 204.683 153.274C207.225 152.556 209.895 152.391 212.509 152.789C215.122 153.186 217.616 154.138 219.817 155.578C229.159 161.622 231.889 174.874 225.921 185.138L201.746 226.645L163.931 202.11Z" fill="#0EA362"/>
<path d="M203.915 206.992L192.134 210.223L184.546 173.497L196.327 170.266L203.915 206.992Z" fill="#0EA362"/>
<path d="M178.276 201.254L175.681 188.716L210.185 179.236L212.769 191.774L178.276 201.254Z" fill="#0EA362"/>
<path d="M145.974 183.946L154.921 184.16L150.219 191.223C150.219 191.223 144.884 189.929 143.514 186.229L145.974 183.946Z" fill="#B55B52"/>
<path d="M158.627 189.256L156.935 192.977C156.842 193.196 156.699 193.393 156.519 193.552C156.339 193.711 156.125 193.829 155.893 193.897C155.66 193.966 155.415 193.983 155.176 193.947C154.936 193.911 154.707 193.823 154.506 193.69L150.219 191.224L154.921 184.16L158.098 187.034C158.402 187.31 158.614 187.67 158.709 188.066C158.803 188.462 158.775 188.876 158.627 189.256Z" fill="#B55B52"/>
<path d="M181.411 386.657C180.155 385.393 175.37 383.732 175.37 383.732C175.37 383.732 170.896 377.83 167.346 366.903C167.304 366.773 167.228 366.656 167.126 366.563C167.024 366.47 166.9 366.405 166.765 366.373L158.606 364.456C158.496 364.423 158.379 364.413 158.264 364.427C158.15 364.442 158.039 364.48 157.941 364.54C157.842 364.6 157.758 364.68 157.694 364.775C157.63 364.869 157.587 364.976 157.568 365.088C157.433 365.792 157.568 369.808 157.568 370.888C157.568 371.969 157.568 373.518 157.568 374.548C157.641 378.35 158.067 386.902 158.067 386.902H158.97C158.973 384.309 159.136 381.718 159.457 379.145C159.904 376.637 161.71 379.603 162.717 382.437C163.724 385.271 167.782 388.288 173.678 388.431C180.612 388.594 182.688 387.972 181.411 386.657Z" fill="#263238"/>
<path d="M343.962 364.202L359.843 364.344L359.241 382.753L345.976 382.641L343.962 364.202Z" fill="#FFC3BD"/>
<path opacity="0.2" d="M343.972 364.202L359.854 364.355L359.511 374.66L345.093 374.538L343.972 364.202Z" fill="black"/>
<path d="M360.819 290.913C366.362 266.704 375.538 241.14 365.874 219.418L321.78 223.2C321.78 223.2 326.15 274.726 327.323 296.499C328.548 319.138 343.516 371.367 343.516 371.367H361.681C361.681 371.367 364.483 315.978 360.819 290.913Z" fill="#263238"/>
<path d="M361.785 388.441H357.633L356.595 387.065L354.861 388.461H331.444C331.213 386.872 331.429 385.251 332.067 383.773C332.067 383.773 340.194 382.478 343.339 380.358C343.606 380.177 343.907 380.052 344.225 379.989C344.542 379.926 344.87 379.926 345.187 379.991C348.021 380.521 355.515 381.714 359.574 380.164C359.674 380.135 359.779 380.128 359.882 380.144C359.985 380.16 360.084 380.198 360.17 380.255C360.256 380.313 360.329 380.388 360.382 380.477C360.435 380.565 360.467 380.664 360.477 380.766C360.71 383.353 361.147 385.92 361.785 388.441Z" fill="#263238"/>
<path d="M412.439 353.519L427.739 349.31L433.635 366.791L420.857 370.328L412.439 353.519Z" fill="#FFC3BD"/>
<path opacity="0.2" d="M412.449 353.53L427.749 349.31L431.05 359.105L417.162 362.938L412.449 353.53Z" fill="black"/>
<path d="M410.456 286.499C409.564 262.871 408.059 227.532 399.038 217.43L349.661 220.723C349.661 220.723 368.106 270.995 375.216 292.238C382.617 314.326 414.567 360.379 414.567 360.379L431.071 355.721C431.071 355.721 419.352 312.787 410.456 286.499Z" fill="#263238"/>
<path d="M276.596 187.024L277.956 193.456C276.918 200.275 268.178 197.37 268.178 197.37L263.434 197.635C262.592 197.63 261.78 197.331 261.143 196.791C260.506 196.251 260.085 195.506 259.957 194.689L258.971 190.204C258.708 189.293 258.818 188.318 259.278 187.486C259.737 186.653 260.51 186.031 261.431 185.75L265.479 184.863C266.655 184.608 267.878 184.639 269.039 184.955L276.596 187.024Z" fill="#FFC3BD"/>
<path d="M251.705 199.979C248.052 199.973 244.507 198.764 241.636 196.547C238.764 194.33 236.733 191.232 235.865 187.747C235.767 187.353 235.833 186.936 236.048 186.589C236.263 186.242 236.61 185.993 237.012 185.897C237.414 185.801 237.838 185.866 238.191 186.077C238.545 186.289 238.798 186.629 238.896 187.024C239.722 190.369 241.867 193.255 244.86 195.048C247.853 196.84 251.448 197.391 254.855 196.58C258.262 195.769 261.201 193.662 263.026 190.723C264.851 187.784 265.412 184.253 264.586 180.908L221.54 6.06462C221.444 5.66993 221.511 5.25381 221.727 4.90781C221.943 4.56182 222.291 4.31428 222.692 4.21966C223.094 4.12504 223.518 4.19109 223.871 4.40328C224.223 4.61546 224.475 4.95641 224.571 5.3511L267.607 180.164C268.114 182.211 268.206 184.337 267.875 186.419C267.545 188.501 266.8 190.499 265.682 192.298C264.565 194.097 263.097 195.662 261.363 196.903C259.629 198.144 257.662 199.037 255.576 199.531C254.308 199.83 253.009 199.981 251.705 199.979Z" fill="#263238"/>
<path d="M111.71 84.3381C111.232 80.1284 118.799 74.8993 129.055 72.4631C139.673 69.9454 149.098 71.3622 150.157 75.6332C149.119 71.3622 159.727 65.1852 173.886 61.8214C188.044 58.4577 200.334 59.1916 201.372 63.4625C200.334 59.1916 214.648 52.1379 233.363 47.6937C252.078 43.2495 268.136 43.0966 269.185 47.3675C268.147 43.0966 278.745 36.9195 292.903 33.5558C307.061 30.1921 319.361 30.926 320.41 35.1969C319.372 30.926 327.115 25.4319 337.703 22.9651C347.958 20.5289 357.155 21.7725 358.681 25.7478C351.778 0.0508892 291.564 -7.72649 223.679 8.41947C155.793 24.5654 105.876 58.3863 111.71 84.3381Z" fill="#0EA362"/>
<path opacity="0.2" d="M150.157 75.6331C149.119 71.3621 159.727 65.1851 173.886 61.8213C188.044 58.4576 200.334 59.1915 201.372 63.4624C200.334 59.1915 214.648 52.1378 233.363 47.6936C252.078 43.2494 268.136 43.0965 269.185 47.3674C268.147 43.0965 278.745 36.9194 292.903 33.5557C307.061 30.192 319.361 30.9259 320.41 35.1968C314.016 9.20424 270.71 -2.82369 223.679 8.34801C176.647 19.5197 143.753 49.6303 150.157 75.6331Z" fill="black"/>
<path d="M201.372 63.4624C200.334 59.1915 214.648 52.1378 233.363 47.6936C252.078 43.2494 268.136 43.0965 269.185 47.3674C262.811 21.3647 242.425 3.93435 223.71 8.34799C204.995 12.7616 194.999 37.4597 201.372 63.4624Z" fill="#0EA362"/>
<path d="M278.184 187.768C275.35 182.855 270.202 183.14 266.143 182.131C265.458 181.958 264.368 183.487 265.209 184.445C265.674 185.074 266.262 185.604 266.94 186.005C267.618 186.406 268.37 186.669 269.153 186.779C269.351 188.533 271.634 193.119 276.679 192.62C277.769 191.238 278.304 189.512 278.184 187.768Z" fill="#FFC3BD"/>
<path d="M350.377 147.393C348.218 150.573 345.997 153.652 343.786 156.761C341.575 159.869 339.312 162.938 337.018 165.996C332.44 172.111 327.759 178.176 322.828 184.221L320.752 186.8L318.811 187.625C317.773 188.064 316.735 188.522 315.77 188.9L312.926 189.919C311.099 190.51 309.282 191.091 307.507 191.591C303.958 192.61 300.439 193.486 296.951 194.302C293.463 195.117 289.955 195.831 286.467 196.483C282.98 197.136 279.492 197.747 275.9 198.247L271.655 182.243L290.796 174.884C293.962 173.681 297.024 172.397 300.086 171.143C301.601 170.511 303.034 169.859 304.456 169.217L306.428 168.197L308.11 167.28L304.061 170.684C308.161 164.569 312.251 158.259 316.362 151.99L322.59 142.572C324.666 139.453 326.742 136.282 328.818 133.214L350.377 147.393Z" fill="#0EA362"/>
<g opacity="0.6">
<path d="M350.377 147.393C348.218 150.573 345.997 153.652 343.786 156.761C341.575 159.869 339.312 162.938 337.018 165.996C332.44 172.111 327.759 178.176 322.828 184.221L320.752 186.8L318.811 187.625C317.773 188.064 316.735 188.522 315.77 188.9L312.926 189.919C311.099 190.51 309.282 191.091 307.507 191.591C303.958 192.61 300.439 193.486 296.951 194.302C293.463 195.117 289.955 195.831 286.467 196.483C282.98 197.136 279.492 197.747 275.9 198.247L271.655 182.243L290.796 174.884C293.962 173.681 297.024 172.397 300.086 171.143C301.601 170.511 303.034 169.859 304.456 169.217L306.428 168.197L308.11 167.28L304.061 170.684C308.161 164.569 312.251 158.259 316.362 151.99L322.59 142.572C324.666 139.453 326.742 136.282 328.818 133.214L350.377 147.393Z" fill="white"/>
</g>
<path d="M339.924 124.754C354.435 122.084 369.203 121.004 383.956 121.533C385.978 121.646 387.955 122.164 389.767 123.054C391.578 123.943 393.186 125.187 394.491 126.708C395.795 128.229 396.771 129.995 397.356 131.899C397.942 133.803 398.126 135.805 397.896 137.781C394.18 172.193 401.312 212.639 401.218 219.387C401.218 219.387 336.862 245.41 319.642 225.697C311.338 184.679 323.295 148.963 328.88 134.03C329.756 131.683 331.232 129.597 333.166 127.973C335.1 126.348 337.428 125.24 339.924 124.754Z" fill="#0EA362"/>
<path d="M398.447 127.7C395.675 124.214 390.745 119.627 374.209 120.463C359.864 132.796 349.868 149.778 349.868 149.778C349.868 149.778 340.755 137.128 349.401 122.766C339.883 123.021 333.655 125.916 331.413 127.445C329.171 128.974 318.178 149.523 315.749 182.141C313.32 214.76 318.666 275.755 320.742 291.382C351.706 303.613 402.91 289.853 413.809 279.15C412.429 254.35 402.92 217.145 401.187 201.345C399.454 185.546 402.941 134.58 398.447 127.7Z" fill="#0EA362"/>
<path opacity="0.7" d="M398.447 127.7C395.675 124.214 390.745 119.627 374.209 120.463C359.864 132.796 349.868 149.778 349.868 149.778C349.868 149.778 340.755 137.128 349.401 122.766C339.883 123.021 333.655 125.916 331.413 127.445C329.171 128.974 318.178 149.523 315.749 182.141C313.32 214.76 318.666 275.755 320.742 291.382C351.706 303.613 402.91 289.853 413.809 279.15C412.429 254.35 402.92 217.145 401.187 201.345C399.454 185.546 402.941 134.58 398.447 127.7Z" fill="white"/>
<path d="M347.076 126.629C347.871 124.715 349.301 123.12 351.135 122.104C351.68 120.222 351.548 118.213 350.761 116.416L371.801 107.721C370.691 114.907 369.839 120.585 372.839 123.765C368.812 126.691 361.421 131.971 352.899 132.491C344.377 133.01 345.965 129.698 347.076 126.629Z" fill="#FFC3BD"/>
<path opacity="0.2" d="M350.989 117.078L367.161 114.693C362.573 120.483 355.048 123.174 351.342 121.319C351.595 119.899 351.473 118.439 350.989 117.078Z" fill="black"/>
<path d="M352.37 132.511L355.619 129.311L360.56 131.217C360.56 131.217 357.799 134.275 352.37 132.511Z" fill="#0EA362"/>
<path opacity="0.3" d="M352.37 132.511L355.619 129.311L360.56 131.217C360.56 131.217 357.799 134.275 352.37 132.511Z" fill="black"/>
<path d="M350.398 104.521C346.152 103.858 344.17 97.8338 346.952 94.4904C349.733 91.1471 343.132 89.8628 345.322 86.6417C347.512 83.4207 353.792 80.1894 357.622 83.1557C361.452 86.1219 352.754 94.8982 354.633 100.097C353.3 101.642 351.886 103.119 350.398 104.521Z" fill="#263238"/>
<path d="M375.019 96.4984C373.4 106.62 372.081 113.46 365.677 117.201C352.91 124.632 346.266 118.414 344.772 108.027C343.422 98.6593 346.287 83.6856 356.833 80.6684C359.163 80.0034 361.627 79.9288 363.994 80.4517C366.362 80.9745 368.556 82.0777 370.372 83.6583C372.188 85.239 373.566 87.2455 374.379 89.4908C375.191 91.7361 375.412 94.1469 375.019 96.4984Z" fill="#FFC3BD"/>
<path d="M370.421 107.222C366.424 105.682 365.791 99.3627 369.268 96.7023C372.746 94.0419 366.559 91.3713 369.414 88.6803C372.268 85.9893 380.655 83.3595 382.181 87.8954C384.579 95.0306 374.843 98.3332 375.528 103.807C373.887 105.031 372.182 106.171 370.421 107.222Z" fill="#263238"/>
<path d="M371.438 88.2523C361.442 91.6364 363.819 84.7459 358.255 85.704C352.692 86.6622 347.149 87.5999 346.017 82.6461C345.093 78.6504 347.792 75.0012 353.148 75.358C350.377 77.1723 351.072 78.9765 353.802 78.0693C356.532 77.1622 363.425 70.6079 367.026 75.8268C370.628 81.0457 376.825 77.0398 379.721 80.4443C382.617 83.8489 377.977 89.557 371.438 88.2523Z" fill="#263238"/>
<path d="M347.138 115.387C347.429 114.896 347.823 114.471 348.294 114.141C348.764 113.81 349.301 113.582 349.868 113.47C351.269 113.944 352.552 114.701 353.636 115.692C354.155 118.159 348.446 120.646 347.616 120.983C347.325 118.781 347.138 115.387 347.138 115.387Z" fill="#263238"/>
<path opacity="0.2" d="M361.224 97.2122C361.816 97.0009 362.444 96.9065 363.073 96.9345C363.701 96.9625 364.318 97.1123 364.888 97.3753C363.667 97.5519 362.423 97.4966 361.224 97.2122Z" fill="black"/>
<path opacity="0.2" d="M361.224 98.0683C361.794 97.9935 362.374 98.0403 362.924 98.2056C363.474 98.371 363.981 98.651 364.411 99.0265C363.291 98.9345 362.204 98.6078 361.224 98.0683Z" fill="black"/>
<path opacity="0.2" d="M346.931 96.0299C346.931 96.0299 346.08 95.0105 345.446 95.5814C345.863 95.9138 346.396 96.0746 346.931 96.0299Z" fill="black"/>
<path opacity="0.2" d="M346.775 96.8249C346.775 96.8249 346.08 95.9279 345.633 96.8249C345.803 96.9345 346.001 96.9929 346.204 96.9929C346.407 96.9929 346.605 96.9345 346.775 96.8249Z" fill="black"/>
<path opacity="0.2" d="M350.045 88.1912C353.077 87.641 356.171 87.5037 359.241 87.7835C354.145 88.2524 350.045 88.1912 350.045 88.1912Z" fill="black"/>
<path opacity="0.2" d="M348.861 89.5571C348.861 89.5571 355.889 89.3124 359.408 90.6783C355.867 90.5822 352.341 90.2073 348.861 89.5571Z" fill="black"/>
<path d="M378.974 106.977C378.25 108.03 377.322 108.932 376.243 109.632C375.163 110.332 373.954 110.815 372.684 111.054C369.269 111.676 367.836 108.608 369.009 105.591C370.047 102.879 373.161 99.2915 376.451 100.025C379.742 100.759 380.728 104.337 378.974 106.977Z" fill="#FFC3BD"/>
<path d="M358.421 97.4977C358.338 98.3233 357.83 98.9451 357.28 98.8941C356.73 98.8432 356.345 98.1194 356.418 97.2938C356.491 96.4682 357.01 95.8362 357.57 95.8872C358.131 95.9381 358.504 96.6924 358.421 97.4977Z" fill="#263238"/>
<path d="M349.464 96.7838C349.38 97.6095 348.872 98.2312 348.322 98.1803C347.772 98.1293 347.388 97.4056 347.46 96.5799C347.533 95.7543 348.052 95.1223 348.612 95.1733C349.173 95.2243 349.547 95.948 349.464 96.7838Z" fill="#263238"/>
<path d="M357.342 106.681C358.67 107.64 362.449 107.018 362.708 105.662C365.148 107.293 363.155 109.831 359.594 110.606C356.034 111.381 351.415 109.964 350.398 108.7L350.522 104.51C353.221 104.011 354.996 105.01 357.342 106.681Z" fill="#263238"/>
<path d="M345.436 105.632C343.993 106.57 343.059 105.968 343.111 104.613C340.848 105.958 341.035 108.078 343.682 109.23C346.329 110.382 349.391 109.852 350.439 108.72L350.688 104.582C348.654 103.828 347.616 104.225 345.436 105.632Z" fill="#263238"/>
<path d="M352.308 97.7114L351.685 104.684C351.685 104.684 348.924 105.05 347.439 103.725C348.481 101.327 350.163 99.2489 352.308 97.7114Z" fill="#ED847E"/>
<path d="M361.463 95.0307C361.551 95.031 361.638 95.0063 361.712 94.9593C361.823 94.8901 361.902 94.7805 361.931 94.6545C361.96 94.5284 361.937 94.3962 361.868 94.2866C361.47 93.6122 360.914 93.041 360.246 92.6207C359.578 92.2005 358.817 91.9433 358.027 91.8708C357.962 91.8681 357.897 91.8781 357.836 91.9003C357.775 91.9225 357.72 91.9565 357.672 92.0002C357.625 92.0438 357.587 92.0964 357.56 92.1547C357.534 92.213 357.52 92.2759 357.518 92.3397C357.516 92.404 357.526 92.4681 357.548 92.5285C357.571 92.5889 357.605 92.6444 357.649 92.6917C357.694 92.7391 357.747 92.7774 357.807 92.8044C357.866 92.8315 357.93 92.8467 357.996 92.8493C358.621 92.9166 359.222 93.1279 359.749 93.4663C360.276 93.8046 360.713 94.2603 361.027 94.7962C361.071 94.8701 361.135 94.9308 361.212 94.9721C361.289 95.0133 361.375 95.0336 361.463 95.0307Z" fill="#263238"/>
<path d="M344.844 93.818C344.928 93.8242 345.011 93.8097 345.088 93.7759C345.164 93.742 345.23 93.6899 345.28 93.6243C345.648 93.1307 346.132 92.7313 346.69 92.4599C347.248 92.1885 347.865 92.0529 348.488 92.0647C348.553 92.0703 348.619 92.0631 348.682 92.0436C348.744 92.024 348.802 91.9925 348.853 91.9508C348.903 91.9091 348.944 91.8581 348.974 91.8007C349.004 91.7433 349.022 91.6806 349.027 91.6162C349.036 91.487 348.993 91.3594 348.908 91.2606C348.823 91.1617 348.702 91.0991 348.571 91.0862C347.782 91.0627 347 91.2265 346.289 91.5636C345.579 91.9008 344.962 92.4014 344.491 93.0229C344.411 93.1246 344.375 93.2533 344.39 93.3811C344.406 93.509 344.472 93.6256 344.574 93.7058C344.653 93.7661 344.746 93.8048 344.844 93.818Z" fill="#263238"/>
<path d="M418.584 209.765L424.812 207.38C431.839 207.319 430.365 216.207 430.365 216.207L431.403 220.763C431.537 221.577 431.371 222.41 430.935 223.115C430.5 223.819 429.823 224.348 429.026 224.606L424.677 226.308C423.807 226.712 422.81 226.765 421.9 226.457C420.991 226.148 420.24 225.502 419.809 224.657L418.241 220.886C417.788 219.788 417.617 218.598 417.743 217.42L418.584 209.765Z" fill="#FFC3BD"/>
<path d="M397.139 126.334L398.499 127.353L399.723 128.373C400.523 129.025 401.291 129.688 402.059 130.35C403.595 131.685 405.1 133.031 406.574 134.427C409.522 137.19 412.356 140.115 415.096 143.173C416.48 144.702 417.819 146.279 419.113 147.903C420.407 149.527 421.667 151.226 422.892 152.999C425.445 156.64 427.662 160.498 429.514 164.528L430.438 166.566L430.552 168.075C430.832 171.622 431.05 175.21 431.279 178.747L431.974 189.419C432.368 196.555 432.763 203.69 433.012 210.825L414.774 212.813C413.404 205.82 412.19 198.807 410.955 191.805L409.211 181.296C408.629 177.789 408.048 174.283 407.519 170.776L408.557 174.323C407.081 171.73 405.38 169.268 403.471 166.964C401.457 164.528 399.236 162.122 396.869 159.768C394.502 157.413 391.98 155.14 389.385 152.938C388.091 151.824 386.773 150.74 385.43 149.687L383.437 148.137L382.451 147.393L381.59 146.761L397.139 126.334Z" fill="#0EA362"/>
<g opacity="0.7">
<path d="M397.139 126.334L398.499 127.353L399.723 128.373C400.523 129.025 401.291 129.688 402.059 130.35C403.595 131.685 405.1 133.031 406.574 134.427C409.522 137.19 412.356 140.115 415.096 143.173C416.48 144.702 417.819 146.279 419.113 147.903C420.407 149.527 421.667 151.226 422.892 152.999C425.445 156.64 427.662 160.498 429.514 164.528L430.438 166.566L430.552 168.075C430.832 171.622 431.05 175.21 431.279 178.747L431.974 189.419C432.368 196.555 432.763 203.69 433.012 210.825L414.774 212.813C413.404 205.82 412.19 198.807 410.955 191.805L409.211 181.296C408.629 177.789 408.048 174.283 407.519 170.776L408.557 174.323C407.081 171.73 405.38 169.268 403.471 166.964C401.457 164.528 399.236 162.122 396.869 159.768C394.502 157.413 391.98 155.14 389.385 152.938C388.091 151.824 386.773 150.74 385.43 149.687L383.437 148.137L382.451 147.393L381.59 146.761L397.139 126.334Z" fill="white"/>
</g>
<path d="M370.909 119.311C370.909 119.311 364.681 128.087 355.619 129.331C359.281 130.814 362.55 133.097 365.179 136.007C365.179 136.007 374.521 128.872 375.798 121.88C374.894 119.362 370.909 119.311 370.909 119.311Z" fill="#0EA362"/>
<path opacity="0.3" d="M355.401 292.574C355.281 292.576 355.164 292.536 355.071 292.462C354.977 292.387 354.914 292.283 354.892 292.167C340.568 222.782 349.059 151.705 349.142 150.991C349.15 150.924 349.171 150.86 349.205 150.801C349.239 150.742 349.284 150.69 349.338 150.649C349.392 150.607 349.453 150.576 349.52 150.558C349.586 150.54 349.655 150.535 349.723 150.543C349.791 150.551 349.857 150.572 349.917 150.605C349.977 150.638 350.029 150.682 350.072 150.735C350.114 150.788 350.145 150.849 350.164 150.914C350.183 150.979 350.188 151.047 350.18 151.114C350.097 151.827 341.627 222.741 355.92 291.963C355.945 292.095 355.916 292.231 355.841 292.343C355.765 292.456 355.649 292.535 355.515 292.564L355.401 292.574Z" fill="#0EA362"/>
<path d="M370.711 168.707H355.089C354.821 168.714 354.554 168.663 354.308 168.556C354.063 168.449 353.844 168.29 353.669 168.089C353.494 167.889 353.367 167.653 353.297 167.399C353.226 167.144 353.215 166.877 353.263 166.617L354.301 159.615C354.415 159.052 354.721 158.544 355.168 158.173C355.615 157.803 356.176 157.593 356.761 157.576H372.331C372.594 157.57 372.856 157.621 373.097 157.725C373.338 157.829 373.553 157.983 373.728 158.178C373.902 158.372 374.03 158.601 374.105 158.849C374.179 159.098 374.197 159.359 374.157 159.615L373.119 166.617C373.017 167.182 372.724 167.695 372.286 168.074C371.849 168.454 371.294 168.677 370.711 168.707Z" fill="white"/>
<path d="M365.179 159.237H363.487C363.418 159.24 363.35 159.227 363.287 159.201C363.224 159.174 363.168 159.134 363.123 159.083C363.079 159.032 363.046 158.972 363.028 158.907C363.01 158.842 363.007 158.773 363.02 158.707L363.653 154.548C363.677 154.403 363.753 154.27 363.867 154.173C363.98 154.076 364.125 154.021 364.276 154.018H365.968C366.036 154.016 366.104 154.028 366.167 154.055C366.23 154.082 366.286 154.122 366.331 154.173C366.376 154.224 366.409 154.284 366.427 154.349C366.444 154.414 366.447 154.482 366.435 154.548L365.802 158.707C365.777 158.853 365.702 158.986 365.588 159.083C365.474 159.18 365.329 159.234 365.179 159.237Z" fill="#0EA362"/>
<path d="M352.37 132.511L348.062 129.361L343.132 131.288C343.132 131.288 347.356 135.202 352.37 132.511Z" fill="#0EA362"/>
<path opacity="0.3" d="M352.37 132.511L348.062 129.361L343.132 131.288C343.132 131.288 347.356 135.202 352.37 132.511Z" fill="black"/>
<path d="M351.135 122.104C351.135 122.104 348.021 126.446 348.021 129.361C344.907 130.768 340.194 134.672 340.194 134.672C340.194 134.672 340.806 128.556 347.045 123.225C348.262 122.455 349.687 122.064 351.135 122.104Z" fill="#0EA362"/>
<path d="M438.565 368.248L435.711 370.165L434.154 369.543L433.448 371.694L416.238 383.242C415.204 381.983 414.527 380.478 414.276 378.88C414.276 378.88 419.113 374.966 419.331 371.113C419.337 370.969 419.383 370.829 419.466 370.71C419.549 370.591 419.664 370.497 419.798 370.44C421.76 369.645 429.441 366.362 432.254 362.499C432.323 362.403 432.415 362.324 432.521 362.269C432.628 362.214 432.747 362.186 432.867 362.186C432.987 362.186 433.105 362.214 433.212 362.269C433.319 362.324 433.41 362.403 433.479 362.499C435.024 364.539 436.724 366.461 438.565 368.248Z" fill="#263238"/>
</svg>
