<svg width="220" height="180" viewBox="0 0 103 80" fill="none" xmlns="http://www.w3.org/2000/svg">
<g clip-path="url(#clip0_115_63)">
<path d="M70.1531 14.0348C67.5505 8.51204 61.9616 4.71973 55.3947 4.71973H31.38V34.5551L54.8006 16.2287L54.7645 32.8157L69.3137 21.3128C68.6883 20.6713 68.057 20.0988 67.4493 19.6176L62.1603 15.43L70.1531 14.0348Z" fill="#FF9933"/>
<path d="M31.38 58.4281H55.3947C64.4004 58.4281 71.6236 51.2418 71.6236 42.1642C71.6236 38.5515 70.3201 35.1032 68.2447 32.3545L46.8147 49.2354V32.6674L31.38 44.7071V58.4281Z" fill="#0EA362"/>
<path fill-rule="evenodd" clip-rule="evenodd" d="M83.9005 14.6968L80.8309 21.5303L77.7888 28.304C77.0468 26.5932 75.7704 24.4725 74.1213 22.3244C72.4721 20.1763 70.7559 18.3988 69.2991 17.2455L76.5672 15.9765L83.9005 14.6968Z" fill="#000080"/>
<path d="M13.7783 75.0606H15.1733V66.7412H13.7783V75.0606Z" fill="#000080"/>
<path d="M20.5351 75.2803L24.6618 66.7412H23.107L20.5351 72.058L17.9631 66.7412H16.4084L20.5351 75.2803Z" fill="#000080"/>
<path d="M27.2919 71.6333H30.6774V70.4176H27.2919V68.0008H31.5493V66.7412H25.8969V75.0606H31.5493V73.801H27.2919V71.6333Z" fill="#000080"/>
<path d="M38.5387 67.2392C38.0882 67.0488 36.9694 66.6387 36.0249 66.6387C34.1649 66.6387 33.1478 67.5028 33.1478 68.9529C33.1478 71.9261 37.5942 71.2671 37.5942 72.8782C37.5942 73.4641 36.8677 73.9181 36.112 73.9181C35.0368 73.9181 34.2231 73.6252 33.729 73.3762L33.235 74.3722C34.1794 75.0459 35.2402 75.1338 36.2428 75.1338C37.4053 75.1338 38.9891 74.3136 38.9891 72.9953C38.9891 70.1686 34.5427 70.7544 34.5427 69.0407C34.5427 68.821 34.5718 67.9129 36.0685 67.9129C36.6642 67.9129 37.6668 68.2059 38.0446 68.3377L38.5387 67.2392Z" fill="#000080"/>
<path d="M45.6732 75.0606H47.0681V66.7412H45.6732V70.4176H42.0115V66.7412H40.6166V75.0606H42.0115V71.6333H45.6732V75.0606Z" fill="#000080"/>
<path d="M51.9215 75.0606H55.6414C57.0363 75.0606 58.1552 73.9474 58.1552 72.5413C58.1552 71.9408 57.9227 71.3696 57.5594 70.9302C57.9663 70.4761 58.1698 69.9195 58.1698 69.2751C58.1698 67.869 57.0509 66.7412 55.6414 66.7412H51.9215V75.0606ZM53.7815 68.4988H55.5397C55.9611 68.4988 56.3098 68.8503 56.3098 69.2751C56.3098 69.6998 55.9611 70.0514 55.5397 70.0514H53.7815V68.4988ZM53.7815 73.3469V71.8236H55.7867C56.1064 71.8236 56.3098 72.2044 56.3098 72.5413C56.3098 72.9661 55.9611 73.3469 55.5252 73.3469H53.7815ZM64.4761 75.0606H66.3359V66.7412H64.4761V70.1686H61.628V66.7412H59.7681V75.0606H61.628V71.8676H64.4761V75.0606ZM73.8484 75.0606H75.9262L71.6397 66.5215L67.3531 75.0606H69.431L70.143 73.6106H73.1364L73.8484 75.0606ZM70.9423 72.014L71.6397 70.5787L72.3517 72.014H70.9423ZM80.7359 70.359H78.8033V68.5867H80.7359C81.1572 68.5867 81.506 68.8796 81.506 69.4509C81.506 70.0075 81.1572 70.359 80.7359 70.359ZM81.4043 75.0606H83.5984L81.971 71.8529C82.7992 71.4136 83.3659 70.5201 83.3659 69.4362C83.3659 67.8544 82.247 66.7412 80.8521 66.7412H76.9433V75.0606H78.8033V72.1166H79.9076L81.4043 75.0606ZM90.6313 75.0606H92.7092L88.4227 66.5215L84.136 75.0606H86.214L86.926 73.6106H89.9193L90.6313 75.0606ZM87.7252 72.014L88.4227 70.5787L89.1347 72.014H87.7252ZM96.2256 68.4988H98.318V66.7412H92.2732V68.4988H94.3657V75.0606H96.2256V68.4988Z" fill="#000080"/>
<path d="M6.07684 69.9261C7.95996 71.6374 9.84345 73.3475 11.7246 75.0605L11.744 75.0784V75.0605V66.7412H10.3491V71.9199L4.68188 66.7512V68.6571V75.0605H6.07684V69.9261Z" fill="#000080"/>
</g>
<defs>
<clipPath id="clip0_115_63">
<rect width="103" height="80" fill="white"/>
</clipPath>
</defs>
</svg>
