<svg width="2287" height="1759" viewBox="0 0 2287 1759" fill="none" xmlns="http://www.w3.org/2000/svg">
<path fill-rule="evenodd" clip-rule="evenodd" d="M0 2.20114C0 2.20114 135.836 16.9728 200.603 16.8901C436.508 16.5887 494.863 0.732245 749.255 0.732245C1003.65 0.732245 1080.85 2.20114 1080.85 2.20114C1080.85 2.20114 1258.65 16.8901 1409.28 16.8901C1559.92 16.8901 1546.76 6.02486 1710.5 2.20114C1874.25 -1.62258 1919.02 2.20114 2043.37 2.20114C2167.71 2.20114 2287 2.20114 2287 2.20114V1739.17C2287 1739.17 2234.48 1759 1995.27 1759C1756.07 1759 1744.36 1739.17 1507.37 1739.17C1270.38 1739.17 1307.72 1759 1004.91 1759C702.11 1759 619.211 1729.62 410.698 1729.62C202.185 1729.62 0 1759 0 1759V2.20114Z" fill="url(#paint0_linear_275_106)"/>
<defs>
<linearGradient id="paint0_linear_275_106" x1="2320.12" y1="0.501687" x2="1475.09" y2="2404.58" gradientUnits="userSpaceOnUse">
<stop stop-color="#18BC6A" stop-opacity="0.21"/>
<stop offset="1" stop-color="#086436" stop-opacity="0"/>
</linearGradient>
</defs>
</svg>
