<svg width="1274" height="342" viewBox="0 0 1274 342" fill="none" xmlns="http://www.w3.org/2000/svg">
<rect y="21.9512" width="1256" height="320" rx="40" fill="#0EA362"/>
<mask id="mask0_138_3" style="mask-type:luminance" maskUnits="userSpaceOnUse" x="1031" y="37" width="206" height="206">
<ellipse cx="1133.72" cy="139.734" rx="102.274" ry="102.303" transform="rotate(30 1133.72 139.734)" fill="white"/>
</mask>
<g mask="url(#mask0_138_3)">
<rect x="1093.6" y="-21.9697" width="2.55684" height="217.393" transform="rotate(30 1093.6 -21.9697)" fill="black"/>
<rect x="1106.89" y="-14.2993" width="2.55684" height="217.393" transform="rotate(30 1106.89 -14.2993)" fill="black"/>
<rect x="1119.06" y="-7.26782" width="2.55684" height="217.393" transform="rotate(30 1119.06 -7.26782)" fill="black"/>
<rect x="1132.35" y="0.402588" width="2.55684" height="217.393" transform="rotate(30 1132.35 0.402588)" fill="black"/>
<rect x="1145.64" y="8.07324" width="2.55684" height="217.393" transform="rotate(30 1145.64 8.07324)" fill="black"/>
<rect x="1157.81" y="15.1045" width="2.55684" height="217.393" transform="rotate(30 1157.81 15.1045)" fill="black"/>
<rect x="1171.1" y="22.7749" width="2.55684" height="217.393" transform="rotate(30 1171.1 22.7749)" fill="black"/>
<rect x="1184.39" y="30.4456" width="2.55684" height="217.393" transform="rotate(30 1184.39 30.4456)" fill="black"/>
<rect x="1196.56" y="37.4768" width="2.55684" height="217.393" transform="rotate(30 1196.56 37.4768)" fill="black"/>
<rect x="1209.85" y="45.1472" width="2.55684" height="217.393" transform="rotate(30 1209.85 45.1472)" fill="black"/>
<rect x="1223.14" y="52.8179" width="2.55684" height="217.393" transform="rotate(30 1223.14 52.8179)" fill="black"/>
<rect x="1234.21" y="59.21" width="2.55684" height="217.393" transform="rotate(30 1234.21 59.21)" fill="black"/>
<rect x="1248.6" y="67.5195" width="2.55684" height="217.393" transform="rotate(30 1248.6 67.5195)" fill="black"/>
<rect x="1260.78" y="74.551" width="2.55684" height="217.393" transform="rotate(30 1260.78 74.551)" fill="black"/>
<rect x="1274.06" y="82.2214" width="2.55684" height="217.393" transform="rotate(30 1274.06 82.2214)" fill="black"/>
</g>
<path opacity="0.866281" d="M1115.16 336.666C1096.81 336.666 1077.39 324.059 1057.57 299.078C1057.3 298.844 1057.43 298.378 1057.7 298.261C1057.97 298.027 1058.37 298.144 1058.64 298.378C1079 323.825 1098.55 336.316 1117.04 335.382C1132.04 334.682 1142.35 325.576 1153.34 316.004C1164.05 306.549 1175.17 296.743 1191.24 296.043C1209.19 295.226 1227.81 305.965 1246.56 327.911C1246.83 328.145 1246.7 328.612 1246.43 328.728C1246.16 328.962 1245.76 328.845 1245.49 328.612C1227.01 307.016 1208.79 296.393 1191.38 297.21C1175.84 297.911 1164.86 307.483 1154.41 316.821C1143.83 326.16 1132.84 335.732 1117.31 336.549C1116.5 336.549 1115.83 336.666 1115.16 336.666Z" fill="white"/>
<path opacity="0.866281" d="M85.2872 68.8307C68.7127 68.8307 51.1704 57.4635 33.2651 34.9397C33.0232 34.7292 33.1441 34.3082 33.3861 34.2029C33.6281 33.9924 33.991 34.0977 34.233 34.3082C52.6222 57.253 70.4065 68.515 86.981 67.673C100.531 67.0415 109.846 58.8318 119.767 50.2012C129.445 41.6758 139.487 32.8347 154.005 32.2031C170.216 31.4664 186.912 41.1495 203.97 60.9369C204.212 61.1474 204.091 61.5684 203.849 61.6736C203.607 61.8841 203.244 61.7789 203.002 61.5684C186.186 42.2021 169.732 32.7294 154.005 33.3609C139.971 33.9924 130.05 42.6231 120.614 51.0432C111.056 59.4633 101.136 68.094 87.1019 68.8307C86.497 68.8307 85.8921 68.8307 85.2872 68.8307Z" fill="white"/>
<path fill-rule="evenodd" clip-rule="evenodd" d="M78.2633 341.895C78.3832 342 78.503 342 78.6229 342C78.7428 342 78.9825 341.895 79.2223 341.791L96.3637 324.863C96.4835 324.758 96.4835 324.549 96.4835 324.445C96.4835 324.236 96.3637 324.131 96.2438 324.027L77.3043 308.771C77.1845 308.666 76.9447 308.666 76.8249 308.666C76.5851 308.666 76.4653 308.771 76.3454 308.875L59.204 325.803C59.0841 325.908 59.0841 326.117 59.0841 326.221C59.0841 326.43 59.204 326.535 59.3238 326.639L78.2633 341.895ZM78.6813 340.666L60.6105 326.167L76.8862 309.999L94.9569 324.603L78.6813 340.666Z" fill="white"/>
<path opacity="0.866281" d="M11.7216 136.112C11.433 136.112 11 135.861 11 135.609C11 135.232 11.1443 134.855 11.5773 134.855L34.9573 131.333C35.3903 131.333 35.6789 131.459 35.8232 131.836C35.9675 132.213 35.6789 132.591 35.2459 132.591L11.7216 136.112C11.8659 136.112 11.8659 136.112 11.7216 136.112Z" fill="white"/>
<path opacity="0.866281" d="M1238.44 72.2159C1238.33 71.9822 1238.36 71.7013 1238.57 71.4902C1238.92 71.2319 1239.37 71.2075 1239.67 71.511L1255.61 86.8245C1255.9 87.1281 1255.93 87.5258 1255.53 87.6672C1255.18 87.9254 1254.73 87.9499 1254.43 87.6464L1238.63 72.2857C1238.5 72.3328 1238.44 72.2159 1238.44 72.2159Z" fill="white"/>
<ellipse cx="746.251" cy="309.333" rx="7.25091" ry="6.33333" stroke="white" stroke-width="1.5"/>
</svg>
