<svg width="1440" height="717" viewBox="0 0 1440 717" fill="none" xmlns="http://www.w3.org/2000/svg">
<path fill-rule="evenodd" clip-rule="evenodd" d="M0 0.692916C0 0.692916 85.5287 6.71585 126.309 6.68211C274.846 6.55921 311.588 0.0939974 471.765 0.0939974C631.942 0.0939974 680.553 0.692916 680.553 0.692916C680.553 0.692916 792.502 6.68211 887.349 6.68211C982.196 6.68211 973.912 2.25198 1077.01 0.692916C1180.11 -0.866145 1208.3 0.692916 1286.6 0.692916C1364.89 0.692916 1440 0.692916 1440 0.692916V708.915C1440 708.915 1406.93 717 1256.31 717C1105.7 717 1098.33 708.915 949.109 708.915C799.889 708.915 823.398 717 632.739 717C442.081 717 389.884 705.022 258.594 705.022C127.305 705.022 0 717 0 717V0.692916Z" fill="url(#paint0_linear_1_591)"/>
<defs>
<linearGradient id="paint0_linear_1_591" x1="1440" y1="-0.000224025" x2="-142.687" y2="606.375" gradientUnits="userSpaceOnUse">
<stop stop-color="#0EA362"/>
<stop offset="1"/>
</linearGradient>
</defs>
</svg>
