<svg width="221" height="173" viewBox="0 0 221 173" fill="none" xmlns="http://www.w3.org/2000/svg">
<path d="M150.522 30.5893C144.938 18.7395 132.947 10.6025 118.856 10.6025H67.3295V74.6186L117.582 35.2967L117.504 70.8862L148.722 46.2052C147.38 44.8289 146.025 43.6004 144.721 42.5679L133.373 33.583L150.522 30.5893Z" fill="#FF9933"/>
<path d="M67.3295 125.841H118.856C138.179 125.841 153.678 110.422 153.678 90.9451C153.678 83.1936 150.881 75.7946 146.428 69.897L100.447 106.117V70.5685L67.3295 96.4011V125.841Z" fill="#0EA362"/>
<path fill-rule="evenodd" clip-rule="evenodd" d="M180.019 32.0098L173.433 46.6721L166.906 61.2059C165.314 57.5352 162.575 52.985 159.037 48.3759C155.498 43.7668 151.816 39.9529 148.69 37.4784L164.285 34.7555L180.019 32.0098Z" fill="white"/>
<path d="M29.5627 161.529H32.5557V143.679H29.5627V161.529Z" fill="white"/>
<path d="M44.0603 162.001L52.9147 143.679H49.5786L44.0603 155.087L38.5418 143.679H35.2059L44.0603 162.001Z" fill="white"/>
<path d="M58.5579 154.176H65.8221V151.567H58.5579V146.382H67.6928V143.679H55.5648V161.529H67.6928V158.827H58.5579V154.176Z" fill="white"/>
<path d="M82.6895 144.747C81.7229 144.338 79.3222 143.458 77.2958 143.458C73.3049 143.458 71.1226 145.313 71.1226 148.424C71.1226 154.803 80.663 153.389 80.663 156.846C80.663 158.103 79.1041 159.078 77.4827 159.078C75.1756 159.078 73.4298 158.449 72.3697 157.915L71.3096 160.052C73.3361 161.497 75.6121 161.686 77.7634 161.686C80.2577 161.686 83.6559 159.926 83.6559 157.098C83.6559 151.032 74.1155 152.289 74.1155 148.612C74.1155 148.141 74.178 146.193 77.3892 146.193C78.6675 146.193 80.8188 146.821 81.6294 147.104L82.6895 144.747Z" fill="white"/>
<path d="M97.9975 161.529H100.991V143.679H97.9975V151.567H90.1408V143.679H87.1479V161.529H90.1408V154.176H97.9975V161.529Z" fill="white"/>
<path d="M111.404 161.529H119.386C122.379 161.529 124.78 159.14 124.78 156.123C124.78 154.835 124.281 153.609 123.501 152.666C124.374 151.692 124.811 150.498 124.811 149.115C124.811 146.098 122.41 143.678 119.386 143.678H111.404V161.529ZM115.395 147.449H119.168C120.072 147.449 120.82 148.204 120.82 149.115C120.82 150.026 120.072 150.781 119.168 150.781H115.395V147.449ZM115.395 157.852V154.583H119.697C120.383 154.583 120.82 155.4 120.82 156.123C120.82 157.035 120.072 157.852 119.136 157.852H115.395ZM138.342 161.529H142.332V143.678H138.342V151.032H132.231V143.678H128.24V161.529H132.231V154.678H138.342V161.529ZM158.451 161.529H162.91L153.712 143.207L144.515 161.529H148.973L150.501 158.417H156.924L158.451 161.529ZM152.216 154.992L153.712 151.912L155.24 154.992H152.216ZM173.229 151.441H169.083V147.638H173.229C174.133 147.638 174.882 148.266 174.882 149.492C174.882 150.686 174.133 151.441 173.229 151.441ZM174.664 161.529H179.371L175.879 154.646C177.656 153.703 178.873 151.786 178.873 149.461C178.873 146.067 176.472 143.678 173.479 143.678H165.092V161.529H169.083V155.212H171.452L174.664 161.529ZM194.461 161.529H198.92L189.722 143.207L180.525 161.529H184.983L186.511 158.417H192.934L194.461 161.529ZM188.226 154.992L189.722 151.912L191.25 154.992H188.226ZM206.465 147.449H210.954V143.678H197.984V147.449H202.474V161.529H206.465V147.449Z" fill="white"/>
<path d="M13.0381 150.513C17.0786 154.184 21.1199 157.854 25.1561 161.529L25.1979 161.567V161.529V143.679H22.2048V154.791L10.045 143.7V147.79V161.529H13.0381V150.513Z" fill="white"/>
</svg>
