<svg width="53" height="55" viewBox="0 0 53 55" fill="none" xmlns="http://www.w3.org/2000/svg">
<path d="M39.1531 10.0348C36.5505 4.51204 30.9616 0.719727 24.3947 0.719727H0.380005V30.5551L23.8006 12.2287L23.7645 28.8157L38.3137 17.3128C37.6883 16.6713 37.057 16.0988 36.4493 15.6176L31.1603 11.43L39.1531 10.0348Z" fill="#FF9933"/>
<path d="M0.380005 54.4281H24.3947C33.4004 54.4281 40.6236 47.2418 40.6236 38.1642C40.6236 34.5515 39.3201 31.1032 37.2447 28.3545L15.8147 45.2354V28.6674L0.380005 40.7071V54.4281Z" fill="#0EA362"/>
<path fill-rule="evenodd" clip-rule="evenodd" d="M52.9005 10.6968L49.8309 17.5303L46.7888 24.304C46.0468 22.5932 44.7704 20.4725 43.1213 18.3244C41.4721 16.1763 39.7559 14.3988 38.2991 13.2455L45.5672 11.9765L52.9005 10.6968Z" fill="#000080"/>
</svg>
