<svg width="76" height="55" viewBox="0 0 76 55" fill="none" xmlns="http://www.w3.org/2000/svg">
<path d="M18.3617 15.6677C18.3617 19.3877 15.4369 22.3597 11.9064 22.3597C8.37582 22.3597 5.45106 19.3877 5.45106 15.6677C5.45106 11.9477 8.37582 8.97569 11.9064 8.97569C15.4369 8.97569 18.3617 11.9477 18.3617 15.6677ZM70.5489 15.6677C70.5489 19.3877 67.6242 22.3597 64.0936 22.3597C60.5631 22.3597 57.6383 19.3877 57.6383 15.6677C57.6383 11.9477 60.5631 8.97569 64.0936 8.97569C67.6242 8.97569 70.5489 11.9477 70.5489 15.6677ZM64.7214 41.5897C63.8284 36.4515 60.9052 32.0721 56.8078 29.3145C57.8312 28.6115 59.0528 28.2057 60.366 28.2057H67.8213C71.3518 28.2057 74.2766 31.1777 74.2766 34.8977V38.7437C74.2766 40.3484 73.0293 41.5897 71.5489 41.5897H64.7214ZM50.0468 13.7447C50.0468 20.6617 44.6292 26.2057 38 26.2057C31.3708 26.2057 25.9532 20.6617 25.9532 13.7447C25.9532 6.82768 31.3708 1.28369 38 1.28369C44.6292 1.28369 50.0468 6.82768 50.0468 13.7447ZM38 33.9747C40.9523 33.9747 43.7206 33.2519 46.2109 32.0517H46.9464C53.7736 32.0517 59.366 37.7759 59.366 44.8973V48.3587C59.366 51.021 57.2799 53.1277 54.7745 53.1277H21.2255C18.7201 53.1277 16.634 51.021 16.634 48.3587V44.8973C16.634 37.7759 22.2264 32.0517 29.0536 32.0517H29.79C32.289 33.2512 35.0463 33.9747 38 33.9747ZM15.634 28.2057C16.9472 28.2057 18.1688 28.6115 19.1922 29.3145C15.0943 32.0724 12.1707 36.452 11.2686 41.5897H4.45106C2.97071 41.5897 1.7234 40.3484 1.7234 38.7437V34.8977C1.7234 31.1777 4.64816 28.2057 8.17872 28.2057H15.634Z" stroke="black" stroke-width="2"/>
</svg>
