<svg width="54" height="60" viewBox="0 0 54 60" fill="none" xmlns="http://www.w3.org/2000/svg">
<path d="M52.9734 38.976L52.9588 39.0083L52.9971 39.2922C52.9989 39.3061 53 39.3213 53 39.3378V48.9099C53 48.9259 52.999 48.9413 52.997 48.956L52.9906 49.0033L52.9888 49.0509C52.9403 50.3134 52.3113 51.562 51.0488 52.7611C49.7803 53.966 47.9193 55.0714 45.5531 56.0078C40.8241 57.8793 34.2703 59 26.9999 59C19.6537 59 13.04 57.8559 8.30095 55.9497C5.92957 54.9958 4.07858 53.8715 2.83537 52.6494C1.60023 51.4353 1.00789 50.1725 1.00789 48.8904C1.00789 48.8819 1.0082 48.8734 1.00878 48.8652L1.01505 48.7768L1.00567 48.6886C1.00435 48.6762 1.00369 48.6638 1.00369 48.6513V48.6512V39.5315V39.5127L1.00298 39.4939C0.999047 39.3895 0.999047 39.2851 1.00298 39.1807L1.00369 39.1619V39.143V38.9496C1.00369 38.9159 1.00842 38.8853 1.0164 38.8577L1.03511 38.793L1.04498 38.7263C1.33143 36.7918 3.03574 34.8733 6.23778 33.2413C9.39875 31.6303 13.8028 30.4179 19.0045 29.792L19.0052 29.7919C19.024 29.7896 19.0429 29.7898 19.0616 29.7923L19.1858 29.8089L19.3103 29.7944C20.5717 29.6474 21.875 29.5355 23.2131 29.4612C23.3258 29.455 23.4711 29.5486 23.481 29.7371C23.491 29.9276 23.3529 30.0412 23.2376 30.0476C17.2003 30.383 11.8935 31.5254 8.06298 33.0986C6.15167 33.8836 4.56051 34.7952 3.42956 35.8054C2.3103 36.8052 1.52582 38.0113 1.52582 39.3712C1.52582 39.9557 1.67032 40.5176 1.92395 41.0446L1.92703 41.0509C2.51218 42.2453 3.66576 43.2895 5.12141 44.1811C6.59495 45.0837 8.4718 45.8871 10.6389 46.5582C14.9752 47.901 20.5783 48.7459 26.6925 48.7459C33.4795 48.7459 39.642 47.7047 44.1416 46.0933C46.3866 45.2893 48.2676 44.3257 49.6075 43.2396C50.9281 42.1691 51.8727 40.8511 51.8727 39.3379C51.8727 38.15 51.2657 37.0719 50.3683 36.1541C49.4668 35.2321 48.1959 34.3888 46.6612 33.6431C43.5869 32.1491 39.2812 30.9634 34.2303 30.3643L34.2297 30.3642C34.214 30.3624 34.1984 30.3589 34.183 30.3537L34.0788 30.3185L33.9693 30.3068C32.908 30.1935 31.844 30.1073 30.7784 30.0482M30.7784 30.0482C30.7785 30.0483 30.7786 30.0483 30.7787 30.0483L30.723 31.0467L30.7784 30.0482ZM28.2697 23.9132H27.2697V24.9132V39.1759C27.2697 39.366 27.1275 39.4695 27.0136 39.4695C26.8997 39.4695 26.7575 39.366 26.7575 39.1759V24.9132V23.9132H25.7575H25.3747H25.3207L25.267 23.919C25.194 23.9269 25.1198 23.931 25.0445 23.931H20.3046C11.8657 23.931 4.97513 16.8779 4.97513 8.11501C4.97513 4.15758 8.08297 1 11.8554 1C18.2239 1 23.7058 5.01118 26.0178 10.7517L26.9454 13.0549L27.873 10.7517C30.1849 5.01118 35.6669 1 42.0354 1C45.8078 1 48.9156 4.15758 48.9156 8.11501C48.9156 16.8779 42.025 23.931 33.5862 23.931H28.8462H28.8462C28.7718 23.931 28.6976 23.927 28.6237 23.919L28.5701 23.9132H28.5161H28.2698H28.2697ZM24.189 23.3261V23.6066L25.4313 23.2964C26.1523 23.1163 26.6726 22.4568 26.6726 21.6972V16.816C26.6726 8.43311 20.0662 1.58707 11.8553 1.58707C8.31086 1.58707 5.48731 4.53755 5.48731 8.11501C5.48731 16.3881 11.9207 23.1633 19.9822 23.3404L20.0701 23.3423L20.157 23.3288C20.1689 23.327 20.1808 23.3261 20.1928 23.3261H24.189ZM28.4594 23.2964L28.5787 23.3262H28.7017H33.3425C33.3562 23.3262 33.3692 23.3273 33.3816 23.3295L33.5512 22.3443V23.3439H33.5512H33.5862C41.7971 23.3439 48.4034 16.498 48.4034 8.11501C48.4034 4.53761 45.5799 1.58707 42.0354 1.58707C33.8245 1.58707 27.2182 8.43305 27.2182 16.816V21.6972C27.2182 22.4567 27.7382 23.1163 28.4594 23.2964ZM52.4878 44.1595L52.4878 41.9394L50.8251 43.4106C48.8459 45.1619 45.6041 46.6666 41.4454 47.7294C37.3068 48.7871 32.3442 49.3859 27.003 49.3859C21.6607 49.3859 16.6973 48.7869 12.5584 47.7288C8.39916 46.6656 5.15739 45.1605 3.17873 43.4087L1.51587 41.9366V44.1575V48.6513C1.51587 48.6599 1.51556 48.6683 1.51497 48.6766L1.50871 48.765L1.51808 48.8531C1.51939 48.8653 1.52007 48.8778 1.52007 48.8906C1.52007 50.4188 2.4721 51.7518 3.80826 52.8365C5.1633 53.9365 7.06633 54.9125 9.33851 55.7269C13.8924 57.359 20.13 58.413 26.9998 58.413C33.8697 58.413 40.1072 57.359 44.6611 55.7269C46.9333 54.9125 48.8363 53.9365 50.1914 52.8365C51.5275 51.7518 52.4796 50.4188 52.4796 48.8906C52.4796 48.8772 52.4803 48.8645 52.4816 48.8526L52.4877 48.7976V48.7422L52.4878 44.1595Z" stroke="black" stroke-width="2"/>
</svg>
