<svg width="63" height="68" viewBox="0 0 63 68" fill="none" xmlns="http://www.w3.org/2000/svg">
<mask id="path-1-inside-1_117_129" fill="white">
<path d="M54.6469 67.1363H52.5489V43.5075L52.8604 43.1996C57.464 38.6521 59.9984 32.6115 59.9984 26.19C59.9984 12.9054 49.03 2.09801 35.5487 2.09801C22.0643 2.09801 11.0938 12.9059 11.0938 26.1905C11.0938 26.5393 11.1069 26.8844 11.1205 27.2306L11.1342 27.5925L3.66158 40.3536H8.80432V51.3294C8.80432 54.4895 11.4179 57.0611 14.6305 57.0611H26.5692V67.1363H24.4712V59.1591H14.6305C10.2609 59.1591 6.70632 55.6471 6.70632 51.3294V42.4522H3.05176e-05L9.01413 27.0612C9.00364 26.7716 8.99524 26.4821 8.99524 26.1905C8.99577 11.7488 20.9072 0 35.5487 0C50.1875 0 62.0964 11.7488 62.0964 26.19C62.0964 33.0305 59.4545 39.4719 54.6469 44.3792V67.1363Z"/>
</mask>
<path d="M54.6469 67.1363V72.1363H59.6469V67.1363H54.6469ZM52.5489 67.1363H47.5489V72.1363H52.5489V67.1363ZM52.5489 43.5075L49.0344 39.951L47.5489 41.419V43.5075H52.5489ZM52.8604 43.1996L49.3466 39.6424L49.3459 39.6431L52.8604 43.1996ZM11.1205 27.2306L16.117 27.0423L16.1167 27.0338L11.1205 27.2306ZM11.1342 27.5925L15.4488 30.1191L16.1855 28.861L16.1306 27.4042L11.1342 27.5925ZM3.66158 40.3536L-0.653101 37.8271L-5.06046 45.3536H3.66158V40.3536ZM8.80432 40.3536H13.8043V35.3536H8.80432V40.3536ZM26.5692 57.0611H31.5692V52.0611H26.5692V57.0611ZM26.5692 67.1363V72.1363H31.5692V67.1363H26.5692ZM24.4712 67.1363H19.4712V72.1363H24.4712V67.1363ZM24.4712 59.1591H29.4712V54.1591H24.4712V59.1591ZM6.70632 42.4522H11.7063V37.4522H6.70632V42.4522ZM3.05176e-05 42.4522L-4.31446 39.9253L-8.72276 47.4522H3.05176e-05V42.4522ZM9.01413 27.0612L13.3286 29.5881L14.0635 28.3333L14.0108 26.8801L9.01413 27.0612ZM8.99524 26.1905L3.99524 26.1903V26.1905H8.99524ZM54.6469 44.3792L51.0753 40.8801L49.6469 42.3381V44.3792H54.6469ZM54.6469 62.1363H52.5489V72.1363H54.6469V62.1363ZM57.5489 67.1363V43.5075H47.5489V67.1363H57.5489ZM56.0634 47.0639L56.3749 46.756L49.3459 39.6431L49.0344 39.951L56.0634 47.0639ZM56.3742 46.7567C61.9208 41.2777 64.9984 33.9593 64.9984 26.19H54.9984C54.9984 31.2636 53.0071 36.0265 49.3466 39.6424L56.3742 46.7567ZM64.9984 26.19C64.9984 10.0747 51.7216 -2.90199 35.5487 -2.90199V7.09801C46.3384 7.09801 54.9984 15.7361 54.9984 26.19H64.9984ZM35.5487 -2.90199C19.3735 -2.90199 6.09378 10.0744 6.09378 26.1905H16.0938C16.0938 15.7374 24.755 7.09801 35.5487 7.09801V-2.90199ZM6.09378 26.1905C6.09378 26.6515 6.11111 27.0901 6.1244 27.4274L16.1167 27.0338C16.1027 26.6787 16.0938 26.4271 16.0938 26.1905H6.09378ZM6.12407 27.4189L6.13771 27.7808L16.1306 27.4042L16.117 27.0423L6.12407 27.4189ZM6.81948 25.0659L-0.653101 37.8271L7.97626 42.8802L15.4488 30.1191L6.81948 25.0659ZM3.66158 45.3536H8.80432V35.3536H3.66158V45.3536ZM3.80432 40.3536V51.3294H13.8043V40.3536H3.80432ZM3.80432 51.3294C3.80432 57.3274 8.7336 62.0611 14.6305 62.0611V52.0611C14.1022 52.0611 13.8043 51.6516 13.8043 51.3294H3.80432ZM14.6305 62.0611H26.5692V52.0611H14.6305V62.0611ZM21.5692 57.0611V67.1363H31.5692V57.0611H21.5692ZM26.5692 62.1363H24.4712V72.1363H26.5692V62.1363ZM29.4712 67.1363V59.1591H19.4712V67.1363H29.4712ZM24.4712 54.1591H14.6305V64.1591H24.4712V54.1591ZM14.6305 54.1591C12.9656 54.1591 11.7063 52.8293 11.7063 51.3294H1.70632C1.70632 58.4649 7.55617 64.1591 14.6305 64.1591V54.1591ZM11.7063 51.3294V42.4522H1.70632V51.3294H11.7063ZM6.70632 37.4522H3.05176e-05V47.4522H6.70632V37.4522ZM4.31452 44.979L13.3286 29.5881L4.69963 24.5343L-4.31446 39.9253L4.31452 44.979ZM14.0108 26.8801C14.001 26.6096 13.9952 26.3911 13.9952 26.1905H3.99524C3.99524 26.5731 4.00623 26.9337 4.0174 27.2422L14.0108 26.8801ZM13.9952 26.1907C13.9957 14.5748 23.6037 5 35.5487 5V-5C18.2108 -5 3.99587 8.92286 3.99524 26.1903L13.9952 26.1907ZM35.5487 5C47.4902 5 57.0964 14.5739 57.0964 26.19H67.0964C67.0964 8.92375 52.8849 -5 35.5487 -5V5ZM57.0964 26.19C57.0964 31.713 54.9737 36.9008 51.0753 40.8801L58.2185 47.8783C63.9352 42.043 67.0964 34.348 67.0964 26.19H57.0964ZM49.6469 44.3792V67.1363H59.6469V44.3792H49.6469Z" fill="black" mask="url(#path-1-inside-1_117_129)"/>
<mask id="path-3-inside-2_117_129" fill="white">
<path d="M35.2361 45.4791C24.4539 45.4791 15.6821 36.8248 15.6821 26.1869H17.7801C17.7801 35.6678 25.6109 43.3811 35.2361 43.3811C44.8607 43.3811 52.6899 35.6678 52.6899 26.1869C52.6899 16.707 44.8602 8.99474 35.2361 8.99474V6.89673C46.0172 6.89673 54.7879 15.5505 54.7879 26.1869C54.7885 36.8248 46.0172 45.4791 35.2361 45.4791Z"/>
</mask>
<path d="M15.6821 26.1869V21.1869H10.6821V26.1869H15.6821ZM17.7801 26.1869H22.7801V21.1869H17.7801V26.1869ZM35.2361 8.99474H30.2361V13.9947H35.2361V8.99474ZM35.2361 6.89673V1.89673H30.2361V6.89673H35.2361ZM54.7879 26.1869H49.7879V26.1871L54.7879 26.1869ZM35.2361 40.4791C27.1516 40.4791 20.6821 34.0001 20.6821 26.1869H10.6821C10.6821 39.6496 21.7562 50.4791 35.2361 50.4791V40.4791ZM15.6821 31.1869H17.7801V21.1869H15.6821V31.1869ZM12.7801 26.1869C12.7801 38.5002 22.921 48.3811 35.2361 48.3811V38.3811C28.3009 38.3811 22.7801 32.8354 22.7801 26.1869H12.7801ZM35.2361 48.3811C47.5513 48.3811 57.6899 38.4995 57.6899 26.1869H47.6899C47.6899 32.8361 42.1701 38.3811 35.2361 38.3811V48.3811ZM57.6899 26.1869C57.6899 13.8746 47.5501 3.99474 35.2361 3.99474V13.9947C42.1702 13.9947 47.6899 19.5394 47.6899 26.1869H57.6899ZM40.2361 8.99474V6.89673H30.2361V8.99474H40.2361ZM35.2361 11.8967C43.3195 11.8967 49.7879 18.3752 49.7879 26.1869H59.7879C59.7879 12.7258 48.715 1.89673 35.2361 1.89673V11.8967ZM49.7879 26.1871C49.7883 34.0004 43.3192 40.4791 35.2361 40.4791V50.4791C48.7152 50.4791 59.7886 39.6492 59.7879 26.1866L49.7879 26.1871Z" fill="black" mask="url(#path-3-inside-2_117_129)"/>
<mask id="path-5-inside-3_117_129" fill="white">
<path d="M17.7807 26.1867H15.6826C15.6826 25.82 15.6931 25.456 15.7141 25.0941L17.8085 25.2137C17.7901 25.5357 17.7807 25.8599 17.7807 26.1867Z"/>
</mask>
<path d="M17.7807 26.1867V31.1867H22.7807V26.1867H17.7807ZM15.6826 26.1867H10.6826V31.1867H15.6826V26.1867ZM15.7141 25.0941L15.9991 20.1022L11.0116 19.8175L10.7225 24.8047L15.7141 25.0941ZM17.8085 25.2137L22.8004 25.4983L23.0849 20.5068L18.0935 20.2218L17.8085 25.2137ZM17.7807 21.1867H15.6826V31.1867H17.7807V21.1867ZM20.6826 26.1867C20.6826 25.9155 20.6904 25.648 20.7057 25.3835L10.7225 24.8047C10.6959 25.264 10.6826 25.7245 10.6826 26.1867H20.6826ZM15.4291 30.086L17.5234 30.2056L18.0935 20.2218L15.9991 20.1022L15.4291 30.086ZM12.8166 24.9291C12.7929 25.3444 12.7807 25.7634 12.7807 26.1867H22.7807C22.7807 25.9563 22.7873 25.7271 22.8004 25.4983L12.8166 24.9291Z" fill="black" mask="url(#path-5-inside-3_117_129)"/>
<mask id="path-7-inside-4_117_129" fill="white">
<path d="M18.0272 23.2853L15.9601 22.9276C16.0855 22.2027 16.2549 21.4768 16.4636 20.7703L18.4756 21.3656C18.2894 21.9945 18.1389 22.6401 18.0272 23.2853ZM19.1444 19.5125L17.2158 18.6864C17.5048 18.0114 17.8373 17.3448 18.2039 16.7054L20.0245 17.7486C19.6977 18.3182 19.4014 18.912 19.1444 19.5125ZM21.1013 16.097L19.4124 14.8523C19.8482 14.2612 20.3229 13.6885 20.8238 13.1498L22.3601 14.5791C21.9132 15.0595 21.4894 15.5704 21.1013 16.097ZM23.7836 13.2122L22.4178 11.6193C22.9753 11.1415 23.5659 10.6904 24.1743 10.2781L25.3513 12.0153C24.809 12.383 24.2813 12.7858 23.7836 13.2122ZM27.0444 11.0014L26.0699 9.14365C26.7192 8.80325 27.3953 8.49536 28.0803 8.22944L28.8403 10.1853C28.2282 10.4224 27.624 10.6972 27.0444 11.0014ZM30.717 9.57636L30.183 7.54759C30.8927 7.36087 31.6212 7.21191 32.3487 7.10596L32.6519 9.18194C32.001 9.27687 31.3506 9.40905 30.717 9.57636Z"/>
</mask>
<path d="M18.0272 23.2853L17.1746 28.2121L22.1008 29.0645L22.9539 24.1384L18.0272 23.2853ZM15.9601 22.9276L11.0332 22.0755L10.1813 27.0018L15.1075 27.8543L15.9601 22.9276ZM16.4636 20.7703L17.8822 15.9758L13.0859 14.5566L11.6686 19.3535L16.4636 20.7703ZM18.4756 21.3656L23.2699 22.7851L24.6896 17.9899L19.8942 16.5711L18.4756 21.3656ZM19.1444 19.5125L17.1757 24.1086L21.7733 26.078L23.7411 21.4797L19.1444 19.5125ZM17.2158 18.6864L12.6193 16.7186L10.6518 21.3142L15.2471 23.2826L17.2158 18.6864ZM18.2039 16.7054L20.6899 12.3672L16.3529 9.88196L13.8664 14.2182L18.2039 16.7054ZM20.0245 17.7486L24.3615 20.2366L26.8507 15.8975L22.5104 13.4104L20.0245 17.7486ZM21.1013 16.097L18.135 20.122L22.1598 23.0881L25.1262 19.0635L21.1013 16.097ZM19.4124 14.8523L15.3881 11.885L12.42 15.9103L16.4461 18.8774L19.4124 14.8523ZM20.8238 13.1498L24.2296 9.48908L20.568 6.08249L17.1623 9.74494L20.8238 13.1498ZM22.3601 14.5791L26.0212 17.9844L29.4261 14.3237L25.7658 10.9183L22.3601 14.5791ZM23.7836 13.2122L19.9878 16.4668L23.241 20.2609L27.0366 17.0093L23.7836 13.2122ZM22.4178 11.6193L19.1641 7.82276L15.3667 11.0772L18.622 14.8739L22.4178 11.6193ZM24.1743 10.2781L28.3137 7.47358L25.509 3.33406L21.3696 6.13887L24.1743 10.2781ZM25.3513 12.0153L28.1571 16.1539L32.2945 13.3489L29.4907 9.21073L25.3513 12.0153ZM27.0444 11.0014L22.6166 13.3241L24.9399 17.753L29.3682 15.4286L27.0444 11.0014ZM26.0699 9.14365L23.7484 4.71526L19.3189 7.03737L21.6421 11.4663L26.0699 9.14365ZM28.0803 8.22944L32.7408 6.41848L30.9304 1.75945L26.2708 3.56835L28.0803 8.22944ZM28.8403 10.1853L30.6462 14.8478L35.3138 13.04L33.5008 8.37434L28.8403 10.1853ZM30.717 9.57636L25.8816 10.849L27.1553 15.6883L31.9936 14.4106L30.717 9.57636ZM30.183 7.54759L28.9107 2.71217L24.075 3.98454L25.3477 8.82018L30.183 7.54759ZM32.3487 7.10596L37.2962 6.38345L36.574 1.43785L31.6281 2.15815L32.3487 7.10596ZM32.6519 9.18194L33.3735 14.1296L38.322 13.4078L37.5994 8.45943L32.6519 9.18194ZM18.8798 18.3585L16.8127 18.0008L15.1075 27.8543L17.1746 28.2121L18.8798 18.3585ZM20.887 23.7796C20.9793 23.2456 21.1047 22.7082 21.2587 22.1871L11.6686 19.3535C11.405 20.2454 11.1916 21.1599 11.0332 22.0755L20.887 23.7796ZM15.045 25.5648L17.057 26.1601L19.8942 16.5711L17.8822 15.9758L15.045 25.5648ZM13.6814 19.9461C13.4395 20.7628 13.245 21.5977 13.1005 22.4321L22.9539 24.1384C23.0328 23.6826 23.1393 23.2261 23.2699 22.7851L13.6814 19.9461ZM21.1131 14.9164L19.1845 14.0903L15.2471 23.2826L17.1757 24.1086L21.1131 14.9164ZM21.8122 20.6543C22.0247 20.158 22.2707 19.6647 22.5414 19.1926L13.8664 14.2182C13.4039 15.0248 12.9848 15.8648 12.6193 16.7186L21.8122 20.6543ZM15.718 21.0436L17.5385 22.0868L22.5104 13.4104L20.6899 12.3672L15.718 21.0436ZM15.6874 15.2606C15.2649 15.9972 14.8817 16.7648 14.5476 17.5454L23.7411 21.4797C23.9211 21.0592 24.1305 20.6393 24.3615 20.2366L15.6874 15.2606ZM24.0676 12.0719L22.3787 10.8273L16.4461 18.8774L18.135 20.122L24.0676 12.0719ZM23.4367 17.8197C23.7603 17.3807 24.1139 16.9541 24.4854 16.5546L17.1623 9.74494C16.5319 10.4228 15.9362 11.1417 15.3881 11.885L23.4367 17.8197ZM17.4181 16.8105L18.9543 18.2398L25.7658 10.9183L24.2296 9.48908L17.4181 16.8105ZM18.699 11.1737C18.1235 11.7924 17.5782 12.4497 17.0764 13.1304L25.1262 19.0635C25.4007 18.6911 25.7029 18.3266 26.0212 17.9844L18.699 11.1737ZM27.5793 9.95764L26.2135 8.36472L18.622 14.8739L19.9878 16.4668L27.5793 9.95764ZM25.6714 15.4158C26.0864 15.0602 26.5272 14.7236 26.9791 14.4174L21.3696 6.13887C20.6047 6.65719 19.8643 7.22274 19.1641 7.82276L25.6714 15.4158ZM20.035 13.0827L21.212 14.8199L29.4907 9.21073L28.3137 7.47358L20.035 13.0827ZM22.5456 7.87672C21.848 8.34968 21.171 8.86648 20.5306 9.41508L27.0366 17.0093C27.3917 16.7051 27.77 16.4163 28.1571 16.1539L22.5456 7.87672ZM31.4722 8.67878L30.4977 6.821L21.6421 11.4663L22.6166 13.3241L31.4722 8.67878ZM28.3914 13.572C28.8766 13.3177 29.3819 13.0877 29.8898 12.8905L26.2708 3.56835C25.4088 3.90301 24.5618 4.28883 23.7484 4.71526L28.3914 13.572ZM23.4198 10.0404L24.1798 11.9963L33.5008 8.37434L32.7408 6.41848L23.4198 10.0404ZM27.0344 5.52282C26.2442 5.82888 25.4672 6.18241 24.7206 6.57424L29.3682 15.4286C29.7808 15.212 30.2122 15.0159 30.6462 14.8478L27.0344 5.52282ZM35.5523 8.30377L35.0184 6.275L25.3477 8.82018L25.8816 10.849L35.5523 8.30377ZM31.4553 12.383C31.9855 12.2435 32.5299 12.1323 33.0693 12.0538L31.6281 2.15815C30.7125 2.2915 29.7998 2.47823 28.9107 2.71217L31.4553 12.383ZM27.4012 7.82846L27.7043 9.90444L37.5994 8.45943L37.2962 6.38345L27.4012 7.82846ZM31.9303 4.23428C31.0961 4.35595 30.2603 4.52556 29.4404 4.74208L31.9936 14.4106C32.4409 14.2925 32.9058 14.1978 33.3735 14.1296L31.9303 4.23428Z" fill="black" mask="url(#path-7-inside-4_117_129)"/>
<mask id="path-9-inside-5_117_129" fill="white">
<path d="M34.261 9.02096L34.1483 6.9261C34.5081 6.90669 34.8715 6.89673 35.2371 6.89673V8.99474C34.9093 8.99474 34.5836 9.00365 34.261 9.02096Z"/>
</mask>
<path d="M34.261 9.02096L29.2682 9.28972L29.537 14.2816L34.5289 14.0138L34.261 9.02096ZM34.1483 6.9261L33.879 1.93336L28.8868 2.20262L29.1555 7.19486L34.1483 6.9261ZM35.2371 6.89673H40.2371V1.89673H35.2371V6.89673ZM35.2371 8.99474V13.9947H40.2371V8.99474H35.2371ZM39.2538 8.7522L39.141 6.65734L29.1555 7.19486L29.2682 9.28972L39.2538 8.7522ZM34.4175 11.9188C34.6886 11.9042 34.9623 11.8967 35.2371 11.8967V1.89673C34.7808 1.89673 34.3275 1.90916 33.879 1.93336L34.4175 11.9188ZM30.2371 6.89673V8.99474H40.2371V6.89673H30.2371ZM35.2371 3.99474C34.8187 3.99474 34.4037 4.00611 33.9931 4.02814L34.5289 14.0138C34.7635 14.0012 34.9999 13.9947 35.2371 13.9947V3.99474Z" fill="black" mask="url(#path-9-inside-5_117_129)"/>
<mask id="path-11-inside-6_117_129" fill="white">
<path d="M27.9948 25.1379H42.4779V27.2359H27.9948V25.1379Z"/>
</mask>
<path d="M27.9948 25.1379V20.1379H22.9948V25.1379H27.9948ZM42.4779 25.1379H47.4779V20.1379H42.4779V25.1379ZM42.4779 27.2359V32.2359H47.4779V27.2359H42.4779ZM27.9948 27.2359H22.9948V32.2359H27.9948V27.2359ZM27.9948 30.1379H42.4779V20.1379H27.9948V30.1379ZM37.4779 25.1379V27.2359H47.4779V25.1379H37.4779ZM42.4779 22.2359H27.9948V32.2359H42.4779V22.2359ZM32.9948 27.2359V25.1379H22.9948V27.2359H32.9948Z" fill="black" mask="url(#path-11-inside-6_117_129)"/>
<mask id="path-13-inside-7_117_129" fill="white">
<path d="M34.1871 19.0488H36.2851V33.3253H34.1871V19.0488Z"/>
</mask>
<path d="M34.1871 19.0488V14.0488H29.1871V19.0488H34.1871ZM36.2851 19.0488H41.2851V14.0488H36.2851V19.0488ZM36.2851 33.3253V38.3253H41.2851V33.3253H36.2851ZM34.1871 33.3253H29.1871V38.3253H34.1871V33.3253ZM34.1871 24.0488H36.2851V14.0488H34.1871V24.0488ZM31.2851 19.0488V33.3253H41.2851V19.0488H31.2851ZM36.2851 28.3253H34.1871V38.3253H36.2851V28.3253ZM39.1871 33.3253V19.0488H29.1871V33.3253H39.1871Z" fill="black" mask="url(#path-13-inside-7_117_129)"/>
</svg>
